<svg width="19" height="19" viewBox="0 0 19 19" fill="none" xmlns="http://www.w3.org/2000/svg">
<path d="M1.1871 2.375H2.59677L4.85968 13.415C4.9215 13.6501 5.05443 13.848 5.25847 14.0088C5.4625 14.1696 5.67581 14.25 5.89839 14.25H16.0444C16.2793 14.25 16.4988 14.1696 16.7028 14.0088C16.9069 13.848 17.0398 13.6501 17.1016 13.415L18.9194 6.41992C19.043 5.97461 19.0245 5.58496 18.8637 5.25098C18.703 4.91699 18.4556 4.75 18.1218 4.75L4.97097 2.46777L4.6371 0.816406C4.57527 0.59375 4.44234 0.402018 4.23831 0.241211C4.03427 0.0804036 3.82097 0 3.59839 0H1.1871C0.853224 0 0.571907 0.114421 0.343143 0.343262C0.11438 0.572103 0 0.850423 0 1.17822C0 1.50602 0.117472 1.78743 0.352419 2.02246C0.587364 2.25749 0.865591 2.375 1.1871 2.375ZM13.6516 15.4375C13.157 15.4375 12.7366 15.6107 12.3903 15.957C12.0441 16.3034 11.871 16.724 11.871 17.2188C11.871 17.7135 12.0441 18.1341 12.3903 18.4805C12.7366 18.8268 13.157 19 13.6516 19C14.1462 19 14.5667 18.8268 14.9129 18.4805C15.2591 18.1341 15.4323 17.7135 15.4323 17.2188C15.4323 16.724 15.2591 16.3034 14.9129 15.957C14.5667 15.6107 14.1462 15.4375 13.6516 15.4375ZM7.71613 15.4375C7.2215 15.4375 6.80107 15.6107 6.45484 15.957C6.1086 16.3034 5.93548 16.724 5.93548 17.2188C5.93548 17.7135 6.1086 18.1341 6.45484 18.4805C6.80107 18.8268 7.2215 19 7.71613 19C8.21075 19 8.63118 18.8268 8.97742 18.4805C9.32366 18.1341 9.49677 17.7135 9.49677 17.2188C9.49677 16.724 9.32366 16.3034 8.97742 15.957C8.63118 15.6107 8.21075 15.4375 7.71613 15.4375Z" fill="white"/>
</svg>
