<svg width="156" height="122" viewBox="0 0 156 122" fill="none" xmlns="http://www.w3.org/2000/svg">
<g opacity="0.4">
<g filter="url(#filter0_d_3664_2086)">
<rect x="8" y="6" width="140" height="105" rx="8" stroke="#4F4F4F" stroke-dasharray="2 2"/>
</g>
</g>
<path d="M41.9324 67.732H37.0324L36.0664 70H34.1904L38.6004 60.2H40.3924L44.8164 70H42.9124L41.9324 67.732ZM41.3304 66.304L39.4824 62.02L37.6484 66.304H41.3304ZM53.5684 59.612V70H51.8884V69.034C51.599 69.3887 51.2397 69.6547 50.8104 69.832C50.3904 70.0093 49.9237 70.098 49.4104 70.098C48.6917 70.098 48.043 69.9393 47.4644 69.622C46.895 69.3047 46.447 68.8567 46.1204 68.278C45.7937 67.69 45.6304 67.018 45.6304 66.262C45.6304 65.506 45.7937 64.8387 46.1204 64.26C46.447 63.6813 46.895 63.2333 47.4644 62.916C48.043 62.5987 48.6917 62.44 49.4104 62.44C49.905 62.44 50.3577 62.524 50.7684 62.692C51.179 62.86 51.529 63.112 51.8184 63.448V59.612H53.5684ZM49.6204 68.6C50.0404 68.6 50.4184 68.5067 50.7544 68.32C51.0904 68.124 51.3564 67.8487 51.5524 67.494C51.7484 67.1393 51.8464 66.7287 51.8464 66.262C51.8464 65.7953 51.7484 65.3847 51.5524 65.03C51.3564 64.6753 51.0904 64.4047 50.7544 64.218C50.4184 64.022 50.0404 63.924 49.6204 63.924C49.2004 63.924 48.8224 64.022 48.4864 64.218C48.1504 64.4047 47.8844 64.6753 47.6884 65.03C47.4924 65.3847 47.3944 65.7953 47.3944 66.262C47.3944 66.7287 47.4924 67.1393 47.6884 67.494C47.8844 67.8487 48.1504 68.124 48.4864 68.32C48.8224 68.5067 49.2004 68.6 49.6204 68.6ZM63.5997 59.612V70H61.9197V69.034C61.6304 69.3887 61.271 69.6547 60.8417 69.832C60.4217 70.0093 59.955 70.098 59.4417 70.098C58.723 70.098 58.0744 69.9393 57.4957 69.622C56.9264 69.3047 56.4784 68.8567 56.1517 68.278C55.825 67.69 55.6617 67.018 55.6617 66.262C55.6617 65.506 55.825 64.8387 56.1517 64.26C56.4784 63.6813 56.9264 63.2333 57.4957 62.916C58.0744 62.5987 58.723 62.44 59.4417 62.44C59.9364 62.44 60.389 62.524 60.7997 62.692C61.2104 62.86 61.5604 63.112 61.8497 63.448V59.612H63.5997ZM59.6517 68.6C60.0717 68.6 60.4497 68.5067 60.7857 68.32C61.1217 68.124 61.3877 67.8487 61.5837 67.494C61.7797 67.1393 61.8777 66.7287 61.8777 66.262C61.8777 65.7953 61.7797 65.3847 61.5837 65.03C61.3877 64.6753 61.1217 64.4047 60.7857 64.218C60.4497 64.022 60.0717 63.924 59.6517 63.924C59.2317 63.924 58.8537 64.022 58.5177 64.218C58.1817 64.4047 57.9157 64.6753 57.7197 65.03C57.5237 65.3847 57.4257 65.7953 57.4257 66.262C57.4257 66.7287 57.5237 67.1393 57.7197 67.494C57.9157 67.8487 58.1817 68.124 58.5177 68.32C58.8537 68.5067 59.2317 68.6 59.6517 68.6ZM74.7422 62.44C75.4702 62.44 76.1188 62.5987 76.6882 62.916C77.2668 63.2333 77.7195 63.6813 78.0462 64.26C78.3728 64.8387 78.5362 65.506 78.5362 66.262C78.5362 67.018 78.3728 67.69 78.0462 68.278C77.7195 68.8567 77.2668 69.3047 76.6882 69.622C76.1188 69.9393 75.4702 70.098 74.7422 70.098C73.7342 70.098 72.9362 69.762 72.3482 69.09V72.716H70.5982V62.524H72.2642V63.504C72.5535 63.1493 72.9082 62.8833 73.3282 62.706C73.7575 62.5287 74.2288 62.44 74.7422 62.44ZM74.5462 68.6C75.1902 68.6 75.7175 68.3853 76.1282 67.956C76.5482 67.5267 76.7582 66.962 76.7582 66.262C76.7582 65.562 76.5482 64.9973 76.1282 64.568C75.7175 64.1387 75.1902 63.924 74.5462 63.924C74.1262 63.924 73.7482 64.022 73.4122 64.218C73.0762 64.4047 72.8102 64.6753 72.6142 65.03C72.4182 65.3847 72.3202 65.7953 72.3202 66.262C72.3202 66.7287 72.4182 67.1393 72.6142 67.494C72.8102 67.8487 73.0762 68.124 73.4122 68.32C73.7482 68.5067 74.1262 68.6 74.5462 68.6ZM84.8578 62.44C85.8005 62.44 86.5565 62.7153 87.1258 63.266C87.6951 63.8167 87.9798 64.6333 87.9798 65.716V70H86.2298V65.94C86.2298 65.2867 86.0758 64.7967 85.7678 64.47C85.4598 64.134 85.0211 63.966 84.4518 63.966C83.8078 63.966 83.2991 64.162 82.9258 64.554C82.5525 64.9367 82.3658 65.492 82.3658 66.22V70H80.6158V59.612H82.3658V63.392C82.6551 63.084 83.0098 62.8507 83.4298 62.692C83.8591 62.524 84.3351 62.44 84.8578 62.44ZM94.0482 70.098C93.2922 70.098 92.6108 69.9347 92.0042 69.608C91.3975 69.2813 90.9215 68.8287 90.5762 68.25C90.2402 67.662 90.0722 66.9993 90.0722 66.262C90.0722 65.5247 90.2402 64.8667 90.5762 64.288C90.9215 63.7093 91.3975 63.2567 92.0042 62.93C92.6108 62.6033 93.2922 62.44 94.0482 62.44C94.8135 62.44 95.4995 62.6033 96.1062 62.93C96.7128 63.2567 97.1842 63.7093 97.5202 64.288C97.8655 64.8667 98.0382 65.5247 98.0382 66.262C98.0382 66.9993 97.8655 67.662 97.5202 68.25C97.1842 68.8287 96.7128 69.2813 96.1062 69.608C95.4995 69.9347 94.8135 70.098 94.0482 70.098ZM94.0482 68.6C94.6922 68.6 95.2242 68.3853 95.6442 67.956C96.0642 67.5267 96.2742 66.962 96.2742 66.262C96.2742 65.562 96.0642 64.9973 95.6442 64.568C95.2242 64.1387 94.6922 63.924 94.0482 63.924C93.4042 63.924 92.8722 64.1387 92.4522 64.568C92.0415 64.9973 91.8362 65.562 91.8362 66.262C91.8362 66.962 92.0415 67.5267 92.4522 67.956C92.8722 68.3853 93.4042 68.6 94.0482 68.6ZM104.626 69.594C104.42 69.762 104.168 69.888 103.87 69.972C103.58 70.056 103.272 70.098 102.946 70.098C102.124 70.098 101.49 69.8833 101.042 69.454C100.594 69.0247 100.37 68.3993 100.37 67.578V63.98H99.1376V62.58H100.37V60.872H102.12V62.58H104.122V63.98H102.12V67.536C102.12 67.9 102.208 68.18 102.386 68.376C102.563 68.5627 102.82 68.656 103.156 68.656C103.548 68.656 103.874 68.5533 104.136 68.348L104.626 69.594ZM109.599 70.098C108.843 70.098 108.162 69.9347 107.555 69.608C106.948 69.2813 106.472 68.8287 106.127 68.25C105.791 67.662 105.623 66.9993 105.623 66.262C105.623 65.5247 105.791 64.8667 106.127 64.288C106.472 63.7093 106.948 63.2567 107.555 62.93C108.162 62.6033 108.843 62.44 109.599 62.44C110.364 62.44 111.05 62.6033 111.657 62.93C112.264 63.2567 112.735 63.7093 113.071 64.288C113.416 64.8667 113.589 65.5247 113.589 66.262C113.589 66.9993 113.416 67.662 113.071 68.25C112.735 68.8287 112.264 69.2813 111.657 69.608C111.05 69.9347 110.364 70.098 109.599 70.098ZM109.599 68.6C110.243 68.6 110.775 68.3853 111.195 67.956C111.615 67.5267 111.825 66.962 111.825 66.262C111.825 65.562 111.615 64.9973 111.195 64.568C110.775 64.1387 110.243 63.924 109.599 63.924C108.955 63.924 108.423 64.1387 108.003 64.568C107.592 64.9973 107.387 65.562 107.387 66.262C107.387 66.962 107.592 67.5267 108.003 67.956C108.423 68.3853 108.955 68.6 109.599 68.6ZM117.993 70.098C117.386 70.098 116.793 70.0187 116.215 69.86C115.636 69.7013 115.174 69.5007 114.829 69.258L115.501 67.928C115.837 68.152 116.238 68.334 116.705 68.474C117.181 68.6047 117.647 68.67 118.105 68.67C119.15 68.67 119.673 68.3947 119.673 67.844C119.673 67.5827 119.537 67.4007 119.267 67.298C119.005 67.1953 118.581 67.0973 117.993 67.004C117.377 66.9107 116.873 66.8033 116.481 66.682C116.098 66.5607 115.762 66.3507 115.473 66.052C115.193 65.744 115.053 65.3193 115.053 64.778C115.053 64.0687 115.347 63.504 115.935 63.084C116.532 62.6547 117.335 62.44 118.343 62.44C118.856 62.44 119.369 62.5007 119.883 62.622C120.396 62.734 120.816 62.888 121.143 63.084L120.471 64.414C119.836 64.0407 119.122 63.854 118.329 63.854C117.815 63.854 117.423 63.9333 117.153 64.092C116.891 64.2413 116.761 64.442 116.761 64.694C116.761 64.974 116.901 65.1747 117.181 65.296C117.47 65.408 117.913 65.5153 118.511 65.618C119.108 65.7113 119.598 65.8187 119.981 65.94C120.363 66.0613 120.69 66.2667 120.961 66.556C121.241 66.8453 121.381 67.256 121.381 67.788C121.381 68.488 121.077 69.048 120.471 69.468C119.864 69.888 119.038 70.098 117.993 70.098Z" fill="black" fill-opacity="0.4"/>
<path d="M25.7373 77V84H24.7473V77.87H23.1673V77H25.7373ZM30.5885 79.75C31.0485 79.75 31.4585 79.8367 31.8185 80.01C32.1851 80.1833 32.4718 80.4333 32.6785 80.76C32.8851 81.08 32.9885 81.45 32.9885 81.87C32.9885 82.31 32.8785 82.6967 32.6585 83.03C32.4451 83.3633 32.1485 83.6233 31.7685 83.81C31.3951 83.99 30.9751 84.08 30.5085 84.08C29.5685 84.08 28.8418 83.7767 28.3285 83.17C27.8218 82.5633 27.5685 81.7033 27.5685 80.59C27.5685 79.81 27.7051 79.1467 27.9785 78.6C28.2585 78.0467 28.6451 77.63 29.1385 77.35C29.6385 77.0633 30.2185 76.92 30.8785 76.92C31.2185 76.92 31.5385 76.9567 31.8385 77.03C32.1385 77.0967 32.3985 77.1967 32.6185 77.33L32.2385 78.11C31.9051 77.89 31.4585 77.78 30.8985 77.78C30.1718 77.78 29.6018 78.0067 29.1885 78.46C28.7751 78.9067 28.5685 79.56 28.5685 80.42C28.5685 80.5267 28.5718 80.61 28.5785 80.67C28.7785 80.37 29.0518 80.1433 29.3985 79.99C29.7518 79.83 30.1485 79.75 30.5885 79.75ZM30.4685 83.27C30.9285 83.27 31.3018 83.1467 31.5885 82.9C31.8751 82.6533 32.0185 82.3233 32.0185 81.91C32.0185 81.4967 31.8718 81.17 31.5785 80.93C31.2918 80.6833 30.9051 80.56 30.4185 80.56C30.1051 80.56 29.8251 80.62 29.5785 80.74C29.3385 80.86 29.1485 81.0233 29.0085 81.23C28.8751 81.4367 28.8085 81.6667 28.8085 81.92C28.8085 82.1667 28.8718 82.3933 28.9985 82.6C29.1318 82.8 29.3218 82.9633 29.5685 83.09C29.8218 83.21 30.1218 83.27 30.4685 83.27ZM36.9004 84.08C36.347 84.08 35.8537 83.94 35.4204 83.66C34.9937 83.3733 34.657 82.96 34.4104 82.42C34.1637 81.88 34.0404 81.24 34.0404 80.5C34.0404 79.76 34.1637 79.12 34.4104 78.58C34.657 78.04 34.9937 77.63 35.4204 77.35C35.8537 77.0633 36.347 76.92 36.9004 76.92C37.447 76.92 37.9337 77.0633 38.3604 77.35C38.7937 77.63 39.1337 78.04 39.3804 78.58C39.627 79.12 39.7504 79.76 39.7504 80.5C39.7504 81.24 39.627 81.88 39.3804 82.42C39.1337 82.96 38.7937 83.3733 38.3604 83.66C37.9337 83.94 37.447 84.08 36.9004 84.08ZM36.9004 83.19C37.4604 83.19 37.907 82.96 38.2404 82.5C38.5804 82.04 38.7504 81.3733 38.7504 80.5C38.7504 79.6267 38.5804 78.96 38.2404 78.5C37.907 78.04 37.4604 77.81 36.9004 77.81C36.3337 77.81 35.8804 78.04 35.5404 78.5C35.207 78.96 35.0404 79.6267 35.0404 80.5C35.0404 81.3733 35.207 82.04 35.5404 82.5C35.8804 82.96 36.3337 83.19 36.9004 83.19ZM43.8703 84.08C43.3169 84.08 42.8236 83.94 42.3903 83.66C41.9636 83.3733 41.6269 82.96 41.3803 82.42C41.1336 81.88 41.0103 81.24 41.0103 80.5C41.0103 79.76 41.1336 79.12 41.3803 78.58C41.6269 78.04 41.9636 77.63 42.3903 77.35C42.8236 77.0633 43.3169 76.92 43.8703 76.92C44.4169 76.92 44.9036 77.0633 45.3303 77.35C45.7636 77.63 46.1036 78.04 46.3503 78.58C46.5969 79.12 46.7203 79.76 46.7203 80.5C46.7203 81.24 46.5969 81.88 46.3503 82.42C46.1036 82.96 45.7636 83.3733 45.3303 83.66C44.9036 83.94 44.4169 84.08 43.8703 84.08ZM43.8703 83.19C44.4303 83.19 44.8769 82.96 45.2103 82.5C45.5503 82.04 45.7203 81.3733 45.7203 80.5C45.7203 79.6267 45.5503 78.96 45.2103 78.5C44.8769 78.04 44.4303 77.81 43.8703 77.81C43.3036 77.81 42.8503 78.04 42.5103 78.5C42.1769 78.96 42.0103 79.6267 42.0103 80.5C42.0103 81.3733 42.1769 82.04 42.5103 82.5C42.8503 82.96 43.3036 83.19 43.8703 83.19ZM54.7757 84L53.2457 81.97L51.6957 84H50.6257L52.7157 81.29L50.7257 78.7H51.7957L53.2557 80.61L54.7057 78.7H55.7557L53.7557 81.29L55.8657 84H54.7757ZM61.9389 77V84H60.9489V77.87H59.3689V77H61.9389ZM68.69 83.13V84H63.66V83.32L66.51 80.57C66.8567 80.2367 67.09 79.95 67.21 79.71C67.33 79.4633 67.39 79.2167 67.39 78.97C67.39 78.6033 67.26 78.32 67 78.12C66.7467 77.9133 66.38 77.81 65.9 77.81C65.1267 77.81 64.53 78.0633 64.11 78.57L63.43 77.98C63.7034 77.6467 64.06 77.3867 64.5 77.2C64.9467 77.0133 65.4434 76.92 65.99 76.92C66.7234 76.92 67.3067 77.0967 67.74 77.45C68.1734 77.7967 68.39 78.27 68.39 78.87C68.39 79.2433 68.31 79.5967 68.15 79.93C67.99 80.2633 67.6867 80.6433 67.24 81.07L65.1 83.13H68.69ZM72.6429 84.08C72.0896 84.08 71.5963 83.94 71.1629 83.66C70.7363 83.3733 70.3996 82.96 70.1529 82.42C69.9063 81.88 69.7829 81.24 69.7829 80.5C69.7829 79.76 69.9063 79.12 70.1529 78.58C70.3996 78.04 70.7363 77.63 71.1629 77.35C71.5963 77.0633 72.0896 76.92 72.6429 76.92C73.1896 76.92 73.6763 77.0633 74.1029 77.35C74.5363 77.63 74.8763 78.04 75.1229 78.58C75.3696 79.12 75.4929 79.76 75.4929 80.5C75.4929 81.24 75.3696 81.88 75.1229 82.42C74.8763 82.96 74.5363 83.3733 74.1029 83.66C73.6763 83.94 73.1896 84.08 72.6429 84.08ZM72.6429 83.19C73.2029 83.19 73.6496 82.96 73.9829 82.5C74.3229 82.04 74.4929 81.3733 74.4929 80.5C74.4929 79.6267 74.3229 78.96 73.9829 78.5C73.6496 78.04 73.2029 77.81 72.6429 77.81C72.0763 77.81 71.6229 78.04 71.2829 78.5C70.9496 78.96 70.7829 79.6267 70.7829 80.5C70.7829 81.3733 70.9496 82.04 71.2829 82.5C71.6229 82.96 72.0763 83.19 72.6429 83.19ZM79.6129 84.08C79.0595 84.08 78.5662 83.94 78.1329 83.66C77.7062 83.3733 77.3695 82.96 77.1229 82.42C76.8762 81.88 76.7529 81.24 76.7529 80.5C76.7529 79.76 76.8762 79.12 77.1229 78.58C77.3695 78.04 77.7062 77.63 78.1329 77.35C78.5662 77.0633 79.0595 76.92 79.6129 76.92C80.1595 76.92 80.6462 77.0633 81.0729 77.35C81.5062 77.63 81.8462 78.04 82.0929 78.58C82.3395 79.12 82.4629 79.76 82.4629 80.5C82.4629 81.24 82.3395 81.88 82.0929 82.42C81.8462 82.96 81.5062 83.3733 81.0729 83.66C80.6462 83.94 80.1595 84.08 79.6129 84.08ZM79.6129 83.19C80.1729 83.19 80.6195 82.96 80.9529 82.5C81.2929 82.04 81.4629 81.3733 81.4629 80.5C81.4629 79.6267 81.2929 78.96 80.9529 78.5C80.6195 78.04 80.1729 77.81 79.6129 77.81C79.0462 77.81 78.5929 78.04 78.2529 78.5C77.9195 78.96 77.7529 79.6267 77.7529 80.5C77.7529 81.3733 77.9195 82.04 78.2529 82.5C78.5929 82.96 79.0462 83.19 79.6129 83.19ZM89.0783 77.31C88.505 77.31 88.2183 77.62 88.2183 78.24V78.7H89.7583V79.49H88.2383V84H87.2783V79.49H86.3783V78.7H87.2783V78.23C87.2783 77.7033 87.4317 77.2867 87.7383 76.98C88.045 76.6733 88.475 76.52 89.0283 76.52C89.2417 76.52 89.4417 76.5467 89.6283 76.6C89.815 76.6533 89.975 76.73 90.1083 76.83L89.8183 77.56C89.5983 77.3933 89.3517 77.31 89.0783 77.31ZM93.1556 84.06C92.6289 84.06 92.1556 83.9433 91.7356 83.71C91.3156 83.4767 90.9856 83.1567 90.7456 82.75C90.5123 82.3367 90.3956 81.87 90.3956 81.35C90.3956 80.83 90.5123 80.3667 90.7456 79.96C90.9856 79.5467 91.3156 79.2267 91.7356 79C92.1556 78.7667 92.6289 78.65 93.1556 78.65C93.6823 78.65 94.1523 78.7667 94.5656 79C94.9856 79.2267 95.3123 79.5467 95.5456 79.96C95.7856 80.3667 95.9056 80.83 95.9056 81.35C95.9056 81.87 95.7856 82.3367 95.5456 82.75C95.3123 83.1567 94.9856 83.4767 94.5656 83.71C94.1523 83.9433 93.6823 84.06 93.1556 84.06ZM93.1556 83.22C93.4956 83.22 93.7989 83.1433 94.0656 82.99C94.3389 82.83 94.5523 82.61 94.7056 82.33C94.8589 82.0433 94.9356 81.7167 94.9356 81.35C94.9356 80.9833 94.8589 80.66 94.7056 80.38C94.5523 80.0933 94.3389 79.8733 94.0656 79.72C93.7989 79.5667 93.4956 79.49 93.1556 79.49C92.8156 79.49 92.5089 79.5667 92.2356 79.72C91.9689 79.8733 91.7556 80.0933 91.5956 80.38C91.4423 80.66 91.3656 80.9833 91.3656 81.35C91.3656 81.7167 91.4423 82.0433 91.5956 82.33C91.7556 82.61 91.9689 82.83 92.2356 82.99C92.5089 83.1433 92.8156 83.22 93.1556 83.22ZM98.4532 79.59C98.6199 79.2833 98.8666 79.05 99.1932 78.89C99.5199 78.73 99.9166 78.65 100.383 78.65V79.58C100.33 79.5733 100.257 79.57 100.163 79.57C99.6432 79.57 99.2332 79.7267 98.9332 80.04C98.6399 80.3467 98.4932 80.7867 98.4932 81.36V84H97.5332V78.7H98.4532V79.59ZM107.75 78.65C108.424 78.65 108.957 78.8467 109.35 79.24C109.75 79.6267 109.95 80.1967 109.95 80.95V84H108.99V81.06C108.99 80.5467 108.867 80.16 108.62 79.9C108.374 79.64 108.02 79.51 107.56 79.51C107.04 79.51 106.63 79.6633 106.33 79.97C106.03 80.27 105.88 80.7033 105.88 81.27V84H104.92V76.58H105.88V79.45C106.08 79.1967 106.34 79 106.66 78.86C106.987 78.72 107.35 78.65 107.75 78.65ZM112.027 78.7H112.987V84H112.027V78.7ZM112.507 77.68C112.32 77.68 112.164 77.62 112.037 77.5C111.917 77.38 111.857 77.2333 111.857 77.06C111.857 76.8867 111.917 76.74 112.037 76.62C112.164 76.4933 112.32 76.43 112.507 76.43C112.694 76.43 112.847 76.49 112.967 76.61C113.094 76.7233 113.157 76.8667 113.157 77.04C113.157 77.22 113.094 77.3733 112.967 77.5C112.847 77.62 112.694 77.68 112.507 77.68ZM119.026 79.59C119.192 79.2833 119.439 79.05 119.766 78.89C120.092 78.73 120.489 78.65 120.956 78.65V79.58C120.902 79.5733 120.829 79.57 120.736 79.57C120.216 79.57 119.806 79.7267 119.506 80.04C119.212 80.3467 119.066 80.7867 119.066 81.36V84H118.106V78.7H119.026V79.59ZM127.18 81.38C127.18 81.4533 127.173 81.55 127.16 81.67H122.86C122.92 82.1367 123.123 82.5133 123.47 82.8C123.823 83.08 124.26 83.22 124.78 83.22C125.413 83.22 125.923 83.0067 126.31 82.58L126.84 83.2C126.6 83.48 126.3 83.6933 125.94 83.84C125.587 83.9867 125.19 84.06 124.75 84.06C124.19 84.06 123.693 83.9467 123.26 83.72C122.827 83.4867 122.49 83.1633 122.25 82.75C122.017 82.3367 121.9 81.87 121.9 81.35C121.9 80.8367 122.013 80.3733 122.24 79.96C122.473 79.5467 122.79 79.2267 123.19 79C123.597 78.7667 124.053 78.65 124.56 78.65C125.067 78.65 125.517 78.7667 125.91 79C126.31 79.2267 126.62 79.5467 126.84 79.96C127.067 80.3733 127.18 80.8467 127.18 81.38ZM124.56 79.46C124.1 79.46 123.713 79.6 123.4 79.88C123.093 80.16 122.913 80.5267 122.86 80.98H126.26C126.207 80.5333 126.023 80.17 125.71 79.89C125.403 79.6033 125.02 79.46 124.56 79.46ZM130.333 84.06C129.9 84.06 129.483 84.0033 129.083 83.89C128.683 83.77 128.37 83.62 128.143 83.44L128.543 82.68C128.776 82.8467 129.06 82.98 129.393 83.08C129.726 83.18 130.063 83.23 130.403 83.23C131.243 83.23 131.663 82.99 131.663 82.51C131.663 82.35 131.606 82.2233 131.493 82.13C131.38 82.0367 131.236 81.97 131.063 81.93C130.896 81.8833 130.656 81.8333 130.343 81.78C129.916 81.7133 129.566 81.6367 129.293 81.55C129.026 81.4633 128.796 81.3167 128.603 81.11C128.41 80.9033 128.313 80.6133 128.313 80.24C128.313 79.76 128.513 79.3767 128.913 79.09C129.313 78.7967 129.85 78.65 130.523 78.65C130.876 78.65 131.23 78.6933 131.583 78.78C131.936 78.8667 132.226 78.9833 132.453 79.13L132.043 79.89C131.61 79.61 131.1 79.47 130.513 79.47C130.106 79.47 129.796 79.5367 129.583 79.67C129.37 79.8033 129.263 79.98 129.263 80.2C129.263 80.3733 129.323 80.51 129.443 80.61C129.563 80.71 129.71 80.7833 129.883 80.83C130.063 80.8767 130.313 80.93 130.633 80.99C131.06 81.0633 131.403 81.1433 131.663 81.23C131.93 81.31 132.156 81.45 132.343 81.65C132.53 81.85 132.623 82.13 132.623 82.49C132.623 82.97 132.416 83.3533 132.003 83.64C131.596 83.92 131.04 84.06 130.333 84.06Z" fill="black" fill-opacity="0.2"/>
<path d="M86.7501 40.8443H78.8516V49H76.1763V40.8443H68.2778V38.2005H76.1763V30H78.8516V38.2005H86.7501V40.8443Z" fill="black" fill-opacity="0.2"/>
<defs>
<filter id="filter0_d_3664_2086" x="0.0100002" y="0.15" width="155.98" height="120.98" filterUnits="userSpaceOnUse" color-interpolation-filters="sRGB">
<feFlood flood-opacity="0" result="BackgroundImageFix"/>
<feColorMatrix in="SourceAlpha" type="matrix" values="0 0 0 0 0 0 0 0 0 0 0 0 0 0 0 0 0 0 127 0" result="hardAlpha"/>
<feOffset dy="2.14"/>
<feGaussianBlur stdDeviation="3.745"/>
<feColorMatrix type="matrix" values="0 0 0 0 0 0 0 0 0 0 0 0 0 0 0 0 0 0 0.07 0"/>
<feBlend mode="normal" in2="BackgroundImageFix" result="effect1_dropShadow_3664_2086"/>
<feBlend mode="normal" in="SourceGraphic" in2="effect1_dropShadow_3664_2086" result="shape"/>
</filter>
</defs>
</svg>
