<svg width="32" height="32" viewBox="0 0 32 32" fill="none" xmlns="http://www.w3.org/2000/svg">
<circle opacity="0.4" cx="16" cy="16" r="16" fill="white"/>
<path d="M25.7314 10.3699C25.4304 9.67283 24.9963 9.04112 24.4534 8.51017C23.9102 7.97764 23.2696 7.55444 22.5667 7.26359C21.8378 6.9608 21.056 6.80582 20.2667 6.80763C19.1594 6.80763 18.079 7.11086 17.1401 7.68361C16.9155 7.82062 16.7021 7.97111 16.5 8.13507C16.2979 7.97111 16.0845 7.82062 15.8599 7.68361C14.921 7.11086 13.8406 6.80763 12.7333 6.80763C11.9359 6.80763 11.1633 6.96037 10.4333 7.26359C9.72803 7.55558 9.09238 7.9756 8.54658 8.51017C8.00302 9.04052 7.56881 9.67238 7.26855 10.3699C6.95635 11.0954 6.79688 11.8658 6.79688 12.6587C6.79688 13.4067 6.94961 14.186 7.25283 14.9789C7.50664 15.6415 7.87051 16.3288 8.33545 17.0229C9.07217 18.1212 10.0852 19.2667 11.343 20.4279C13.4273 22.3528 15.4915 23.6825 15.5791 23.7364L16.1114 24.0778C16.3473 24.2283 16.6505 24.2283 16.8863 24.0778L17.4187 23.7364C17.5063 23.6803 19.5682 22.3528 21.6548 20.4279C22.9126 19.2667 23.9256 18.1212 24.6623 17.0229C25.1272 16.3288 25.4934 15.6415 25.7449 14.9789C26.0481 14.186 26.2009 13.4067 26.2009 12.6587C26.2031 11.8658 26.0437 11.0954 25.7314 10.3699ZM16.5 22.3012C16.5 22.3012 8.50391 17.1778 8.50391 12.6587C8.50391 10.3699 10.3974 8.51466 12.7333 8.51466C14.3752 8.51466 15.7992 9.43107 16.5 10.7697C17.2008 9.43107 18.6248 8.51466 20.2667 8.51466C22.6026 8.51466 24.4961 10.3699 24.4961 12.6587C24.4961 17.1778 16.5 22.3012 16.5 22.3012Z" fill="white"/>
</svg>
