<svg width="46" height="22" viewBox="0 0 46 22" fill="none" xmlns="http://www.w3.org/2000/svg">
<path d="M10.0283 11.798H6.89627V14.858H4.57427V11.798H1.46027V9.602H4.57427V6.542H6.89627V9.602H10.0283V11.798ZM15.8155 4.184C17.5795 4.184 18.9595 4.724 19.9555 5.804C20.9515 6.872 21.4495 8.414 21.4495 10.43C21.4495 11.858 21.1795 13.082 20.6395 14.102C20.1115 15.122 19.3615 15.896 18.3895 16.424C17.4175 16.952 16.2955 17.216 15.0235 17.216C14.3515 17.216 13.7095 17.144 13.0975 17C12.4855 16.844 11.9635 16.628 11.5315 16.352L12.6115 14.21C13.2235 14.63 14.0095 14.84 14.9695 14.84C16.0375 14.84 16.8835 14.528 17.5075 13.904C18.1315 13.268 18.4675 12.356 18.5155 11.168C17.7595 11.924 16.7155 12.302 15.3835 12.302C14.5795 12.302 13.8475 12.14 13.1875 11.816C12.5275 11.492 12.0055 11.036 11.6215 10.448C11.2375 9.848 11.0455 9.158 11.0455 8.378C11.0455 7.538 11.2555 6.8 11.6755 6.164C12.0955 5.528 12.6655 5.042 13.3855 4.706C14.1175 4.358 14.9275 4.184 15.8155 4.184ZM16.0315 10.124C16.6675 10.124 17.1835 9.95 17.5795 9.602C17.9875 9.242 18.1915 8.786 18.1915 8.234C18.1915 7.682 17.9935 7.232 17.5975 6.884C17.2135 6.536 16.6795 6.362 15.9955 6.362C15.3715 6.362 14.8615 6.53 14.4655 6.866C14.0815 7.202 13.8895 7.658 13.8895 8.234C13.8895 8.81 14.0815 9.272 14.4655 9.62C14.8615 9.956 15.3835 10.124 16.0315 10.124ZM27.1689 4.4V17H24.2529V6.74H21.7329V4.4H27.1689Z" fill="white"/>
<path d="M41.4395 13.802L45.8145 9.13542C45.9382 9.00346 46 8.84738 46 8.66671C46 8.48604 45.9382 8.32985 45.8145 8.19789C45.6908 8.06593 45.5443 8 45.375 8L36.6251 8C36.4558 8 36.3093 8.06593 36.1857 8.19789C36.0619 8.33 36 8.48619 36 8.66671C36 8.84727 36.0619 9.00346 36.1857 9.13542L40.5607 13.802C40.6842 13.9338 40.8308 14 41.0001 14C41.1693 14 41.3158 13.9339 41.4395 13.802Z" fill="white"/>
</svg>
