<svg width="24" height="260" viewBox="0 0 24 260" fill="none" xmlns="http://www.w3.org/2000/svg">
<path d="M12.2539 6L12.2539 89.5" stroke="#33907C" stroke-width="2" stroke-linecap="square"/>
<path d="M11.6882 92.0845L11.6882 249.5" stroke="#606A7B" stroke-width="2" stroke-linecap="round"/>
<path fill-rule="evenodd" clip-rule="evenodd" d="M5.85934 5.99983C5.85934 9.12144 8.72228 11.652 12.2539 11.652C15.7855 11.652 18.6484 9.12144 18.6484 5.99983C18.6484 2.87822 15.7855 0.347656 12.2539 0.347656C8.72228 0.347656 5.85934 2.87822 5.85934 5.99983Z" fill="#33907C"/>
<path opacity="0.4" fill-rule="evenodd" clip-rule="evenodd" d="M0.940517 89C0.940517 94.5228 6.00571 99 12.254 99C18.5022 99 23.5674 94.5228 23.5674 89C23.5674 83.4772 18.5022 79 12.254 79C6.00571 79 0.940517 83.4772 0.940517 89Z" fill="#33907C"/>
<path fill-rule="evenodd" clip-rule="evenodd" d="M5.85934 88.9998C5.85934 92.1214 8.72228 94.652 12.2539 94.652C15.7855 94.652 18.6484 92.1214 18.6484 88.9998C18.6484 85.8782 15.7855 83.3477 12.2539 83.3477C8.72228 83.3477 5.85934 85.8782 5.85934 88.9998Z" fill="#33907C"/>
<path fill-rule="evenodd" clip-rule="evenodd" d="M5.85934 172C5.85934 175.121 8.72228 177.652 12.2539 177.652C15.7855 177.652 18.6484 175.121 18.6484 172C18.6484 168.878 15.7855 166.348 12.2539 166.348C8.72228 166.348 5.85934 168.878 5.85934 172Z" fill="#606A7B"/>
<path fill-rule="evenodd" clip-rule="evenodd" d="M5.85934 254C5.85934 257.121 8.72228 259.652 12.2539 259.652C15.7855 259.652 18.6484 257.121 18.6484 254C18.6484 250.878 15.7855 248.348 12.2539 248.348C8.72228 248.348 5.85934 250.878 5.85934 254Z" fill="#606A7B"/>
</svg>
