<svg width="160" height="200" viewBox="0 0 160 200" fill="none" xmlns="http://www.w3.org/2000/svg">
<rect opacity="0.5" x="0.5" y="0.5" width="159" height="199" rx="9.5" stroke="#4F4F4F" stroke-dasharray="5 5"/>
<g opacity="0.5">
<path d="M32.4014 130.394H25.7054L24.3194 133.544H22.4654L28.1714 120.944H29.9534L35.6774 133.544H33.7874L32.4014 130.394ZM31.7714 128.954L29.0534 122.78L26.3354 128.954H31.7714ZM46.2171 120.188V133.544H44.5611V132.032C44.1771 132.56 43.6911 132.962 43.1031 133.238C42.5151 133.514 41.8671 133.652 41.1591 133.652C40.2351 133.652 39.4071 133.448 38.6751 133.04C37.9431 132.632 37.3671 132.062 36.9471 131.33C36.5391 130.586 36.3351 129.734 36.3351 128.774C36.3351 127.814 36.5391 126.968 36.9471 126.236C37.3671 125.504 37.9431 124.934 38.6751 124.526C39.4071 124.118 40.2351 123.914 41.1591 123.914C41.8431 123.914 42.4731 124.046 43.0491 124.31C43.6251 124.562 44.1051 124.94 44.4891 125.444V120.188H46.2171ZM41.3031 132.14C41.9031 132.14 42.4491 132.002 42.9411 131.726C43.4331 131.438 43.8171 131.042 44.0931 130.538C44.3691 130.022 44.5071 129.434 44.5071 128.774C44.5071 128.114 44.3691 127.532 44.0931 127.028C43.8171 126.512 43.4331 126.116 42.9411 125.84C42.4491 125.564 41.9031 125.426 41.3031 125.426C40.6911 125.426 40.1391 125.564 39.6471 125.84C39.1671 126.116 38.7831 126.512 38.4951 127.028C38.2191 127.532 38.0811 128.114 38.0811 128.774C38.0811 129.434 38.2191 130.022 38.4951 130.538C38.7831 131.042 39.1671 131.438 39.6471 131.726C40.1391 132.002 40.6911 132.14 41.3031 132.14ZM58.4866 120.188V133.544H56.8306V132.032C56.4466 132.56 55.9606 132.962 55.3726 133.238C54.7846 133.514 54.1366 133.652 53.4286 133.652C52.5046 133.652 51.6766 133.448 50.9446 133.04C50.2126 132.632 49.6366 132.062 49.2166 131.33C48.8086 130.586 48.6046 129.734 48.6046 128.774C48.6046 127.814 48.8086 126.968 49.2166 126.236C49.6366 125.504 50.2126 124.934 50.9446 124.526C51.6766 124.118 52.5046 123.914 53.4286 123.914C54.1126 123.914 54.7426 124.046 55.3186 124.31C55.8946 124.562 56.3746 124.94 56.7586 125.444V120.188H58.4866ZM53.5726 132.14C54.1726 132.14 54.7186 132.002 55.2106 131.726C55.7026 131.438 56.0866 131.042 56.3626 130.538C56.6386 130.022 56.7766 129.434 56.7766 128.774C56.7766 128.114 56.6386 127.532 56.3626 127.028C56.0866 126.512 55.7026 126.116 55.2106 125.84C54.7186 125.564 54.1726 125.426 53.5726 125.426C52.9606 125.426 52.4086 125.564 51.9166 125.84C51.4366 126.116 51.0526 126.512 50.7646 127.028C50.4886 127.532 50.3506 128.114 50.3506 128.774C50.3506 129.434 50.4886 130.022 50.7646 130.538C51.0526 131.042 51.4366 131.438 51.9166 131.726C52.4086 132.002 52.9606 132.14 53.5726 132.14ZM71.7561 120.944C73.3881 120.944 74.6721 121.334 75.6081 122.114C76.5441 122.894 77.0121 123.968 77.0121 125.336C77.0121 126.704 76.5441 127.778 75.6081 128.558C74.6721 129.338 73.3881 129.728 71.7561 129.728H68.6421V133.544H66.8421V120.944H71.7561ZM71.7021 128.162C72.8421 128.162 73.7121 127.922 74.3121 127.442C74.9121 126.95 75.2121 126.248 75.2121 125.336C75.2121 124.424 74.9121 123.728 74.3121 123.248C73.7121 122.756 72.8421 122.51 71.7021 122.51H68.6421V128.162H71.7021ZM80.9024 125.606C81.2024 125.054 81.6464 124.634 82.2344 124.346C82.8224 124.058 83.5364 123.914 84.3764 123.914V125.588C84.2804 125.576 84.1484 125.57 83.9804 125.57C83.0444 125.57 82.3064 125.852 81.7664 126.416C81.2384 126.968 80.9744 127.76 80.9744 128.792V133.544H79.2464V124.004H80.9024V125.606ZM90.5043 133.652C89.5563 133.652 88.7043 133.442 87.9483 133.022C87.1923 132.602 86.5983 132.026 86.1663 131.294C85.7463 130.55 85.5363 129.71 85.5363 128.774C85.5363 127.838 85.7463 127.004 86.1663 126.272C86.5983 125.528 87.1923 124.952 87.9483 124.544C88.7043 124.124 89.5563 123.914 90.5043 123.914C91.4523 123.914 92.2983 124.124 93.0423 124.544C93.7983 124.952 94.3863 125.528 94.8063 126.272C95.2383 127.004 95.4543 127.838 95.4543 128.774C95.4543 129.71 95.2383 130.55 94.8063 131.294C94.3863 132.026 93.7983 132.602 93.0423 133.022C92.2983 133.442 91.4523 133.652 90.5043 133.652ZM90.5043 132.14C91.1163 132.14 91.6623 132.002 92.1423 131.726C92.6343 131.438 93.0183 131.042 93.2943 130.538C93.5703 130.022 93.7083 129.434 93.7083 128.774C93.7083 128.114 93.5703 127.532 93.2943 127.028C93.0183 126.512 92.6343 126.116 92.1423 125.84C91.6623 125.564 91.1163 125.426 90.5043 125.426C89.8923 125.426 89.3403 125.564 88.8483 125.84C88.3683 126.116 87.9843 126.512 87.6963 127.028C87.4203 127.532 87.2823 128.114 87.2823 128.774C87.2823 129.434 87.4203 130.022 87.6963 130.538C87.9843 131.042 88.3683 131.438 88.8483 131.726C89.3403 132.002 89.8923 132.14 90.5043 132.14ZM106.844 120.188V133.544H105.188V132.032C104.804 132.56 104.318 132.962 103.73 133.238C103.142 133.514 102.494 133.652 101.786 133.652C100.862 133.652 100.034 133.448 99.3021 133.04C98.5701 132.632 97.9941 132.062 97.5741 131.33C97.1661 130.586 96.9621 129.734 96.9621 128.774C96.9621 127.814 97.1661 126.968 97.5741 126.236C97.9941 125.504 98.5701 124.934 99.3021 124.526C100.034 124.118 100.862 123.914 101.786 123.914C102.47 123.914 103.1 124.046 103.676 124.31C104.252 124.562 104.732 124.94 105.116 125.444V120.188H106.844ZM101.93 132.14C102.53 132.14 103.076 132.002 103.568 131.726C104.06 131.438 104.444 131.042 104.72 130.538C104.996 130.022 105.134 129.434 105.134 128.774C105.134 128.114 104.996 127.532 104.72 127.028C104.444 126.512 104.06 126.116 103.568 125.84C103.076 125.564 102.53 125.426 101.93 125.426C101.318 125.426 100.766 125.564 100.274 125.84C99.7941 126.116 99.4101 126.512 99.1221 127.028C98.8461 127.532 98.7081 128.114 98.7081 128.774C98.7081 129.434 98.8461 130.022 99.1221 130.538C99.4101 131.042 99.7941 131.438 100.274 131.726C100.766 132.002 101.318 132.14 101.93 132.14ZM119.006 124.004V133.544H117.368V132.104C117.02 132.596 116.558 132.98 115.982 133.256C115.418 133.52 114.8 133.652 114.128 133.652C112.856 133.652 111.854 133.304 111.122 132.608C110.39 131.9 110.024 130.862 110.024 129.494V124.004H111.752V129.296C111.752 130.22 111.974 130.922 112.418 131.402C112.862 131.87 113.498 132.104 114.326 132.104C115.238 132.104 115.958 131.828 116.486 131.276C117.014 130.724 117.278 129.944 117.278 128.936V124.004H119.006ZM126.453 133.652C125.481 133.652 124.611 133.442 123.843 133.022C123.087 132.602 122.493 132.026 122.061 131.294C121.629 130.55 121.413 129.71 121.413 128.774C121.413 127.838 121.629 127.004 122.061 126.272C122.493 125.528 123.087 124.952 123.843 124.544C124.611 124.124 125.481 123.914 126.453 123.914C127.317 123.914 128.085 124.088 128.757 124.436C129.441 124.784 129.969 125.288 130.341 125.948L129.027 126.794C128.727 126.338 128.355 125.996 127.911 125.768C127.467 125.54 126.975 125.426 126.435 125.426C125.811 125.426 125.247 125.564 124.743 125.84C124.251 126.116 123.861 126.512 123.573 127.028C123.297 127.532 123.159 128.114 123.159 128.774C123.159 129.446 123.297 130.04 123.573 130.556C123.861 131.06 124.251 131.45 124.743 131.726C125.247 132.002 125.811 132.14 126.435 132.14C126.975 132.14 127.467 132.026 127.911 131.798C128.355 131.57 128.727 131.228 129.027 130.772L130.341 131.6C129.969 132.26 129.441 132.77 128.757 133.13C128.085 133.478 127.317 133.652 126.453 133.652ZM138.065 132.986C137.813 133.202 137.501 133.37 137.129 133.49C136.757 133.598 136.373 133.652 135.977 133.652C135.017 133.652 134.273 133.394 133.745 132.878C133.217 132.362 132.953 131.624 132.953 130.664V125.426H131.333V124.004H132.953V121.916H134.681V124.004H137.417V125.426H134.681V130.592C134.681 131.108 134.807 131.504 135.059 131.78C135.323 132.056 135.695 132.194 136.175 132.194C136.703 132.194 137.153 132.044 137.525 131.744L138.065 132.986Z" fill="#4F4F4F"/>
<g clip-path="url(#clip0_3669_2087)">
<path fill-rule="evenodd" clip-rule="evenodd" d="M77.8376 86.7914L77.7211 96.6725C77.7056 97.6677 78.0191 97.9915 79.0283 97.9797L81.0111 97.9562C81.9822 97.9448 82.3371 97.6549 82.3494 96.6178L82.4719 86.1574L92.9329 86.0353C93.9143 86.0221 94.2594 85.6959 94.2717 84.6965L94.2948 82.7142C94.307 81.6856 93.969 81.3957 92.9876 81.407L83.106 81.523L83.222 71.6424C83.2333 70.6609 82.9434 70.3229 81.9147 70.3351L79.9325 70.3582C78.9326 70.37 78.606 70.7146 78.5937 71.697L78.4716 82.157L68.0111 82.2796C66.9741 82.2919 66.679 82.6416 66.6728 83.6179L66.6488 85.6002C66.6328 86.6052 66.9566 86.9187 67.956 86.9074L77.8376 86.7914Z" fill="#4F4F4F"/>
</g>
</g>
<defs>
<clipPath id="clip0_3669_2087">
<rect width="32" height="32" fill="white" transform="translate(80 62) rotate(45)"/>
</clipPath>
</defs>
</svg>
