<svg width="32" height="32" viewBox="0 0 32 32" fill="none" xmlns="http://www.w3.org/2000/svg">
<circle opacity="0.4" cx="16" cy="16" r="16" fill="white"/>
<path d="M19.5 19C21.16 19 22.5 20.34 22.5 22C22.5 23.66 21.16 25 19.5 25C17.84 25 16.5 23.66 16.5 22C16.5 21.76 16.53 21.54 16.59 21.31L12.21 19.01C11.66 19.62 10.88 20 10 20C8.34 20 7 18.66 7 17C7 15.34 8.34 14 10 14C10.88 14 11.66 14.39 12.21 14.99L16.59 12.69C16.53 12.46 16.5 12.24 16.5 12C16.5 10.34 17.84 9 19.5 9C21.16 9 22.5 10.34 22.5 12C22.5 13.66 21.16 15 19.5 15C18.62 15 17.84 14.61 17.29 14.01L12.91 16.31C13.0311 16.762 13.0311 17.238 12.91 17.69L17.29 19.99C17.84 19.38 18.62 19 19.5 19Z" fill="white"/>
</svg>
