<svg width="309" height="184" viewBox="0 0 309 184" fill="none" xmlns="http://www.w3.org/2000/svg">
<g clip-path="url(#clip0_49_1517)">
<path fill-rule="evenodd" clip-rule="evenodd" d="M0 11.3049C0 5.06138 5.06137 0 11.3049 0H297.695C303.939 0 309 5.06137 309 11.3049V171.726C309 177.97 303.939 183.031 297.695 183.031H11.3049C5.06136 183.031 0 177.97 0 171.726V11.3049Z" fill="url(#paint0_linear_49_1517)"/>
<mask id="mask0_49_1517" style="mask-type:luminance" maskUnits="userSpaceOnUse" x="0" y="0" width="309" height="184">
<path fill-rule="evenodd" clip-rule="evenodd" d="M0 11.3049C0 5.06138 5.06137 0 11.3049 0H297.695C303.939 0 309 5.06137 309 11.3049V171.726C309 177.97 303.939 183.031 297.695 183.031H11.3049C5.06136 183.031 0 177.97 0 171.726V11.3049Z" fill="white"/>
</mask>
<g mask="url(#mask0_49_1517)">
<g opacity="0.1">
<path fill-rule="evenodd" clip-rule="evenodd" d="M147.609 33.8067H181.739V-0.323242H147.609V33.8067Z" fill="#E6E6E6"/>
<path fill-rule="evenodd" clip-rule="evenodd" d="M215.87 33.8067H250V-0.323242H215.87V33.8067Z" fill="#4D4D4D"/>
<path fill-rule="evenodd" clip-rule="evenodd" d="M284.129 33.8067H318.259V-0.323242H284.129V33.8067Z" fill="#1A1A1A"/>
<path fill-rule="evenodd" clip-rule="evenodd" d="M79.3496 33.8067H113.48V-0.323242H79.3496V33.8067Z" fill="#999999"/>
<path fill-rule="evenodd" clip-rule="evenodd" d="M250 136.196H284.129V102.066H250V136.196Z" fill="#B3B3B3"/>
<path fill-rule="evenodd" clip-rule="evenodd" d="M250 170.326H284.129V136.196H250V170.326Z" fill="#E6E6E6"/>
<path fill-rule="evenodd" clip-rule="evenodd" d="M284.129 136.196H318.259V102.066H284.129V136.196Z" fill="#E6E6E6"/>
<path fill-rule="evenodd" clip-rule="evenodd" d="M284.129 204.456H318.259V170.326H284.129V204.456Z" fill="#999999"/>
<path fill-rule="evenodd" clip-rule="evenodd" d="M215.87 67.9366H250V33.8066H215.87V67.9366Z" fill="#E6E6E6"/>
<path fill-rule="evenodd" clip-rule="evenodd" d="M147.609 67.9366H181.739V33.8066H147.609V67.9366Z" fill="#999999"/>
<path fill-rule="evenodd" clip-rule="evenodd" d="M181.74 67.9366H215.87V33.8066H181.74V67.9366Z" fill="#808080"/>
<path fill-rule="evenodd" clip-rule="evenodd" d="M284.129 67.9366H318.259V33.8066H284.129V67.9366Z" fill="#B3B3B3"/>
<path fill-rule="evenodd" clip-rule="evenodd" d="M284.129 102.066H318.259V67.9365H284.129V102.066Z" fill="#999999"/>
<path fill-rule="evenodd" clip-rule="evenodd" d="M250 102.066H284.129V67.9365H250V102.066Z" fill="#808080"/>
<path fill-rule="evenodd" clip-rule="evenodd" d="M250 33.8067H284.129V-0.323242H250V33.8067Z" fill="#808080"/>
<path fill-rule="evenodd" clip-rule="evenodd" d="M250 67.9366H284.129V33.8066H250V67.9366Z" fill="#4D4D4D"/>
<path fill-rule="evenodd" clip-rule="evenodd" d="M181.74 33.8067H215.87V-0.323242H181.74V33.8067Z" fill="#DEDEDE"/>
<path fill-rule="evenodd" clip-rule="evenodd" d="M215.87 102.066H250V67.9365H215.87V102.066Z" fill="#B3B3B3"/>
<path fill-rule="evenodd" clip-rule="evenodd" d="M147.609 102.066H181.739V67.9365H147.609V102.066Z" fill="#CCCCCC"/>
<path fill-rule="evenodd" clip-rule="evenodd" d="M113.479 67.9366H147.609V33.8066H113.479V67.9366Z" fill="#CCCCCC"/>
<path fill-rule="evenodd" clip-rule="evenodd" d="M215.87 136.196H250V102.066H215.87V136.196Z" fill="#CCCCCC"/>
<path fill-rule="evenodd" clip-rule="evenodd" d="M284.129 -0.323242H318.259L284.129 33.8067V-0.323242Z" fill="#4D4D4D"/>
<path fill-rule="evenodd" clip-rule="evenodd" d="M215.87 67.9366L250 33.8066H215.87V67.9366Z" fill="#B3B3B3"/>
<path fill-rule="evenodd" clip-rule="evenodd" d="M250 136.196V170.326H284.129L250 136.196Z" fill="#CCCCCC"/>
<path fill-rule="evenodd" clip-rule="evenodd" d="M250 33.8067V-0.323242H284.129L250 33.8067Z" fill="black"/>
<path fill-rule="evenodd" clip-rule="evenodd" d="M250 67.9365V102.066H284.129L250 67.9365Z" fill="#DEDEDE"/>
<path fill-rule="evenodd" clip-rule="evenodd" d="M181.739 67.9366V33.8066H147.609L181.739 67.9366Z" fill="#DEDEDE"/>
<path fill-rule="evenodd" clip-rule="evenodd" d="M79.3496 -0.323242V33.8067H113.48L79.3496 -0.323242Z" fill="#CCCCCC"/>
</g>
<path d="M25.0948 144.602V145.429H18.6994V136.385H24.901V137.212H19.6555V140.429H24.3325V141.243H19.6555V144.602H25.0948ZM31.2872 145.429L29.1296 142.586L26.9591 145.429H25.9255L28.6128 141.94L26.0547 138.633H27.0883L29.1296 141.294L31.1709 138.633H32.1787L29.6205 141.94L32.3337 145.429H31.2872ZM37.3619 138.581C37.9992 138.581 38.5763 138.728 39.0931 139.02C39.6099 139.305 40.0147 139.71 40.3076 140.235C40.6004 140.76 40.7469 141.359 40.7469 142.031C40.7469 142.711 40.6004 143.314 40.3076 143.84C40.0147 144.365 39.6099 144.774 39.0931 145.067C38.5849 145.351 38.0079 145.493 37.3619 145.493C36.8106 145.493 36.311 145.381 35.8632 145.157C35.4239 144.925 35.0621 144.589 34.7779 144.15V147.935H33.8606V138.633H34.7391V139.977C35.0148 139.529 35.3765 139.184 35.8244 138.943C36.2809 138.702 36.7934 138.581 37.3619 138.581ZM37.2973 144.679C37.771 144.679 38.2017 144.572 38.5893 144.356C38.9768 144.132 39.2783 143.818 39.4936 143.413C39.7176 143.008 39.8296 142.548 39.8296 142.031C39.8296 141.514 39.7176 141.057 39.4936 140.661C39.2783 140.256 38.9768 139.942 38.5893 139.718C38.2017 139.494 37.771 139.382 37.2973 139.382C36.8149 139.382 36.38 139.494 35.9924 139.718C35.6134 139.942 35.3119 140.256 35.088 140.661C34.8726 141.057 34.765 141.514 34.765 142.031C34.765 142.548 34.8726 143.008 35.088 143.413C35.3119 143.818 35.6134 144.132 35.9924 144.356C36.38 144.572 36.8149 144.679 37.2973 144.679ZM42.518 145.493C42.3285 145.493 42.1649 145.424 42.027 145.287C41.8978 145.149 41.8332 144.981 41.8332 144.783C41.8332 144.585 41.8978 144.421 42.027 144.292C42.1649 144.154 42.3285 144.085 42.518 144.085C42.7075 144.085 42.8711 144.154 43.009 144.292C43.1468 144.421 43.2157 144.585 43.2157 144.783C43.2157 144.981 43.1468 145.149 43.009 145.287C42.8711 145.424 42.7075 145.493 42.518 145.493ZM48.7406 136.385H52.4228C53.3789 136.385 54.223 136.579 54.9551 136.966C55.6872 137.345 56.2557 137.879 56.6605 138.568C57.0653 139.249 57.2677 140.028 57.2677 140.907C57.2677 141.785 57.0653 142.569 56.6605 143.258C56.2557 143.939 55.6872 144.473 54.9551 144.86C54.223 145.239 53.3789 145.429 52.4228 145.429H48.7406V136.385ZM52.3711 144.602C53.1635 144.602 53.8569 144.447 54.4512 144.137C55.0455 143.818 55.5063 143.383 55.8336 142.832C56.1609 142.272 56.3246 141.63 56.3246 140.907C56.3246 140.183 56.1609 139.546 55.8336 138.995C55.5063 138.435 55.0455 138 54.4512 137.69C53.8569 137.371 53.1635 137.212 52.3711 137.212H49.6967V144.602H52.3711ZM61.5981 138.581C62.4853 138.581 63.1657 138.805 63.6394 139.253C64.1132 139.692 64.35 140.347 64.35 141.217V145.429H63.4715V144.369C63.2648 144.722 62.959 144.998 62.5542 145.196C62.158 145.394 61.6842 145.493 61.133 145.493C60.375 145.493 59.7721 145.312 59.3242 144.951C58.8763 144.589 58.6524 144.111 58.6524 143.517C58.6524 142.939 58.8591 142.474 59.2725 142.121C59.6946 141.768 60.3621 141.592 61.2751 141.592H63.4327V141.178C63.4327 140.592 63.2691 140.149 62.9418 139.847C62.6145 139.537 62.1364 139.382 61.5077 139.382C61.077 139.382 60.6636 139.455 60.2674 139.602C59.8712 139.74 59.5309 139.933 59.2467 140.183L58.8333 139.498C59.1778 139.206 59.5912 138.982 60.0736 138.827C60.5559 138.663 61.0641 138.581 61.5981 138.581ZM61.2751 144.77C61.7919 144.77 62.2355 144.654 62.6059 144.421C62.9762 144.18 63.2519 143.835 63.4327 143.387V142.276H61.301C60.1382 142.276 59.5568 142.681 59.5568 143.491C59.5568 143.887 59.7075 144.201 60.009 144.434C60.3104 144.658 60.7325 144.77 61.2751 144.77ZM70.4204 145.015C70.2481 145.17 70.0328 145.291 69.7744 145.377C69.5246 145.455 69.2619 145.493 68.9863 145.493C68.3489 145.493 67.8579 145.321 67.5134 144.977C67.1689 144.632 66.9966 144.145 66.9966 143.517V139.408H65.7821V138.633H66.9966V137.147H67.9139V138.633H69.9811V139.408H67.9139V143.465C67.9139 143.87 68.013 144.18 68.2111 144.395C68.4178 144.602 68.7106 144.705 69.0896 144.705C69.2791 144.705 69.46 144.675 69.6322 144.615C69.8131 144.554 69.9682 144.468 70.0974 144.356L70.4204 145.015ZM77.7678 142.315H72.0831C72.1348 143.021 72.4061 143.594 72.897 144.033C73.388 144.464 74.0081 144.679 74.7575 144.679C75.1795 144.679 75.5671 144.606 75.9203 144.46C76.2734 144.305 76.5792 144.081 76.8376 143.788L77.3544 144.382C77.0529 144.744 76.6739 145.02 76.2174 145.209C75.7695 145.399 75.2743 145.493 74.7317 145.493C74.034 145.493 73.4138 145.347 72.8712 145.054C72.3372 144.753 71.9194 144.339 71.618 143.814C71.3165 143.288 71.1658 142.694 71.1658 142.031C71.1658 141.368 71.3079 140.773 71.5921 140.248C71.885 139.722 72.2812 139.313 72.7808 139.02C73.2889 138.728 73.8574 138.581 74.4862 138.581C75.1149 138.581 75.6791 138.728 76.1787 139.02C76.6782 139.313 77.0701 139.722 77.3544 140.248C77.6386 140.765 77.7807 141.359 77.7807 142.031L77.7678 142.315ZM74.4862 139.369C73.8316 139.369 73.2803 139.58 72.8324 140.002C72.3932 140.416 72.1434 140.958 72.0831 141.63H76.9022C76.8419 140.958 76.5878 140.416 76.1399 140.002C75.7006 139.58 75.1494 139.369 74.4862 139.369Z" fill="#B7B7B7"/>
<path d="M268.966 145.506C268.07 145.506 267.26 145.308 266.537 144.912C265.822 144.516 265.258 143.969 264.844 143.271C264.44 142.565 264.237 141.777 264.237 140.907C264.237 140.037 264.44 139.253 264.844 138.555C265.258 137.849 265.826 137.298 266.55 136.902C267.273 136.505 268.083 136.307 268.979 136.307C269.651 136.307 270.271 136.419 270.839 136.643C271.408 136.867 271.89 137.194 272.286 137.625L271.679 138.232C270.973 137.517 270.081 137.16 269.005 137.16C268.29 137.16 267.639 137.324 267.054 137.651C266.468 137.978 266.007 138.426 265.671 138.995C265.344 139.563 265.18 140.2 265.18 140.907C265.18 141.613 265.344 142.25 265.671 142.819C266.007 143.387 266.468 143.835 267.054 144.163C267.639 144.49 268.29 144.654 269.005 144.654C270.09 144.654 270.981 144.292 271.679 143.568L272.286 144.175C271.89 144.606 271.403 144.938 270.826 145.17C270.258 145.394 269.638 145.506 268.966 145.506ZM281.743 136.385L277.738 145.429H276.794L272.789 136.385H273.823L277.285 144.24L280.774 136.385H281.743ZM286.895 145.506C285.999 145.506 285.189 145.308 284.466 144.912C283.751 144.516 283.187 143.969 282.773 143.271C282.368 142.565 282.166 141.777 282.166 140.907C282.166 140.037 282.368 139.253 282.773 138.555C283.187 137.849 283.755 137.298 284.479 136.902C285.202 136.505 286.012 136.307 286.908 136.307C287.579 136.307 288.2 136.419 288.768 136.643C289.336 136.867 289.819 137.194 290.215 137.625L289.608 138.232C288.902 137.517 288.01 137.16 286.933 137.16C286.218 137.16 285.568 137.324 284.982 137.651C284.397 137.978 283.936 138.426 283.6 138.995C283.273 139.563 283.109 140.2 283.109 140.907C283.109 141.613 283.273 142.25 283.6 142.819C283.936 143.387 284.397 143.835 284.982 144.163C285.568 144.49 286.218 144.654 286.933 144.654C288.019 144.654 288.91 144.292 289.608 143.568L290.215 144.175C289.819 144.606 289.332 144.938 288.755 145.17C288.187 145.394 287.566 145.506 286.895 145.506Z" fill="#B7B7B7"/>
<g filter="url(#filter0_d_49_1517)">
<path d="M20.9949 37.7894H17.2869V36.8248H25.8183V37.7894H22.1103V47.376H20.9949V37.7894ZM28.193 41C28.4442 40.4674 28.816 40.0655 29.3084 39.7942C29.8109 39.5229 30.4289 39.3872 31.1624 39.3872V40.4272L30.9062 40.4122C30.0721 40.4122 29.419 40.6684 28.9467 41.1809C28.4744 41.6934 28.2382 42.4119 28.2382 43.3364V47.376H27.168V39.4475H28.193V41ZM35.8589 39.3872C36.8939 39.3872 37.6878 39.6485 38.2404 40.171C38.7931 40.6835 39.0695 41.4472 39.0695 42.4621V47.376H38.0445V46.14C37.8033 46.552 37.4466 46.8735 36.9743 47.1047C36.5121 47.3358 35.9594 47.4513 35.3163 47.4513C34.432 47.4513 33.7285 47.2403 33.206 46.8183C32.6835 46.3962 32.4222 45.8385 32.4222 45.1451C32.4222 44.4719 32.6634 43.9292 33.1457 43.5172C33.6381 43.1052 34.4169 42.8992 35.4821 42.8992H37.9993V42.4169C37.9993 41.7336 37.8083 41.2161 37.4265 40.8644C37.0446 40.5026 36.4869 40.3217 35.7534 40.3217C35.2509 40.3217 34.7686 40.4071 34.3063 40.578C33.8441 40.7388 33.4472 40.9649 33.1156 41.2563L32.6332 40.4574C33.0352 40.1157 33.5175 39.8545 34.0803 39.6736C34.643 39.4827 35.2359 39.3872 35.8589 39.3872ZM35.4821 46.6072C36.085 46.6072 36.6025 46.4716 37.0346 46.2003C37.4667 45.9189 37.7883 45.517 37.9993 44.9944V43.6981H35.5122C34.1556 43.6981 33.4773 44.1704 33.4773 45.115C33.4773 45.5772 33.6532 45.944 34.0049 46.2153C34.3566 46.4766 34.849 46.6072 35.4821 46.6072ZM49.2408 36.1917V47.376H48.2158V45.8084C47.8943 46.341 47.4672 46.7479 46.9346 47.0293C46.4121 47.3107 45.8192 47.4513 45.156 47.4513C44.4124 47.4513 43.7391 47.2805 43.1362 46.9389C42.5332 46.5972 42.0609 46.1199 41.7193 45.5069C41.3776 44.8939 41.2068 44.1955 41.2068 43.4117C41.2068 42.6279 41.3776 41.9295 41.7193 41.3166C42.0609 40.7036 42.5332 40.2313 43.1362 39.8997C43.7391 39.558 44.4124 39.3872 45.156 39.3872C45.7991 39.3872 46.3769 39.5229 46.8894 39.7942C47.4119 40.0554 47.839 40.4423 48.1706 40.9548V36.1917H49.2408ZM45.2464 46.5017C45.7991 46.5017 46.2965 46.3761 46.7387 46.1249C47.1908 45.8636 47.5426 45.4969 47.7938 45.0246C48.055 44.5523 48.1857 44.0147 48.1857 43.4117C48.1857 42.8088 48.055 42.2712 47.7938 41.7989C47.5426 41.3266 47.1908 40.9649 46.7387 40.7136C46.2965 40.4524 45.7991 40.3217 45.2464 40.3217C44.6837 40.3217 44.1762 40.4524 43.724 40.7136C43.2819 40.9649 42.9302 41.3266 42.6689 41.7989C42.4177 42.2712 42.2921 42.8088 42.2921 43.4117C42.2921 44.0147 42.4177 44.5523 42.6689 45.0246C42.9302 45.4969 43.2819 45.8636 43.724 46.1249C44.1762 46.3761 44.6837 46.5017 45.2464 46.5017ZM52.2213 36.1917H53.2915V47.376H52.2213V36.1917ZM62.9316 39.4475L58.9674 48.3256C58.6458 49.0692 58.274 49.5968 57.8519 49.9083C57.4299 50.2198 56.9224 50.3755 56.3295 50.3755C55.9477 50.3755 55.591 50.3152 55.2594 50.1947C54.9277 50.0741 54.6414 49.8932 54.4002 49.652L54.8976 48.8531C55.2995 49.2551 55.7819 49.4561 56.3446 49.4561C56.7064 49.4561 57.0129 49.3556 57.2641 49.1546C57.5254 48.9536 57.7665 48.612 57.9876 48.1296L58.3343 47.3609L54.7921 39.4475H55.9075L58.892 46.1852L61.8765 39.4475H62.9316ZM70.6598 37.7894H66.9518V36.8248H75.4832V37.7894H71.7752V47.376H70.6598V37.7894ZM83.1182 43.7433H76.486C76.5463 44.5673 76.8629 45.2356 77.4356 45.7481C78.0084 46.2505 78.7319 46.5017 79.6062 46.5017C80.0986 46.5017 80.5508 46.4163 80.9628 46.2455C81.3748 46.0646 81.7315 45.8033 82.033 45.4617L82.6359 46.155C82.2842 46.5771 81.842 46.8987 81.3094 47.1197C80.7869 47.3408 80.2091 47.4513 79.576 47.4513C78.7621 47.4513 78.0386 47.2805 77.4055 46.9389C76.7825 46.5871 76.2951 46.1048 75.9434 45.4918C75.5917 44.8789 75.4158 44.1855 75.4158 43.4117C75.4158 42.638 75.5816 41.9446 75.9132 41.3316C76.2549 40.7187 76.7171 40.2413 77.3 39.8997C77.8929 39.558 78.5561 39.3872 79.2896 39.3872C80.0232 39.3872 80.6814 39.558 81.2642 39.8997C81.8471 40.2413 82.3043 40.7187 82.6359 41.3316C82.9675 41.9346 83.1333 42.6279 83.1333 43.4117L83.1182 43.7433ZM79.2896 40.3067C78.5259 40.3067 77.8828 40.5529 77.3603 41.0452C76.8478 41.5276 76.5564 42.1607 76.486 42.9445H82.1083C82.038 42.1607 81.7415 41.5276 81.219 41.0452C80.7065 40.5529 80.0634 40.3067 79.2896 40.3067ZM87.8643 39.3872C88.8993 39.3872 89.6931 39.6485 90.2458 40.171C90.7985 40.6835 91.0749 41.4472 91.0749 42.4621V47.376H90.0499V46.14C89.8087 46.552 89.452 46.8735 88.9797 47.1047C88.5174 47.3358 87.9648 47.4513 87.3216 47.4513C86.4373 47.4513 85.7339 47.2403 85.2114 46.8183C84.6889 46.3962 84.4276 45.8385 84.4276 45.1451C84.4276 44.4719 84.6688 43.9292 85.1511 43.5172C85.6435 43.1052 86.4223 42.8992 87.4874 42.8992H90.0047V42.4169C90.0047 41.7336 89.8137 41.2161 89.4319 40.8644C89.05 40.5026 88.4923 40.3217 87.7588 40.3217C87.2563 40.3217 86.774 40.4071 86.3117 40.578C85.8495 40.7388 85.4526 40.9649 85.121 41.2563L84.6386 40.4574C85.0406 40.1157 85.5229 39.8545 86.0856 39.6736C86.6484 39.4827 87.2412 39.3872 87.8643 39.3872ZM87.4874 46.6072C88.0904 46.6072 88.6079 46.4716 89.04 46.2003C89.4721 45.9189 89.7936 45.517 90.0047 44.9944V43.6981H87.5176C86.161 43.6981 85.4827 44.1704 85.4827 45.115C85.4827 45.5772 85.6586 45.944 86.0103 46.2153C86.362 46.4766 86.8544 46.6072 87.4874 46.6072ZM103.87 39.3872C104.864 39.3872 105.643 39.6736 106.206 40.2464C106.779 40.8191 107.065 41.6632 107.065 42.7787V47.376H105.995V42.8842C105.995 42.0602 105.794 41.4321 105.392 41C105 40.5679 104.442 40.3519 103.719 40.3519C102.895 40.3519 102.247 40.6081 101.774 41.1206C101.302 41.623 101.066 42.3214 101.066 43.2158V47.376H99.9958V42.8842C99.9958 42.0602 99.7948 41.4321 99.3929 41C99.001 40.5679 98.4383 40.3519 97.7047 40.3519C96.8907 40.3519 96.2426 40.6081 95.7603 41.1206C95.288 41.623 95.0518 42.3214 95.0518 43.2158V47.376H93.9816V39.4475H95.0066V40.8945C95.288 40.4122 95.6799 40.0404 96.1823 39.7791C96.6847 39.5178 97.2626 39.3872 97.9157 39.3872C98.5789 39.3872 99.1517 39.5279 99.6341 39.8092C100.126 40.0906 100.493 40.5076 100.734 41.0603C101.026 40.5378 101.443 40.1308 101.985 39.8394C102.538 39.5379 103.166 39.3872 103.87 39.3872Z" fill="white"/>
</g>
<path d="M26.2575 21.1827V30.2266H25.3144V26.0534H19.6555V30.2266H18.6994V21.1827H19.6555V25.2137H25.3144V21.1827H26.2575ZM31.7934 30.2912C31.1388 30.2912 30.5488 30.1447 30.0234 29.8519C29.498 29.5504 29.0845 29.137 28.7831 28.6116C28.4816 28.0862 28.3309 27.4919 28.3309 26.8286C28.3309 26.1654 28.4816 25.5711 28.7831 25.0457C29.0845 24.5203 29.498 24.1112 30.0234 23.8183C30.5488 23.5255 31.1388 23.379 31.7934 23.379C32.448 23.379 33.038 23.5255 33.5634 23.8183C34.0888 24.1112 34.498 24.5203 34.7908 25.0457C35.0923 25.5711 35.243 26.1654 35.243 26.8286C35.243 27.4919 35.0923 28.0862 34.7908 28.6116C34.498 29.137 34.0888 29.5504 33.5634 29.8519C33.038 30.1447 32.448 30.2912 31.7934 30.2912ZM31.7934 29.4772C32.2757 29.4772 32.7064 29.3695 33.0854 29.1542C33.473 28.9303 33.7744 28.6159 33.9898 28.2111C34.2051 27.8062 34.3128 27.3454 34.3128 26.8286C34.3128 26.3118 34.2051 25.851 33.9898 25.4462C33.7744 25.0414 33.473 24.7313 33.0854 24.516C32.7064 24.292 32.2757 24.1801 31.7934 24.1801C31.3111 24.1801 30.8761 24.292 30.4885 24.516C30.1095 24.7313 29.8081 25.0414 29.5841 25.4462C29.3688 25.851 29.2611 26.3118 29.2611 26.8286C29.2611 27.3454 29.3688 27.8062 29.5841 28.2111C29.8081 28.6159 30.1095 28.9303 30.4885 29.1542C30.8761 29.3695 31.3111 29.4772 31.7934 29.4772ZM37.1158 20.64H38.0331V30.2266H37.1158V20.64ZM46.787 20.64V30.2266H45.9085V28.8829C45.6328 29.3394 45.2668 29.6882 44.8103 29.9294C44.3624 30.1706 43.8542 30.2912 43.2857 30.2912C42.6483 30.2912 42.0713 30.1447 41.5545 29.8519C41.0377 29.559 40.6328 29.1499 40.34 28.6245C40.0471 28.0991 39.9007 27.5005 39.9007 26.8286C39.9007 26.1568 40.0471 25.5582 40.34 25.0328C40.6328 24.5074 41.0377 24.1025 41.5545 23.8183C42.0713 23.5255 42.6483 23.379 43.2857 23.379C43.837 23.379 44.3322 23.4953 44.7715 23.7279C45.2194 23.9518 45.5855 24.2834 45.8697 24.7227V20.64H46.787ZM43.3632 29.4772C43.837 29.4772 44.2633 29.3695 44.6423 29.1542C45.0299 28.9303 45.3314 28.6159 45.5467 28.2111C45.7706 27.8062 45.8826 27.3454 45.8826 26.8286C45.8826 26.3118 45.7706 25.851 45.5467 25.4462C45.3314 25.0414 45.0299 24.7313 44.6423 24.516C44.2633 24.292 43.837 24.1801 43.3632 24.1801C42.8809 24.1801 42.4459 24.292 42.0583 24.516C41.6794 24.7313 41.3779 25.0414 41.1539 25.4462C40.9386 25.851 40.8309 26.3118 40.8309 26.8286C40.8309 27.3454 40.9386 27.8062 41.1539 28.2111C41.3779 28.6159 41.6794 28.9303 42.0583 29.1542C42.4459 29.3695 42.8809 29.4772 43.3632 29.4772ZM55.259 27.1129H49.5743C49.6259 27.8192 49.8973 28.3919 50.3882 28.8312C50.8792 29.2619 51.4993 29.4772 52.2487 29.4772C52.6707 29.4772 53.0583 29.404 53.4115 29.2576C53.7646 29.1025 54.0704 28.8786 54.3288 28.5857L54.8456 29.1801C54.5441 29.5418 54.1651 29.8174 53.7086 30.0069C53.2607 30.1964 52.7655 30.2912 52.2228 30.2912C51.5252 30.2912 50.905 30.1447 50.3624 29.8519C49.8284 29.5504 49.4106 29.137 49.1091 28.6116C48.8077 28.0862 48.657 27.4919 48.657 26.8286C48.657 26.1654 48.7991 25.5711 49.0833 25.0457C49.3762 24.5203 49.7724 24.1112 50.2719 23.8183C50.7801 23.5255 51.3486 23.379 51.9774 23.379C52.6061 23.379 53.1703 23.5255 53.6699 23.8183C54.1694 24.1112 54.5613 24.5203 54.8456 25.0457C55.1298 25.5625 55.2719 26.1568 55.2719 26.8286L55.259 27.1129ZM51.9774 24.1671C51.3227 24.1671 50.7715 24.3782 50.3236 24.8002C49.8843 25.2137 49.6346 25.7563 49.5743 26.4281H54.3934C54.3331 25.7563 54.079 25.2137 53.6311 24.8002C53.1918 24.3782 52.6406 24.1671 51.9774 24.1671ZM58.0176 24.7615C58.2329 24.305 58.5516 23.9604 58.9737 23.7279C59.4043 23.4953 59.934 23.379 60.5628 23.379V24.2705L60.3432 24.2576C59.6283 24.2576 59.0684 24.4772 58.6636 24.9165C58.2588 25.3558 58.0564 25.9716 58.0564 26.764V30.2266H57.139V23.4307H58.0176V24.7615ZM69.1685 23.379C70.0213 23.379 70.6974 23.6288 71.197 24.1284C71.7051 24.6193 71.9592 25.3385 71.9592 26.286V30.2266H71.0419V26.3764C71.0419 25.6702 70.8653 25.1318 70.5122 24.7615C70.1591 24.3911 69.6552 24.2059 69.0006 24.2059C68.2685 24.2059 67.6871 24.4255 67.2564 24.8648C66.8344 25.2955 66.6233 25.8941 66.6233 26.6607V30.2266H65.706V23.4307H66.5846V24.6839C66.8344 24.2705 67.1789 23.9518 67.6182 23.7279C68.066 23.4953 68.5828 23.379 69.1685 23.379ZM76.8269 23.379C77.7141 23.379 78.3945 23.603 78.8682 24.0509C79.342 24.4901 79.5788 25.1448 79.5788 26.0147V30.2266H78.7003V29.1671C78.4936 29.5203 78.1878 29.7959 77.783 29.994C77.3868 30.1921 76.913 30.2912 76.3618 30.2912C75.6038 30.2912 75.0009 30.1103 74.553 29.7485C74.1051 29.3868 73.8812 28.9087 73.8812 28.3144C73.8812 27.7373 74.0879 27.2722 74.5013 26.9191C74.9234 26.5659 75.5909 26.3894 76.5039 26.3894H78.6615V25.9759C78.6615 25.3902 78.4979 24.9466 78.1706 24.6452C77.8433 24.3351 77.3652 24.1801 76.7365 24.1801C76.3058 24.1801 75.8924 24.2533 75.4961 24.3997C75.0999 24.5375 74.7597 24.7313 74.4755 24.9811L74.062 24.2963C74.4066 24.0035 74.82 23.7796 75.3023 23.6245C75.7847 23.4609 76.2929 23.379 76.8269 23.379ZM76.5039 29.5676C77.0207 29.5676 77.4643 29.4514 77.8346 29.2188C78.205 28.9776 78.4806 28.6331 78.6615 28.1852V27.0741H76.5297C75.3669 27.0741 74.7856 27.4789 74.7856 28.2886C74.7856 28.6848 74.9363 28.9992 75.2377 29.2317C75.5392 29.4557 75.9613 29.5676 76.5039 29.5676ZM90.5458 23.379C91.3985 23.379 92.066 23.6245 92.5483 24.1155C93.0393 24.6064 93.2848 25.3299 93.2848 26.286V30.2266H92.3675V26.3764C92.3675 25.6702 92.1952 25.1318 91.8507 24.7615C91.5148 24.3911 91.0367 24.2059 90.4166 24.2059C89.7103 24.2059 89.1547 24.4255 88.7499 24.8648C88.3451 25.2955 88.1427 25.8941 88.1427 26.6607V30.2266H87.2254V26.3764C87.2254 25.6702 87.0531 25.1318 86.7086 24.7615C86.3726 24.3911 85.8903 24.2059 85.2615 24.2059C84.5639 24.2059 84.0083 24.4255 83.5949 24.8648C83.1901 25.2955 82.9876 25.8941 82.9876 26.6607V30.2266H82.0703V23.4307H82.9489V24.671C83.1901 24.2576 83.526 23.9389 83.9566 23.715C84.3873 23.491 84.8826 23.379 85.4424 23.379C86.0109 23.379 86.5018 23.4996 86.9153 23.7408C87.3373 23.982 87.6517 24.3394 87.8584 24.8131C88.1082 24.3653 88.4657 24.0164 88.9308 23.7666C89.4045 23.5082 89.9428 23.379 90.5458 23.379ZM101.715 27.1129H96.0302C96.0819 27.8192 96.3532 28.3919 96.8442 28.8312C97.3352 29.2619 97.9553 29.4772 98.7047 29.4772C99.1267 29.4772 99.5143 29.404 99.8674 29.2576C100.221 29.1025 100.526 28.8786 100.785 28.5857L101.302 29.1801C101 29.5418 100.621 29.8174 100.165 30.0069C99.7167 30.1964 99.2215 30.2912 98.6788 30.2912C97.9811 30.2912 97.361 30.1447 96.8184 29.8519C96.2843 29.5504 95.8666 29.137 95.5651 28.6116C95.2637 28.0862 95.1129 27.4919 95.1129 26.8286C95.1129 26.1654 95.2551 25.5711 95.5393 25.0457C95.8321 24.5203 96.2284 24.1112 96.7279 23.8183C97.2361 23.5255 97.8046 23.379 98.4333 23.379C99.0621 23.379 99.6263 23.5255 100.126 23.8183C100.625 24.1112 101.017 24.5203 101.302 25.0457C101.586 25.5625 101.728 26.1568 101.728 26.8286L101.715 27.1129ZM98.4333 24.1671C97.7787 24.1671 97.2275 24.3782 96.7796 24.8002C96.3403 25.2137 96.0905 25.7563 96.0302 26.4281H100.849C100.789 25.7563 100.535 25.2137 100.087 24.8002C99.6478 24.3782 99.0966 24.1671 98.4333 24.1671Z" fill="#B7B7B7"/>
<path d="M22.6271 81.9838C21.7313 81.9838 20.9216 81.7857 20.1981 81.3895C19.4832 80.9932 18.9191 80.4463 18.5056 79.7486C18.1008 79.0423 17.8984 78.2542 17.8984 77.3843C17.8984 76.5144 18.1008 75.7306 18.5056 75.0329C18.9191 74.3266 19.4875 73.7754 20.2111 73.3791C20.9346 72.9829 21.7442 72.7848 22.64 72.7848C23.3118 72.7848 23.932 72.8968 24.5004 73.1207C25.0689 73.3447 25.5513 73.672 25.9475 74.1027L25.3402 74.7099C24.6339 73.995 23.7425 73.6375 22.6658 73.6375C21.9509 73.6375 21.3006 73.8012 20.7149 74.1285C20.1292 74.4558 19.6684 74.9037 19.3325 75.4722C19.0052 76.0406 18.8415 76.678 18.8415 77.3843C18.8415 78.0906 19.0052 78.728 19.3325 79.2964C19.6684 79.8649 20.1292 80.3128 20.7149 80.6401C21.3006 80.9674 21.9509 81.1311 22.6658 81.1311C23.7511 81.1311 24.6426 80.7693 25.3402 80.0458L25.9475 80.653C25.5513 81.0837 25.0646 81.4153 24.4875 81.6479C23.9191 81.8718 23.2989 81.9838 22.6271 81.9838ZM30.0681 75.0587C30.9553 75.0587 31.6357 75.2827 32.1094 75.7306C32.5832 76.1698 32.82 76.8244 32.82 77.6944V81.9062H31.9415V80.8468C31.7348 81.2 31.429 81.4756 31.0242 81.6737C30.628 81.8718 30.1542 81.9708 29.603 81.9708C28.845 81.9708 28.2421 81.79 27.7942 81.4282C27.3463 81.0665 27.1224 80.5884 27.1224 79.9941C27.1224 79.417 27.3291 78.9519 27.7425 78.5988C28.1646 78.2456 28.8321 78.0691 29.7451 78.0691H31.9027V77.6556C31.9027 77.0699 31.7391 76.6263 31.4118 76.3249C31.0845 76.0148 30.6064 75.8598 29.9777 75.8598C29.547 75.8598 29.1336 75.933 28.7374 76.0794C28.3411 76.2172 28.0009 76.411 27.7167 76.6608L27.3032 75.976C27.6478 75.6832 28.0612 75.4592 28.5436 75.3042C29.0259 75.1405 29.5341 75.0587 30.0681 75.0587ZM29.7451 81.2473C30.2619 81.2473 30.7055 81.1311 31.0758 80.8985C31.4462 80.6573 31.7218 80.3128 31.9027 79.8649V78.7538H29.7709C28.6082 78.7538 28.0268 79.1586 28.0268 79.9683C28.0268 80.3645 28.1775 80.6789 28.479 80.9114C28.7804 81.1354 29.2025 81.2473 29.7451 81.2473ZM36.1901 76.4411C36.4054 75.9846 36.7241 75.6401 37.1462 75.4076C37.5768 75.175 38.1065 75.0587 38.7353 75.0587V75.9502L38.5157 75.9373C37.8008 75.9373 37.2409 76.1569 36.8361 76.5962C36.4313 77.0355 36.2289 77.6513 36.2289 78.4437V81.9062H35.3115V75.1104H36.1901V76.4411ZM46.5347 72.3197V81.9062H45.6561V80.5626C45.3805 81.0191 45.0144 81.3679 44.5579 81.6091C44.11 81.8503 43.6019 81.9708 43.0334 81.9708C42.396 81.9708 41.8189 81.8244 41.3021 81.5316C40.7853 81.2387 40.3805 80.8296 40.0877 80.3042C39.7948 79.7788 39.6484 79.1802 39.6484 78.5083C39.6484 77.8365 39.7948 77.2379 40.0877 76.7125C40.3805 76.1871 40.7853 75.7822 41.3021 75.498C41.8189 75.2051 42.396 75.0587 43.0334 75.0587C43.5846 75.0587 44.0799 75.175 44.5192 75.4076C44.9671 75.6315 45.3331 75.9631 45.6174 76.4024V72.3197H46.5347ZM43.1109 81.1569C43.5846 81.1569 44.011 81.0492 44.39 80.8339C44.7776 80.61 45.079 80.2956 45.2944 79.8908C45.5183 79.4859 45.6303 79.0251 45.6303 78.5083C45.6303 77.9915 45.5183 77.5307 45.2944 77.1259C45.079 76.7211 44.7776 76.411 44.39 76.1957C44.011 75.9717 43.5846 75.8598 43.1109 75.8598C42.6286 75.8598 42.1936 75.9717 41.806 76.1957C41.427 76.411 41.1255 76.7211 40.9016 77.1259C40.6863 77.5307 40.5786 77.9915 40.5786 78.5083C40.5786 79.0251 40.6863 79.4859 40.9016 79.8908C41.1255 80.2956 41.427 80.61 41.806 80.8339C42.1936 81.0492 42.6286 81.1569 43.1109 81.1569ZM55.9333 75.0587C56.786 75.0587 57.4621 75.3085 57.9617 75.8081C58.4699 76.299 58.7239 77.0182 58.7239 77.9657V81.9062H57.8066V78.0561C57.8066 77.3498 57.6301 76.8115 57.2769 76.4411C56.9238 76.0708 56.4199 75.8856 55.7653 75.8856C55.0332 75.8856 54.4518 76.1052 54.0211 76.5445C53.5991 76.9752 53.388 77.5738 53.388 78.3404V81.9062H52.4707V75.1104H53.3493V76.3636C53.5991 75.9502 53.9436 75.6315 54.3829 75.4076C54.8308 75.175 55.3476 75.0587 55.9333 75.0587ZM67.3384 75.1104V81.9062H66.4598V80.6659C66.2186 81.0794 65.887 81.4024 65.465 81.6349C65.0429 81.8589 64.5606 81.9708 64.018 81.9708C63.1308 81.9708 62.4288 81.7254 61.912 81.2344C61.4038 80.7348 61.1498 80.007 61.1498 79.051V75.1104H62.0671V78.9605C62.0671 79.6754 62.2436 80.2181 62.5968 80.5884C62.9499 80.9588 63.4538 81.144 64.1084 81.144C64.8233 81.144 65.3875 80.9286 65.8009 80.498C66.2143 80.0587 66.4211 79.4515 66.4211 78.6763V75.1104H67.3384ZM78.3829 75.0587C79.2356 75.0587 79.9032 75.3042 80.3855 75.7952C80.8765 76.2861 81.1219 77.0096 81.1219 77.9657V81.9062H80.2046V78.0561C80.2046 77.3498 80.0324 76.8115 79.6878 76.4411C79.3519 76.0708 78.8739 75.8856 78.2537 75.8856C77.5474 75.8856 76.9919 76.1052 76.5871 76.5445C76.1822 76.9752 75.9798 77.5738 75.9798 78.3404V81.9062H75.0625V78.0561C75.0625 77.3498 74.8903 76.8115 74.5457 76.4411C74.2098 76.0708 73.7275 75.8856 73.0987 75.8856C72.401 75.8856 71.8455 76.1052 71.432 76.5445C71.0272 76.9752 70.8248 77.5738 70.8248 78.3404V81.9062H69.9075V75.1104H70.786V76.3507C71.0272 75.9373 71.3631 75.6186 71.7938 75.3946C72.2245 75.1707 72.7197 75.0587 73.2796 75.0587C73.8481 75.0587 74.339 75.1793 74.7524 75.4205C75.1745 75.6617 75.4889 76.0191 75.6956 76.4928C75.9454 76.0449 76.3028 75.6961 76.7679 75.4463C77.2417 75.1879 77.78 75.0587 78.3829 75.0587ZM87.1109 75.0587C87.7483 75.0587 88.3254 75.2051 88.8422 75.498C89.359 75.7822 89.7638 76.1871 90.0566 76.7125C90.3495 77.2379 90.4959 77.8365 90.4959 78.5083C90.4959 79.1802 90.3495 79.7788 90.0566 80.3042C89.7638 80.8296 89.359 81.2387 88.8422 81.5316C88.3254 81.8244 87.7483 81.9708 87.1109 81.9708C86.5424 81.9708 86.0299 81.8503 85.5734 81.6091C85.1255 81.3679 84.7638 81.0191 84.4882 80.5626V81.9062H83.6096V72.3197H84.5269V76.4024C84.8112 75.9631 85.1729 75.6315 85.6122 75.4076C86.0601 75.175 86.5597 75.0587 87.1109 75.0587ZM87.0463 81.1569C87.52 81.1569 87.9507 81.0492 88.3383 80.8339C88.7259 80.61 89.0273 80.2956 89.2427 79.8908C89.4666 79.4859 89.5786 79.0251 89.5786 78.5083C89.5786 77.9915 89.4666 77.5307 89.2427 77.1259C89.0273 76.7211 88.7259 76.411 88.3383 76.1957C87.9507 75.9717 87.52 75.8598 87.0463 75.8598C86.564 75.8598 86.129 75.9717 85.7414 76.1957C85.3624 76.411 85.0609 76.7211 84.837 77.1259C84.6217 77.5307 84.514 77.9915 84.514 78.5083C84.514 79.0251 84.6217 79.4859 84.837 79.8908C85.0609 80.2956 85.3624 80.61 85.7414 80.8339C86.129 81.0492 86.564 81.1569 87.0463 81.1569ZM98.2831 78.7926H92.5984C92.6501 79.4988 92.9214 80.0716 93.4124 80.5109C93.9033 80.9416 94.5235 81.1569 95.2728 81.1569C95.6949 81.1569 96.0825 81.0837 96.4356 80.9373C96.7887 80.7822 97.0945 80.5583 97.3529 80.2654L97.8697 80.8597C97.5682 81.2215 97.1893 81.4971 96.7328 81.6866C96.2849 81.8761 95.7896 81.9708 95.247 81.9708C94.5493 81.9708 93.9292 81.8244 93.3865 81.5316C92.8525 81.2301 92.4348 80.8167 92.1333 80.2913C91.8318 79.7659 91.6811 79.1715 91.6811 78.5083C91.6811 77.8451 91.8232 77.2508 92.1075 76.7254C92.4003 76.2 92.7965 75.7908 93.2961 75.498C93.8043 75.2051 94.3727 75.0587 95.0015 75.0587C95.6303 75.0587 96.1944 75.2051 96.694 75.498C97.1936 75.7908 97.5855 76.2 97.8697 76.7254C98.1539 77.2422 98.2961 77.8365 98.2961 78.5083L98.2831 78.7926ZM95.0015 75.8468C94.3469 75.8468 93.7956 76.0579 93.3478 76.4799C92.9085 76.8933 92.6587 77.436 92.5984 78.1078H97.4175C97.3572 77.436 97.1031 76.8933 96.6552 76.4799C96.216 76.0579 95.6647 75.8468 95.0015 75.8468ZM101.042 76.4411C101.257 75.9846 101.576 75.6401 101.998 75.4076C102.428 75.175 102.958 75.0587 103.587 75.0587V75.9502L103.367 75.9373C102.652 75.9373 102.093 76.1569 101.688 76.5962C101.283 77.0355 101.08 77.6513 101.08 78.4437V81.9062H100.163V75.1104H101.042V76.4411Z" fill="#B7B7B7"/>
<g filter="url(#filter1_d_49_1517)">
<path d="M22.3084 98.2396C24.4904 98.2396 26.0767 98.6344 27.0672 99.424C28.0721 100.199 28.5745 101.29 28.5745 102.697C28.5745 103.573 28.3664 104.355 27.95 105.044C27.5481 105.733 26.938 106.279 26.1197 106.681C25.3015 107.068 24.2966 107.262 23.1051 107.262C22.0284 107.262 21.002 107.09 20.0259 106.745C19.0641 106.386 18.2889 105.913 17.7003 105.324L18.4539 104.097C18.9564 104.613 19.6167 105.037 20.435 105.367C21.2533 105.683 22.1361 105.841 23.0836 105.841C24.3325 105.841 25.2943 105.561 25.969 105.001C26.6581 104.441 27.0026 103.695 27.0026 102.762C27.0026 101.728 26.615 100.946 25.8398 100.414C25.079 99.8833 23.787 99.6178 21.9638 99.6178H18.7554L19.5306 92.0596H27.7778V93.4378H20.8872L20.3704 98.2396H22.3084ZM35.596 98.2396C37.778 98.2396 39.3643 98.6344 40.3548 99.424C41.3597 100.199 41.8621 101.29 41.8621 102.697C41.8621 103.573 41.654 104.355 41.2377 105.044C40.8357 105.733 40.2256 106.279 39.4074 106.681C38.5891 107.068 37.5842 107.262 36.3927 107.262C35.3161 107.262 34.2897 107.09 33.3135 106.745C32.3517 106.386 31.5765 105.913 30.9879 105.324L31.7416 104.097C32.244 104.613 32.9044 105.037 33.7226 105.367C34.5409 105.683 35.4237 105.841 36.3712 105.841C37.6201 105.841 38.5819 105.561 39.2566 105.001C39.9457 104.441 40.2902 103.695 40.2902 102.762C40.2902 101.728 39.9026 100.946 39.1274 100.414C38.3666 99.8833 37.0746 99.6178 35.2515 99.6178H32.043L32.8182 92.0596H41.0654V93.4378H34.1748L33.658 98.2396H35.596ZM51.0344 107.262C49.8716 107.262 48.8309 106.953 47.9121 106.336C47.0077 105.719 46.2971 104.836 45.7803 103.688C45.2779 102.525 45.0267 101.161 45.0267 99.5962C45.0267 98.0315 45.2779 96.6749 45.7803 95.5265C46.2971 94.3637 47.0077 93.4736 47.9121 92.8564C48.8309 92.2391 49.8716 91.9304 51.0344 91.9304C52.1972 91.9304 53.2308 92.2391 54.1352 92.8564C55.0539 93.4736 55.7717 94.3637 56.2885 95.5265C56.8053 96.6749 57.0637 98.0315 57.0637 99.5962C57.0637 101.161 56.8053 102.525 56.2885 103.688C55.7717 104.836 55.0539 105.719 54.1352 106.336C53.2308 106.953 52.1972 107.262 51.0344 107.262ZM51.0344 105.841C51.9101 105.841 52.6781 105.597 53.3385 105.109C54.0132 104.621 54.5371 103.91 54.9104 102.977C55.2836 102.044 55.4702 100.917 55.4702 99.5962C55.4702 98.2755 55.2836 97.1486 54.9104 96.2155C54.5371 95.2824 54.0132 94.5718 53.3385 94.0838C52.6781 93.5957 51.9101 93.3516 51.0344 93.3516C50.1587 93.3516 49.3835 93.5957 48.7088 94.0838C48.0485 94.5718 47.5317 95.2824 47.1585 96.2155C46.7852 97.1486 46.5986 98.2755 46.5986 99.5962C46.5986 100.917 46.7852 102.044 47.1585 102.977C47.5317 103.91 48.0485 104.621 48.7088 105.109C49.3835 105.597 50.1587 105.841 51.0344 105.841ZM64.6156 92.0596V107.133H63.0652V93.4378H59.5122V92.0596H64.6156ZM86.5397 105.755V107.133H75.9669V106.035L82.2331 99.8977C83.0226 99.1225 83.5538 98.455 83.8265 97.8951C84.1136 97.3209 84.2572 96.7467 84.2572 96.1725C84.2572 95.2824 83.9485 94.5934 83.3313 94.1053C82.7283 93.6028 81.8598 93.3516 80.7258 93.3516C78.96 93.3516 77.5891 93.9115 76.6129 95.0312L75.5147 94.0838C76.1033 93.3947 76.8498 92.8635 77.7542 92.4903C78.6729 92.1171 79.7065 91.9304 80.8549 91.9304C82.391 91.9304 83.604 92.2965 84.494 93.0286C85.3984 93.7464 85.8506 94.7369 85.8506 96.0002C85.8506 96.7754 85.6784 97.5219 85.3338 98.2396C84.9893 98.9574 84.3361 99.7828 83.3743 100.716L78.2494 105.755H86.5397ZM99.9745 105.755V107.133H89.4018V106.035L95.6679 99.8977C96.4574 99.1225 96.9886 98.455 97.2613 97.8951C97.5484 97.3209 97.692 96.7467 97.692 96.1725C97.692 95.2824 97.3834 94.5934 96.7661 94.1053C96.1632 93.6028 95.2946 93.3516 94.1606 93.3516C92.3949 93.3516 91.0239 93.9115 90.0477 95.0312L88.9496 94.0838C89.5381 93.3947 90.2846 92.8635 91.189 92.4903C92.1077 92.1171 93.1413 91.9304 94.2898 91.9304C95.8258 91.9304 97.0388 92.2965 97.9289 93.0286C98.8333 93.7464 99.2855 94.7369 99.2855 96.0002C99.2855 96.7754 99.1132 97.5219 98.7687 98.2396C98.4241 98.9574 97.771 99.7828 96.8091 100.716L91.6843 105.755H99.9745ZM107.165 95.0527L109.835 96.5601L109.34 97.4644L106.648 95.8925V98.9502H105.657L105.679 95.8925L102.987 97.4644L102.471 96.5601L105.162 95.0527L102.471 93.5454L102.987 92.6195L105.679 94.213L105.657 91.1553H106.648V94.213L109.34 92.6195L109.835 93.5454L107.165 95.0527ZM117.088 95.0527L119.758 96.5601L119.263 97.4644L116.571 95.8925V98.9502H115.58L115.602 95.8925L112.91 97.4644L112.394 96.5601L115.085 95.0527L112.394 93.5454L112.91 92.6195L115.602 94.213L115.58 91.1553H116.571V94.213L119.263 92.6195L119.758 93.5454L117.088 95.0527ZM133.422 95.0527L136.092 96.5601L135.597 97.4644L132.905 95.8925V98.9502H131.915L131.936 95.8925L129.245 97.4644L128.728 96.5601L131.42 95.0527L128.728 93.5454L129.245 92.6195L131.936 94.213L131.915 91.1553H132.905V94.213L135.597 92.6195L136.092 93.5454L133.422 95.0527ZM143.345 95.0527L146.015 96.5601L145.52 97.4644L142.829 95.8925V98.9502H141.838L141.86 95.8925L139.168 97.4644L138.651 96.5601L141.343 95.0527L138.651 93.5454L139.168 92.6195L141.86 94.213L141.838 91.1553H142.829V94.213L145.52 92.6195L146.015 93.5454L143.345 95.0527ZM153.268 95.0527L155.938 96.5601L155.443 97.4644L152.752 95.8925V98.9502H151.761L151.783 95.8925L149.091 97.4644L148.574 96.5601L151.266 95.0527L148.574 93.5454L149.091 92.6195L151.783 94.213L151.761 91.1553H152.752V94.213L155.443 92.6195L155.938 93.5454L153.268 95.0527ZM163.191 95.0527L165.862 96.5601L165.366 97.4644L162.675 95.8925V98.9502H161.684L161.706 95.8925L159.014 97.4644L158.497 96.5601L161.189 95.0527L158.497 93.5454L159.014 92.6195L161.706 94.213L161.684 91.1553H162.675V94.213L165.366 92.6195L165.862 93.5454L163.191 95.0527ZM188.29 103.171H185.275V107.133H183.725V103.171H175.219V102.051L183.208 92.0596H184.931L177.222 101.793H183.768V98.3042H185.275V101.793H188.29V103.171ZM203.722 103.171H200.708V107.133H199.157V103.171H190.652V102.051L198.641 92.0596H200.363L192.654 101.793H199.2V98.3042H200.708V101.793H203.722V103.171ZM215.188 99.2302C216.135 99.546 216.86 100.02 217.363 100.651C217.879 101.283 218.138 102.044 218.138 102.934C218.138 103.81 217.901 104.578 217.427 105.238C216.953 105.884 216.272 106.386 215.382 106.745C214.506 107.09 213.472 107.262 212.281 107.262C210.472 107.262 209.051 106.874 208.017 106.099C206.984 105.324 206.467 104.269 206.467 102.934C206.467 102.029 206.711 101.269 207.199 100.651C207.701 100.02 208.426 99.546 209.374 99.2302C208.599 98.9287 208.01 98.498 207.608 97.9382C207.206 97.364 207.005 96.6893 207.005 95.9141C207.005 94.6939 207.479 93.7249 208.426 93.0071C209.388 92.2893 210.673 91.9304 212.281 91.9304C213.343 91.9304 214.269 92.0955 215.059 92.4257C215.862 92.7415 216.487 93.2009 216.932 93.8038C217.377 94.4067 217.599 95.1102 217.599 95.9141C217.599 96.6893 217.391 97.364 216.975 97.9382C216.559 98.498 215.963 98.9287 215.188 99.2302ZM208.556 95.9571C208.556 96.7897 208.886 97.4501 209.546 97.9382C210.206 98.4263 211.118 98.6703 212.281 98.6703C213.444 98.6703 214.355 98.4263 215.015 97.9382C215.69 97.4501 216.028 96.7969 216.028 95.9787C216.028 95.1317 215.683 94.4642 214.994 93.9761C214.319 93.488 213.415 93.244 212.281 93.244C211.132 93.244 210.221 93.488 209.546 93.9761C208.886 94.4642 208.556 95.1245 208.556 95.9571ZM212.281 105.948C213.616 105.948 214.657 105.676 215.403 105.13C216.164 104.585 216.544 103.845 216.544 102.912C216.544 101.979 216.164 101.247 215.403 100.716C214.657 100.17 213.616 99.8977 212.281 99.8977C210.96 99.8977 209.919 100.17 209.158 100.716C208.412 101.247 208.039 101.979 208.039 102.912C208.039 103.86 208.412 104.606 209.158 105.152C209.905 105.683 210.946 105.948 212.281 105.948ZM232.118 92.0596V93.1578L225.809 107.133H224.129L230.331 93.4378H222.579V96.2586H221.05V92.0596H232.118Z" fill="white"/>
</g>
<g filter="url(#filter2_d_49_1517)">
<path d="M273.419 152.534V161.578H272.488V153.361H270.357V152.534H273.419ZM278.087 152.534V161.578H277.157V153.361H275.025V152.534H278.087ZM282.755 152.534V161.578H281.825V153.361H279.693V152.534H282.755Z" fill="white"/>
</g>
<g filter="url(#filter3_d_49_1517)">
<path d="M19.3282 152.534V161.578H18.398V153.361H16.2662V152.534H19.3282ZM25.2368 156.165C25.8311 156.165 26.3565 156.277 26.813 156.501C27.2781 156.725 27.6399 157.043 27.8983 157.457C28.1567 157.862 28.2859 158.335 28.2859 158.878C28.2859 159.429 28.1524 159.916 27.8854 160.338C27.6184 160.76 27.248 161.087 26.7743 161.32C26.3092 161.544 25.7837 161.656 25.198 161.656C24.0008 161.656 23.0835 161.264 22.4461 160.48C21.8087 159.688 21.49 158.572 21.49 157.134C21.49 156.126 21.6623 155.273 22.0068 154.576C22.3514 153.878 22.8337 153.352 23.4539 152.999C24.074 152.638 24.7975 152.457 25.6244 152.457C26.5202 152.457 27.2351 152.62 27.7691 152.948L27.3944 153.697C26.9638 153.413 26.3781 153.271 25.6373 153.271C24.6382 153.271 23.8544 153.589 23.2859 154.227C22.7174 154.855 22.4332 155.773 22.4332 156.979C22.4332 157.194 22.4461 157.439 22.472 157.715C22.6959 157.224 23.0533 156.845 23.5443 156.578C24.0353 156.303 24.5994 156.165 25.2368 156.165ZM25.1593 160.868C25.8139 160.868 26.3436 160.691 26.7484 160.338C27.1619 159.976 27.3686 159.498 27.3686 158.904C27.3686 158.309 27.1619 157.836 26.7484 157.483C26.3436 157.129 25.7924 156.953 25.0947 156.953C24.6382 156.953 24.2334 157.039 23.8802 157.211C23.5357 157.383 23.2644 157.62 23.0663 157.922C22.8682 158.223 22.7691 158.559 22.7691 158.93C22.7691 159.274 22.8595 159.593 23.0404 159.886C23.2299 160.178 23.5055 160.415 23.8673 160.596C24.2291 160.777 24.6597 160.868 25.1593 160.868ZM32.758 150.7H33.5978L29.3342 162.87H28.4944L32.758 150.7ZM36.7145 152.534V161.578H35.7843V153.361H33.6525V152.534H36.7145ZM41.6929 152.457C42.8901 152.457 43.8074 152.853 44.4448 153.645C45.0822 154.429 45.4009 155.54 45.4009 156.979C45.4009 157.986 45.2286 158.839 44.8841 159.537C44.5395 160.234 44.0572 160.764 43.4371 161.126C42.8169 161.479 42.0934 161.656 41.2665 161.656C40.3707 161.656 39.6558 161.492 39.1218 161.165L39.4965 160.415C39.9272 160.7 40.5129 160.842 41.2536 160.842C42.2527 160.842 43.0365 160.527 43.605 159.899C44.1735 159.261 44.4577 158.34 44.4577 157.134C44.4577 156.91 44.4448 156.664 44.419 156.397C44.195 156.888 43.8376 157.272 43.3466 157.547C42.8557 157.814 42.2915 157.948 41.6541 157.948C41.0598 157.948 40.5301 157.836 40.065 157.612C39.6085 157.388 39.251 157.073 38.9926 156.669C38.7342 156.255 38.605 155.777 38.605 155.234C38.605 154.683 38.7385 154.197 39.0055 153.775C39.2726 153.352 39.6386 153.029 40.1037 152.806C40.5775 152.573 41.1072 152.457 41.6929 152.457ZM41.7962 157.16C42.2527 157.16 42.6532 157.073 42.9978 156.901C43.3509 156.729 43.6265 156.492 43.8246 156.191C44.0228 155.889 44.1218 155.553 44.1218 155.183C44.1218 154.838 44.0271 154.52 43.8376 154.227C43.6567 153.934 43.3854 153.697 43.0236 153.516C42.6619 153.335 42.2312 153.245 41.7316 153.245C41.077 153.245 40.543 153.426 40.1296 153.787C39.7247 154.141 39.5223 154.614 39.5223 155.209C39.5223 155.803 39.7247 156.277 40.1296 156.63C40.543 156.983 41.0986 157.16 41.7962 157.16Z" fill="white"/>
</g>
</g>
</g>
<path fill-rule="evenodd" clip-rule="evenodd" d="M266.119 33.8727C266.119 44.8969 257.183 53.8327 246.159 53.8327C235.135 53.8327 226.198 44.8969 226.198 33.8727C226.198 22.8488 235.135 13.9121 246.159 13.9121C257.183 13.9121 266.119 22.8488 266.119 33.8727Z" fill="#CC0000"/>
<path fill-rule="evenodd" clip-rule="evenodd" d="M272.957 13.9121C267.799 13.9121 263.1 15.8688 259.557 19.0787C258.836 19.7329 258.163 20.4395 257.542 21.1918H261.575C262.126 21.8624 262.633 22.5674 263.097 23.3059H256.02C255.597 23.9844 255.212 24.6894 254.87 25.4199H264.246C264.567 26.1041 264.849 26.8088 265.091 27.533H254.025C253.794 28.2213 253.6 28.9266 253.445 29.6458H265.671C265.963 31.0085 266.119 32.4223 266.119 33.8727C266.119 36.0887 265.758 38.2216 265.091 40.2136H254.025C254.267 40.9373 254.549 41.6429 254.869 42.328H264.246C263.903 43.0567 263.521 43.7623 263.095 44.4418H256.02C256.482 45.178 256.99 45.884 257.542 46.5536H261.574C260.954 47.3066 260.28 48.0132 259.557 48.6674C263.1 51.8773 267.799 53.8327 272.957 53.8327C283.981 53.8327 292.917 44.8969 292.917 33.8727C292.917 22.8497 283.981 13.9121 272.957 13.9121Z" fill="#FF9900"/>
<path fill-rule="evenodd" clip-rule="evenodd" d="M241.498 36.0585C241.27 36.0326 241.17 36.0244 241.014 36.0244C239.786 36.0244 239.165 36.4458 239.165 37.2783C239.165 37.7909 239.468 38.1167 239.941 38.1167C240.824 38.1167 241.46 37.2764 241.498 36.0585ZM243.074 39.7273C242.785 39.7273 241.278 39.7273 241.278 39.7273L241.319 38.8741C240.772 39.5479 240.041 39.8696 239.048 39.8696C237.874 39.8696 237.069 38.9529 237.069 37.6209C237.069 35.6156 238.469 34.4463 240.873 34.4463C241.119 34.4463 241.434 34.469 241.757 34.5097C241.823 34.2378 241.841 34.1223 241.841 33.9757C241.841 33.4306 241.464 33.2262 240.452 33.2262C239.391 33.2154 238.517 33.4795 238.158 33.5974C238.18 33.4605 238.458 31.7455 238.458 31.7455C239.538 31.4282 240.25 31.3096 241.052 31.3096C242.913 31.3096 243.898 32.1449 243.896 33.7239C243.9 34.1476 243.83 34.6684 243.721 35.3554C243.533 36.5477 243.129 39.105 243.074 39.7273Z" fill="#000066"/>
<path fill-rule="evenodd" clip-rule="evenodd" d="M236.162 39.7271H233.994L235.237 31.9447L232.464 39.7271H230.988L230.805 31.9882L229.5 39.7271H227.472L229.166 29.6025H232.283L232.471 35.2697L234.372 29.6025H237.838L236.162 39.7271Z" fill="#000066"/>
<path fill-rule="evenodd" clip-rule="evenodd" d="M275.635 36.0585C275.407 36.0326 275.308 36.0244 275.153 36.0244C273.923 36.0244 273.303 36.4458 273.303 37.2783C273.303 37.7909 273.605 38.1167 274.079 38.1167C274.961 38.1167 275.598 37.2764 275.635 36.0585ZM277.212 39.7273C276.922 39.7273 275.417 39.7273 275.417 39.7273L275.457 38.8741C274.91 39.5479 274.179 39.8696 273.187 39.8696C272.011 39.8696 271.207 38.9529 271.207 37.6209C271.207 35.6156 272.608 34.4463 275.011 34.4463C275.257 34.4463 275.571 34.469 275.894 34.5097C275.961 34.2378 275.979 34.1223 275.979 33.9757C275.979 33.4306 275.601 33.2262 274.589 33.2262C273.529 33.2154 272.655 33.4795 272.294 33.5974C272.318 33.4605 272.597 31.7455 272.597 31.7455C273.676 31.4282 274.389 31.3096 275.189 31.3096C277.051 31.3096 278.036 32.1449 278.034 33.7239C278.038 34.1476 277.968 34.6684 277.858 35.3554C277.671 36.5477 277.266 39.105 277.212 39.7273Z" fill="#000066"/>
<path fill-rule="evenodd" clip-rule="evenodd" d="M252.705 39.602C252.111 39.7888 251.649 39.8695 251.148 39.8695C250.04 39.8695 249.436 39.233 249.436 38.0605C249.42 37.6965 249.595 36.7391 249.732 35.866C249.858 35.0966 250.672 30.2471 250.672 30.2471H252.826L252.574 31.4934H253.876L253.582 33.4724H252.276C252.026 35.0379 251.669 36.9886 251.665 37.2473C251.665 37.6718 251.892 37.8573 252.408 37.8573C252.655 37.8573 252.846 37.8321 252.992 37.7797L252.705 39.602Z" fill="#000066"/>
<path fill-rule="evenodd" clip-rule="evenodd" d="M259.309 39.5356C258.569 39.7617 257.855 39.8721 257.099 39.8696C254.687 39.8665 253.43 38.6079 253.43 36.1963C253.43 33.382 255.029 31.3096 257.2 31.3096C258.976 31.3096 260.111 32.4698 260.111 34.2886C260.111 34.8933 260.033 35.4825 259.845 36.314H255.555C255.41 37.5086 256.174 38.006 257.428 38.006C258.198 38.006 258.894 37.847 259.667 37.4884L259.309 39.5356ZM258.098 34.6545C258.11 34.4826 258.326 33.1845 257.095 33.1845C256.41 33.1845 255.919 33.7075 255.72 34.6545H258.098Z" fill="#000066"/>
<path fill-rule="evenodd" clip-rule="evenodd" d="M244.374 34.0968C244.374 35.1374 244.878 35.8557 246.023 36.3954C246.901 36.8083 247.037 36.9304 247.037 37.3042C247.037 37.8167 246.65 38.0495 245.793 38.0495C245.146 38.0495 244.545 37.948 243.851 37.7237C243.851 37.7237 243.567 39.5393 243.553 39.6261C244.046 39.7327 244.485 39.8321 245.808 39.8696C248.095 39.8696 249.151 38.999 249.151 37.1174C249.151 35.9863 248.709 35.3223 247.623 34.8226C246.715 34.4059 246.61 34.3125 246.61 33.9283C246.61 33.4833 246.971 33.2558 247.671 33.2558C248.096 33.2558 248.677 33.3012 249.228 33.3792L249.536 31.4695C248.975 31.3802 248.124 31.3096 247.629 31.3096C245.205 31.3096 244.366 32.5754 244.374 34.0968Z" fill="#000066"/>
<path fill-rule="evenodd" clip-rule="evenodd" d="M269.848 31.5263C270.449 31.5263 271.012 31.6827 271.784 32.0729L272.139 29.8756C271.82 29.7507 270.703 29.0186 269.757 29.0186C268.307 29.0186 267.08 29.739 266.219 30.9254C264.961 30.509 264.443 31.3506 263.81 32.1897L263.247 32.3209C263.289 32.0449 263.328 31.7708 263.316 31.4928H261.325C261.054 34.0419 260.572 36.6228 260.195 39.1728L260.096 39.7267H262.264C262.626 37.3755 262.824 35.8705 262.944 34.851L263.761 34.3987C263.883 33.9441 264.264 33.7914 265.03 33.8101C264.93 34.3469 264.876 34.9125 264.876 35.4976C264.876 38.1918 266.331 39.869 268.663 39.869C269.264 39.869 269.78 39.7901 270.579 39.5725L270.959 37.2654C270.24 37.6183 269.652 37.7846 269.118 37.7846C267.858 37.7846 267.096 36.8543 267.096 35.3179C267.096 33.088 268.229 31.5263 269.848 31.5263Z" fill="#000066"/>
<path fill-rule="evenodd" clip-rule="evenodd" d="M288.194 29.6025L287.713 32.5276C287.121 31.7481 286.485 31.1835 285.644 31.1835C284.551 31.1835 283.556 32.0125 282.904 33.2332C281.997 33.0449 281.059 32.7247 281.059 32.7247L281.058 32.7326C281.13 32.0503 281.161 31.6352 281.154 31.4933H279.163C278.893 34.0423 278.41 36.6232 278.034 39.1732L277.934 39.7271H280.103C280.395 37.827 280.619 36.2472 280.784 34.9962C281.525 34.3262 281.896 33.7436 282.644 33.7815C282.312 34.5833 282.119 35.5063 282.119 36.4532C282.119 38.5108 283.159 39.8694 284.735 39.8694C285.529 39.8694 286.139 39.5953 286.733 38.9606L286.631 39.7265H288.681L290.332 29.6025H288.194ZM285.484 37.8251C284.747 37.8251 284.373 37.2781 284.373 36.2018C284.373 34.5833 285.071 33.4361 286.054 33.4361C286.799 33.4361 287.203 34.0026 287.203 35.0486C287.203 36.681 286.493 37.8251 285.484 37.8251Z" fill="#000066"/>
<path fill-rule="evenodd" clip-rule="evenodd" d="M236.785 39.1256H234.618L235.86 31.3431L233.088 39.1256H231.611L231.429 31.3882L230.124 39.1256H228.096L229.79 29.002H232.906L232.993 35.2691L235.096 29.002H238.461L236.785 39.1256Z" fill="white"/>
<path fill-rule="evenodd" clip-rule="evenodd" d="M242.122 35.4582C241.895 35.4317 241.794 35.4244 241.638 35.4244C240.41 35.4244 239.788 35.8452 239.788 36.677C239.788 37.189 240.092 37.5167 240.565 37.5167C241.448 37.5167 242.084 36.6764 242.122 35.4582ZM243.698 39.1258C243.409 39.1258 241.902 39.1258 241.902 39.1258L241.943 38.2732C241.396 38.9466 240.665 39.2687 239.672 39.2687C238.498 39.2687 237.693 38.3508 237.693 37.019C237.693 35.0134 239.093 33.8457 241.497 33.8457C241.743 33.8457 242.058 33.8681 242.381 33.9097C242.447 33.6372 242.465 33.5214 242.465 33.3741C242.465 32.8293 242.088 32.6265 241.076 32.6265C240.015 32.6139 239.141 32.8779 238.781 32.9956C238.804 32.8593 239.082 31.1443 239.082 31.1443C240.162 30.8276 240.874 30.708 241.676 30.708C243.536 30.708 244.522 31.5442 244.52 33.1227C244.524 33.5457 244.454 34.069 244.345 34.7541C244.157 35.9455 243.753 38.5044 243.698 39.1258Z" fill="white"/>
<path fill-rule="evenodd" clip-rule="evenodd" d="M272.762 29.2749L272.407 31.4719C271.634 31.0829 271.073 30.9255 270.472 30.9255C268.854 30.9255 267.719 32.4892 267.719 34.7193C267.719 36.2558 268.482 37.1841 269.742 37.1841C270.275 37.1841 270.865 37.0192 271.582 36.6649L271.201 38.9721C270.403 39.1894 269.887 39.2689 269.287 39.2689C266.953 39.2689 265.5 37.5914 265.5 34.8979C265.5 31.2785 267.509 28.749 270.381 28.749C271.327 28.749 272.445 29.1499 272.762 29.2749Z" fill="white"/>
<path fill-rule="evenodd" clip-rule="evenodd" d="M276.258 35.4582C276.032 35.4317 275.931 35.4244 275.775 35.4244C274.548 35.4244 273.926 35.8452 273.926 36.677C273.926 37.189 274.229 37.5167 274.702 37.5167C275.585 37.5167 276.221 36.6764 276.258 35.4582ZM277.835 39.1258C277.547 39.1258 276.04 39.1258 276.04 39.1258L276.08 38.2732C275.533 38.9466 274.802 39.2687 273.81 39.2687C272.635 39.2687 271.831 38.3508 271.831 37.019C271.831 35.0134 273.23 33.8457 275.634 33.8457C275.88 33.8457 276.194 33.8681 276.517 33.9097C276.584 33.6372 276.602 33.5214 276.602 33.3741C276.602 32.8293 276.225 32.6265 275.212 32.6265C274.153 32.6139 273.279 32.8779 272.919 32.9956C272.942 32.8593 273.219 31.1443 273.219 31.1443C274.299 30.8276 275.011 30.708 275.812 30.708C277.673 30.708 278.659 31.5442 278.657 33.1227C278.661 33.5457 278.591 34.069 278.482 34.7541C278.294 35.9455 277.89 38.5044 277.835 39.1258Z" fill="white"/>
<path fill-rule="evenodd" clip-rule="evenodd" d="M253.328 39.0008C252.735 39.1875 252.272 39.2686 251.771 39.2686C250.664 39.2686 250.059 38.6317 250.059 37.4605C250.043 37.0952 250.218 36.1395 250.356 35.2654C250.481 34.4954 251.296 29.6465 251.296 29.6465H253.45L253.198 30.8925H254.304L254.009 32.8709H252.9C252.65 34.438 252.293 36.3874 252.288 36.6461C252.288 37.0719 252.516 37.2561 253.031 37.2561C253.278 37.2561 253.469 37.2318 253.615 37.1782L253.328 39.0008Z" fill="white"/>
<path fill-rule="evenodd" clip-rule="evenodd" d="M259.933 38.9356C259.193 39.1624 258.478 39.2693 257.722 39.2687C255.31 39.2671 254.054 38.0069 254.054 35.5957C254.054 32.7804 255.653 30.708 257.822 30.708C259.6 30.708 260.734 31.8682 260.734 33.6892C260.734 34.2926 260.655 34.8816 260.469 35.7134H256.179C256.034 36.9079 256.799 37.4063 258.051 37.4063C258.822 37.4063 259.517 37.2467 260.291 36.8871L259.933 38.9356ZM258.722 34.0529C258.734 33.8807 258.95 32.5833 257.72 32.5833C257.034 32.5833 256.543 33.1072 256.343 34.0529H258.722Z" fill="white"/>
<path fill-rule="evenodd" clip-rule="evenodd" d="M244.997 33.4952C244.997 34.5377 245.502 35.2544 246.648 35.7948C247.525 36.2074 247.661 36.3294 247.661 36.7035C247.661 37.2168 247.274 37.4483 246.416 37.4483C245.77 37.4483 245.168 37.348 244.474 37.1243C244.474 37.1243 244.19 38.9387 244.177 39.0242C244.669 39.1321 245.109 39.2305 246.432 39.2687C248.719 39.2687 249.775 38.3984 249.775 36.5168C249.775 35.385 249.332 34.7213 248.247 34.2229C247.339 33.805 247.234 33.7126 247.234 33.3277C247.234 32.8826 247.594 32.6536 248.295 32.6536C248.72 32.6536 249.301 32.7009 249.852 32.7785L250.16 30.8692C249.599 30.7806 248.749 30.708 248.253 30.708C245.829 30.708 244.99 31.9742 244.997 33.4952Z" fill="white"/>
<path fill-rule="evenodd" clip-rule="evenodd" d="M289.304 39.1256H287.255L287.356 38.3594C286.762 38.9944 286.153 39.2685 285.358 39.2685C283.784 39.2685 282.742 37.9115 282.742 35.8517C282.742 33.1131 284.357 30.8047 286.268 30.8047C287.108 30.8047 287.744 31.1479 288.337 31.9276L288.818 29.002H290.955L289.304 39.1256ZM286.107 37.2232C287.117 37.2232 287.826 36.0797 287.826 34.4489C287.826 33.4026 287.422 32.8342 286.677 32.8342C285.695 32.8342 284.997 33.9818 284.997 35.6009C284.997 36.6785 285.371 37.2232 286.107 37.2232Z" fill="white"/>
<path fill-rule="evenodd" clip-rule="evenodd" d="M279.787 30.8931C279.516 33.4415 279.034 36.0224 278.657 38.5727L278.559 39.1263H280.726C281.501 34.0913 281.688 33.1087 282.904 33.2314C283.097 32.2009 283.458 31.2984 283.726 30.8436C282.819 30.6543 282.312 31.1672 281.648 32.1419C281.701 31.7202 281.796 31.311 281.778 30.8931H279.787Z" fill="white"/>
<path fill-rule="evenodd" clip-rule="evenodd" d="M261.949 30.8931C261.677 33.4415 261.194 36.0224 260.818 38.5727L260.72 39.1263H262.888C263.663 34.0913 263.849 33.1087 265.064 33.2314C265.258 32.2009 265.619 31.2984 265.887 30.8436C264.981 30.6543 264.473 31.1672 263.81 32.1419C263.862 31.7202 263.958 31.311 263.939 30.8931H261.949Z" fill="white"/>
<defs>
<filter id="filter0_d_49_1517" x="15.2866" y="35.1914" width="93.7783" height="18.1846" filterUnits="userSpaceOnUse" color-interpolation-filters="sRGB">
<feFlood flood-opacity="0" result="BackgroundImageFix"/>
<feColorMatrix in="SourceAlpha" type="matrix" values="0 0 0 0 0 0 0 0 0 0 0 0 0 0 0 0 0 0 127 0" result="hardAlpha"/>
<feOffset dy="1"/>
<feGaussianBlur stdDeviation="1"/>
<feColorMatrix type="matrix" values="0 0 0 0 0.13037 0 0 0 0 0.146684 0 0 0 0 0.120836 0 0 0 1 0"/>
<feBlend mode="normal" in2="BackgroundImageFix" result="effect1_dropShadow_49_1517"/>
<feBlend mode="normal" in="SourceGraphic" in2="effect1_dropShadow_49_1517" result="shape"/>
</filter>
<filter id="filter1_d_49_1517" x="15.7002" y="90.1553" width="218.418" height="20.1064" filterUnits="userSpaceOnUse" color-interpolation-filters="sRGB">
<feFlood flood-opacity="0" result="BackgroundImageFix"/>
<feColorMatrix in="SourceAlpha" type="matrix" values="0 0 0 0 0 0 0 0 0 0 0 0 0 0 0 0 0 0 127 0" result="hardAlpha"/>
<feOffset dy="1"/>
<feGaussianBlur stdDeviation="1"/>
<feColorMatrix type="matrix" values="0 0 0 0 0.13037 0 0 0 0 0.146684 0 0 0 0 0.120836 0 0 0 1 0"/>
<feBlend mode="normal" in2="BackgroundImageFix" result="effect1_dropShadow_49_1517"/>
<feBlend mode="normal" in="SourceGraphic" in2="effect1_dropShadow_49_1517" result="shape"/>
</filter>
<filter id="filter2_d_49_1517" x="268.356" y="151.534" width="16.3989" height="13.0439" filterUnits="userSpaceOnUse" color-interpolation-filters="sRGB">
<feFlood flood-opacity="0" result="BackgroundImageFix"/>
<feColorMatrix in="SourceAlpha" type="matrix" values="0 0 0 0 0 0 0 0 0 0 0 0 0 0 0 0 0 0 127 0" result="hardAlpha"/>
<feOffset dy="1"/>
<feGaussianBlur stdDeviation="1"/>
<feColorMatrix type="matrix" values="0 0 0 0 0.13037 0 0 0 0 0.146684 0 0 0 0 0.120836 0 0 0 1 0"/>
<feBlend mode="normal" in2="BackgroundImageFix" result="effect1_dropShadow_49_1517"/>
<feBlend mode="normal" in="SourceGraphic" in2="effect1_dropShadow_49_1517" result="shape"/>
</filter>
<filter id="filter3_d_49_1517" x="14.2661" y="149.699" width="33.1348" height="16.1709" filterUnits="userSpaceOnUse" color-interpolation-filters="sRGB">
<feFlood flood-opacity="0" result="BackgroundImageFix"/>
<feColorMatrix in="SourceAlpha" type="matrix" values="0 0 0 0 0 0 0 0 0 0 0 0 0 0 0 0 0 0 127 0" result="hardAlpha"/>
<feOffset dy="1"/>
<feGaussianBlur stdDeviation="1"/>
<feColorMatrix type="matrix" values="0 0 0 0 0.13037 0 0 0 0 0.146684 0 0 0 0 0.120836 0 0 0 1 0"/>
<feBlend mode="normal" in2="BackgroundImageFix" result="effect1_dropShadow_49_1517"/>
<feBlend mode="normal" in="SourceGraphic" in2="effect1_dropShadow_49_1517" result="shape"/>
</filter>
<linearGradient id="paint0_linear_49_1517" x1="1.87884" y1="183.155" x2="310.794" y2="176.813" gradientUnits="userSpaceOnUse">
<stop stop-color="#414345"/>
<stop offset="1" stop-color="#232526"/>
</linearGradient>
<clipPath id="clip0_49_1517">
<rect width="309" height="184" fill="white"/>
</clipPath>
</defs>
</svg>
