<svg width="66" height="66" viewBox="0 0 66 66" fill="none" xmlns="http://www.w3.org/2000/svg">
<path d="M33 65C50.6731 65 65 50.6731 65 33C65 15.3269 50.6731 1 33 1C15.3269 1 1 15.3269 1 33C1 50.6731 15.3269 65 33 65Z" fill="#33907C" stroke="white"/>
<path d="M30.1988 21.5257H20.2002V17H45.8002V21.5257H35.8015V45.8H30.1988V21.5257Z" fill="white"/>
<path fill-rule="evenodd" clip-rule="evenodd" d="M56 55C60.9706 55 65 50.9706 65 46C65 41.0294 60.9706 37 56 37C51.0294 37 47 41.0294 47 46C47 50.9706 51.0294 55 56 55Z" fill="white"/>
</svg>
