<svg width="284" height="58" viewBox="0 0 284 58" fill="none" xmlns="http://www.w3.org/2000/svg">
<path opacity="0.7" d="M1.26 1.6H2.46V8.956H7.008V10H1.26V1.6ZM10.859 10.072C10.227 10.072 9.65897 9.932 9.15497 9.652C8.65097 9.372 8.25497 8.988 7.96697 8.5C7.68697 8.004 7.54697 7.444 7.54697 6.82C7.54697 6.196 7.68697 5.64 7.96697 5.152C8.25497 4.656 8.65097 4.272 9.15497 4C9.65897 3.72 10.227 3.58 10.859 3.58C11.491 3.58 12.055 3.72 12.551 4C13.055 4.272 13.447 4.656 13.727 5.152C14.015 5.64 14.159 6.196 14.159 6.82C14.159 7.444 14.015 8.004 13.727 8.5C13.447 8.988 13.055 9.372 12.551 9.652C12.055 9.932 11.491 10.072 10.859 10.072ZM10.859 9.064C11.267 9.064 11.631 8.972 11.951 8.788C12.279 8.596 12.535 8.332 12.719 7.996C12.903 7.652 12.995 7.26 12.995 6.82C12.995 6.38 12.903 5.992 12.719 5.656C12.535 5.312 12.279 5.048 11.951 4.864C11.631 4.68 11.267 4.588 10.859 4.588C10.451 4.588 10.083 4.68 9.75497 4.864C9.43497 5.048 9.17897 5.312 8.98697 5.656C8.80297 5.992 8.71097 6.38 8.71097 6.82C8.71097 7.26 8.80297 7.652 8.98697 7.996C9.17897 8.332 9.43497 8.596 9.75497 8.788C10.083 8.972 10.451 9.064 10.859 9.064ZM16.8562 4.708C17.0562 4.34 17.3522 4.06 17.7442 3.868C18.1362 3.676 18.6122 3.58 19.1722 3.58V4.696C19.1082 4.688 19.0202 4.684 18.9082 4.684C18.2842 4.684 17.7922 4.872 17.4322 5.248C17.0802 5.616 16.9042 6.144 16.9042 6.832V10H15.7522V3.64H16.8562V4.708ZM26.2814 6.856C26.2814 6.944 26.2734 7.06 26.2574 7.204H21.0974C21.1694 7.764 21.4134 8.216 21.8294 8.56C22.2534 8.896 22.7774 9.064 23.4014 9.064C24.1614 9.064 24.7734 8.808 25.2374 8.296L25.8734 9.04C25.5854 9.376 25.2254 9.632 24.7934 9.808C24.3694 9.984 23.8934 10.072 23.3654 10.072C22.6934 10.072 22.0974 9.936 21.5774 9.664C21.0574 9.384 20.6534 8.996 20.3654 8.5C20.0854 8.004 19.9454 7.444 19.9454 6.82C19.9454 6.204 20.0814 5.648 20.3534 5.152C20.6334 4.656 21.0134 4.272 21.4934 4C21.9814 3.72 22.5294 3.58 23.1374 3.58C23.7454 3.58 24.2854 3.72 24.7574 4C25.2374 4.272 25.6094 4.656 25.8734 5.152C26.1454 5.648 26.2814 6.216 26.2814 6.856ZM23.1374 4.552C22.5854 4.552 22.1214 4.72 21.7454 5.056C21.3774 5.392 21.1614 5.832 21.0974 6.376H25.1774C25.1134 5.84 24.8934 5.404 24.5174 5.068C24.1494 4.724 23.6894 4.552 23.1374 4.552ZM35.8371 3.58C36.6371 3.58 37.2691 3.812 37.7331 4.276C38.2051 4.74 38.4411 5.428 38.4411 6.34V10H37.2891V6.472C37.2891 5.856 37.1451 5.392 36.8571 5.08C36.5771 4.768 36.1731 4.612 35.6451 4.612C35.0611 4.612 34.5971 4.796 34.2531 5.164C33.9091 5.524 33.7371 6.044 33.7371 6.724V10H32.5851V6.472C32.5851 5.856 32.4411 5.392 32.1531 5.08C31.8731 4.768 31.4691 4.612 30.9411 4.612C30.3571 4.612 29.8931 4.796 29.5491 5.164C29.2051 5.524 29.0331 6.044 29.0331 6.724V10H27.8811V3.64H28.9851V4.588C29.2171 4.26 29.5211 4.012 29.8971 3.844C30.2731 3.668 30.7011 3.58 31.1811 3.58C31.6771 3.58 32.1171 3.68 32.5011 3.88C32.8851 4.08 33.1811 4.372 33.3891 4.756C33.6291 4.388 33.9611 4.1 34.3851 3.892C34.8171 3.684 35.3011 3.58 35.8371 3.58ZM43.7834 3.64H44.9354V10H43.7834V3.64ZM44.3594 2.416C44.1354 2.416 43.9474 2.344 43.7954 2.2C43.6514 2.056 43.5794 1.88 43.5794 1.672C43.5794 1.464 43.6514 1.288 43.7954 1.144C43.9474 0.992 44.1354 0.916 44.3594 0.916C44.5834 0.916 44.7674 0.988 44.9114 1.132C45.0634 1.268 45.1394 1.44 45.1394 1.648C45.1394 1.864 45.0634 2.048 44.9114 2.2C44.7674 2.344 44.5834 2.416 44.3594 2.416ZM50.507 3.58C51.123 3.58 51.675 3.716 52.163 3.988C52.651 4.26 53.031 4.64 53.303 5.128C53.583 5.616 53.723 6.18 53.723 6.82C53.723 7.46 53.583 8.028 53.303 8.524C53.031 9.012 52.651 9.392 52.163 9.664C51.675 9.936 51.123 10.072 50.507 10.072C50.051 10.072 49.631 9.984 49.247 9.808C48.871 9.632 48.551 9.376 48.287 9.04V12.328H47.135V3.64H48.239V4.648C48.495 4.296 48.819 4.032 49.211 3.856C49.603 3.672 50.035 3.58 50.507 3.58ZM50.411 9.064C50.819 9.064 51.183 8.972 51.503 8.788C51.831 8.596 52.087 8.332 52.271 7.996C52.463 7.652 52.559 7.26 52.559 6.82C52.559 6.38 52.463 5.992 52.271 5.656C52.087 5.312 51.831 5.048 51.503 4.864C51.183 4.68 50.819 4.588 50.411 4.588C50.011 4.588 49.647 4.684 49.319 4.876C48.999 5.06 48.743 5.32 48.551 5.656C48.367 5.992 48.275 6.38 48.275 6.82C48.275 7.26 48.367 7.652 48.551 7.996C48.735 8.332 48.991 8.596 49.319 8.788C49.647 8.972 50.011 9.064 50.411 9.064ZM57.1387 10.072C56.6187 10.072 56.1187 10.004 55.6387 9.868C55.1587 9.724 54.7827 9.544 54.5107 9.328L54.9907 8.416C55.2707 8.616 55.6107 8.776 56.0107 8.896C56.4107 9.016 56.8147 9.076 57.2227 9.076C58.2307 9.076 58.7347 8.788 58.7347 8.212C58.7347 8.02 58.6667 7.868 58.5307 7.756C58.3947 7.644 58.2227 7.564 58.0147 7.516C57.8147 7.46 57.5267 7.4 57.1507 7.336C56.6387 7.256 56.2187 7.164 55.8907 7.06C55.5707 6.956 55.2947 6.78 55.0627 6.532C54.8307 6.284 54.7147 5.936 54.7147 5.488C54.7147 4.912 54.9547 4.452 55.4347 4.108C55.9147 3.756 56.5587 3.58 57.3667 3.58C57.7907 3.58 58.2147 3.632 58.6387 3.736C59.0627 3.84 59.4107 3.98 59.6827 4.156L59.1907 5.068C58.6707 4.732 58.0587 4.564 57.3547 4.564C56.8667 4.564 56.4947 4.644 56.2387 4.804C55.9827 4.964 55.8547 5.176 55.8547 5.44C55.8547 5.648 55.9267 5.812 56.0707 5.932C56.2147 6.052 56.3907 6.14 56.5987 6.196C56.8147 6.252 57.1147 6.316 57.4987 6.388C58.0107 6.476 58.4227 6.572 58.7347 6.676C59.0547 6.772 59.3267 6.94 59.5507 7.18C59.7747 7.42 59.8867 7.756 59.8867 8.188C59.8867 8.764 59.6387 9.224 59.1427 9.568C58.6547 9.904 57.9867 10.072 57.1387 10.072ZM67.2544 3.64V10H66.1624V9.04C65.9304 9.368 65.6224 9.624 65.2384 9.808C64.8624 9.984 64.4504 10.072 64.0024 10.072C63.1544 10.072 62.4864 9.84 61.9984 9.376C61.5104 8.904 61.2664 8.212 61.2664 7.3V3.64H62.4184V7.168C62.4184 7.784 62.5664 8.252 62.8624 8.572C63.1584 8.884 63.5824 9.04 64.1344 9.04C64.7424 9.04 65.2224 8.856 65.5744 8.488C65.9264 8.12 66.1024 7.6 66.1024 6.928V3.64H67.2544ZM77.4035 3.58C78.2035 3.58 78.8355 3.812 79.2995 4.276C79.7715 4.74 80.0075 5.428 80.0075 6.34V10H78.8555V6.472C78.8555 5.856 78.7115 5.392 78.4235 5.08C78.1435 4.768 77.7395 4.612 77.2115 4.612C76.6275 4.612 76.1635 4.796 75.8195 5.164C75.4755 5.524 75.3035 6.044 75.3035 6.724V10H74.1515V6.472C74.1515 5.856 74.0075 5.392 73.7195 5.08C73.4395 4.768 73.0355 4.612 72.5075 4.612C71.9235 4.612 71.4595 4.796 71.1155 5.164C70.7715 5.524 70.5995 6.044 70.5995 6.724V10H69.4475V3.64H70.5515V4.588C70.7835 4.26 71.0875 4.012 71.4635 3.844C71.8395 3.668 72.2675 3.58 72.7475 3.58C73.2435 3.58 73.6835 3.68 74.0675 3.88C74.4515 4.08 74.7475 4.372 74.9555 4.756C75.1955 4.388 75.5275 4.1 75.9515 3.892C76.3835 3.684 76.8675 3.58 77.4035 3.58ZM91.3498 1.096V10H90.2458V8.992C89.9898 9.344 89.6658 9.612 89.2738 9.796C88.8818 9.98 88.4498 10.072 87.9778 10.072C87.3618 10.072 86.8098 9.936 86.3218 9.664C85.8338 9.392 85.4498 9.012 85.1698 8.524C84.8978 8.028 84.7618 7.46 84.7618 6.82C84.7618 6.18 84.8978 5.616 85.1698 5.128C85.4498 4.64 85.8338 4.26 86.3218 3.988C86.8098 3.716 87.3618 3.58 87.9778 3.58C88.4338 3.58 88.8538 3.668 89.2378 3.844C89.6218 4.012 89.9418 4.264 90.1978 4.6V1.096H91.3498ZM88.0738 9.064C88.4738 9.064 88.8378 8.972 89.1658 8.788C89.4938 8.596 89.7498 8.332 89.9338 7.996C90.1178 7.652 90.2098 7.26 90.2098 6.82C90.2098 6.38 90.1178 5.992 89.9338 5.656C89.7498 5.312 89.4938 5.048 89.1658 4.864C88.8378 4.68 88.4738 4.588 88.0738 4.588C87.6658 4.588 87.2978 4.68 86.9698 4.864C86.6498 5.048 86.3938 5.312 86.2018 5.656C86.0178 5.992 85.9258 6.38 85.9258 6.82C85.9258 7.26 86.0178 7.652 86.2018 7.996C86.3938 8.332 86.6498 8.596 86.9698 8.788C87.2978 8.972 87.6658 9.064 88.0738 9.064ZM96.2535 10.072C95.6215 10.072 95.0535 9.932 94.5495 9.652C94.0455 9.372 93.6495 8.988 93.3615 8.5C93.0815 8.004 92.9415 7.444 92.9415 6.82C92.9415 6.196 93.0815 5.64 93.3615 5.152C93.6495 4.656 94.0455 4.272 94.5495 4C95.0535 3.72 95.6215 3.58 96.2535 3.58C96.8855 3.58 97.4495 3.72 97.9455 4C98.4495 4.272 98.8415 4.656 99.1215 5.152C99.4095 5.64 99.5535 6.196 99.5535 6.82C99.5535 7.444 99.4095 8.004 99.1215 8.5C98.8415 8.988 98.4495 9.372 97.9455 9.652C97.4495 9.932 96.8855 10.072 96.2535 10.072ZM96.2535 9.064C96.6615 9.064 97.0255 8.972 97.3455 8.788C97.6735 8.596 97.9295 8.332 98.1135 7.996C98.2975 7.652 98.3895 7.26 98.3895 6.82C98.3895 6.38 98.2975 5.992 98.1135 5.656C97.9295 5.312 97.6735 5.048 97.3455 4.864C97.0255 4.68 96.6615 4.588 96.2535 4.588C95.8455 4.588 95.4775 4.68 95.1495 4.864C94.8295 5.048 94.5735 5.312 94.3815 5.656C94.1975 5.992 94.1055 6.38 94.1055 6.82C94.1055 7.26 94.1975 7.652 94.3815 7.996C94.5735 8.332 94.8295 8.596 95.1495 8.788C95.4775 8.972 95.8455 9.064 96.2535 9.064ZM101.147 1.096H102.299V10H101.147V1.096ZM107.222 10.072C106.59 10.072 106.022 9.932 105.518 9.652C105.014 9.372 104.618 8.988 104.33 8.5C104.05 8.004 103.91 7.444 103.91 6.82C103.91 6.196 104.05 5.64 104.33 5.152C104.618 4.656 105.014 4.272 105.518 4C106.022 3.72 106.59 3.58 107.222 3.58C107.854 3.58 108.418 3.72 108.914 4C109.418 4.272 109.81 4.656 110.09 5.152C110.378 5.64 110.522 6.196 110.522 6.82C110.522 7.444 110.378 8.004 110.09 8.5C109.81 8.988 109.418 9.372 108.914 9.652C108.418 9.932 107.854 10.072 107.222 10.072ZM107.222 9.064C107.63 9.064 107.994 8.972 108.314 8.788C108.642 8.596 108.898 8.332 109.082 7.996C109.266 7.652 109.358 7.26 109.358 6.82C109.358 6.38 109.266 5.992 109.082 5.656C108.898 5.312 108.642 5.048 108.314 4.864C107.994 4.68 107.63 4.588 107.222 4.588C106.814 4.588 106.446 4.68 106.118 4.864C105.798 5.048 105.542 5.312 105.35 5.656C105.166 5.992 105.074 6.38 105.074 6.82C105.074 7.26 105.166 7.652 105.35 7.996C105.542 8.332 105.798 8.596 106.118 8.788C106.446 8.972 106.814 9.064 107.222 9.064ZM113.219 4.708C113.419 4.34 113.715 4.06 114.107 3.868C114.499 3.676 114.975 3.58 115.535 3.58V4.696C115.471 4.688 115.383 4.684 115.271 4.684C114.647 4.684 114.155 4.872 113.795 5.248C113.443 5.616 113.267 6.144 113.267 6.832V10H112.115V3.64H113.219V4.708ZM122.084 10.072C121.564 10.072 121.064 10.004 120.584 9.868C120.104 9.724 119.728 9.544 119.456 9.328L119.936 8.416C120.216 8.616 120.556 8.776 120.956 8.896C121.356 9.016 121.76 9.076 122.168 9.076C123.176 9.076 123.68 8.788 123.68 8.212C123.68 8.02 123.612 7.868 123.476 7.756C123.34 7.644 123.168 7.564 122.96 7.516C122.76 7.46 122.472 7.4 122.096 7.336C121.584 7.256 121.164 7.164 120.836 7.06C120.516 6.956 120.24 6.78 120.008 6.532C119.776 6.284 119.66 5.936 119.66 5.488C119.66 4.912 119.9 4.452 120.38 4.108C120.86 3.756 121.504 3.58 122.312 3.58C122.736 3.58 123.16 3.632 123.584 3.736C124.008 3.84 124.356 3.98 124.628 4.156L124.136 5.068C123.616 4.732 123.004 4.564 122.3 4.564C121.812 4.564 121.44 4.644 121.184 4.804C120.928 4.964 120.8 5.176 120.8 5.44C120.8 5.648 120.872 5.812 121.016 5.932C121.16 6.052 121.336 6.14 121.544 6.196C121.76 6.252 122.06 6.316 122.444 6.388C122.956 6.476 123.368 6.572 123.68 6.676C124 6.772 124.272 6.94 124.496 7.18C124.72 7.42 124.832 7.756 124.832 8.188C124.832 8.764 124.584 9.224 124.088 9.568C123.6 9.904 122.932 10.072 122.084 10.072ZM126.272 3.64H127.424V10H126.272V3.64ZM126.848 2.416C126.624 2.416 126.436 2.344 126.284 2.2C126.14 2.056 126.068 1.88 126.068 1.672C126.068 1.464 126.14 1.288 126.284 1.144C126.436 0.992 126.624 0.916 126.848 0.916C127.072 0.916 127.256 0.988 127.4 1.132C127.552 1.268 127.628 1.44 127.628 1.648C127.628 1.864 127.552 2.048 127.4 2.2C127.256 2.344 127.072 2.416 126.848 2.416ZM133.199 9.628C133.031 9.772 132.823 9.884 132.575 9.964C132.327 10.036 132.071 10.072 131.807 10.072C131.167 10.072 130.671 9.9 130.319 9.556C129.967 9.212 129.791 8.72 129.791 8.08V4.588H128.711V3.64H129.791V2.248H130.943V3.64H132.767V4.588H130.943V8.032C130.943 8.376 131.027 8.64 131.195 8.824C131.371 9.008 131.619 9.1 131.939 9.1C132.291 9.1 132.591 9 132.839 8.8L133.199 9.628ZM140.131 3.58C141.011 3.58 141.683 3.796 142.147 4.228C142.619 4.66 142.855 5.304 142.855 6.16V10H141.763V9.16C141.571 9.456 141.295 9.684 140.935 9.844C140.583 9.996 140.163 10.072 139.675 10.072C138.963 10.072 138.391 9.9 137.959 9.556C137.535 9.212 137.323 8.76 137.323 8.2C137.323 7.64 137.527 7.192 137.935 6.856C138.343 6.512 138.991 6.34 139.879 6.34H141.703V6.112C141.703 5.616 141.559 5.236 141.271 4.972C140.983 4.708 140.559 4.576 139.999 4.576C139.623 4.576 139.255 4.64 138.895 4.768C138.535 4.888 138.231 5.052 137.983 5.26L137.503 4.396C137.831 4.132 138.223 3.932 138.679 3.796C139.135 3.652 139.619 3.58 140.131 3.58ZM139.867 9.184C140.307 9.184 140.687 9.088 141.007 8.896C141.327 8.696 141.559 8.416 141.703 8.056V7.168H139.927C138.951 7.168 138.463 7.496 138.463 8.152C138.463 8.472 138.587 8.724 138.835 8.908C139.083 9.092 139.427 9.184 139.867 9.184ZM152.943 3.58C153.743 3.58 154.375 3.812 154.839 4.276C155.311 4.74 155.547 5.428 155.547 6.34V10H154.395V6.472C154.395 5.856 154.251 5.392 153.963 5.08C153.683 4.768 153.279 4.612 152.751 4.612C152.167 4.612 151.703 4.796 151.359 5.164C151.015 5.524 150.843 6.044 150.843 6.724V10H149.691V6.472C149.691 5.856 149.547 5.392 149.259 5.08C148.979 4.768 148.575 4.612 148.047 4.612C147.463 4.612 146.999 4.796 146.655 5.164C146.311 5.524 146.139 6.044 146.139 6.724V10H144.987V3.64H146.091V4.588C146.323 4.26 146.627 4.012 147.003 3.844C147.379 3.668 147.807 3.58 148.287 3.58C148.783 3.58 149.223 3.68 149.607 3.88C149.991 4.08 150.287 4.372 150.495 4.756C150.735 4.388 151.067 4.1 151.491 3.892C151.923 3.684 152.407 3.58 152.943 3.58ZM163.449 6.856C163.449 6.944 163.441 7.06 163.425 7.204H158.265C158.337 7.764 158.581 8.216 158.997 8.56C159.421 8.896 159.945 9.064 160.569 9.064C161.329 9.064 161.941 8.808 162.405 8.296L163.041 9.04C162.753 9.376 162.393 9.632 161.961 9.808C161.537 9.984 161.061 10.072 160.533 10.072C159.861 10.072 159.265 9.936 158.745 9.664C158.225 9.384 157.821 8.996 157.533 8.5C157.253 8.004 157.113 7.444 157.113 6.82C157.113 6.204 157.249 5.648 157.521 5.152C157.801 4.656 158.181 4.272 158.661 4C159.149 3.72 159.697 3.58 160.305 3.58C160.913 3.58 161.453 3.72 161.925 4C162.405 4.272 162.777 4.656 163.041 5.152C163.313 5.648 163.449 6.216 163.449 6.856ZM160.305 4.552C159.753 4.552 159.289 4.72 158.913 5.056C158.545 5.392 158.329 5.832 158.265 6.376H162.345C162.281 5.84 162.061 5.404 161.685 5.068C161.317 4.724 160.857 4.552 160.305 4.552ZM168.625 9.628C168.457 9.772 168.249 9.884 168.001 9.964C167.753 10.036 167.497 10.072 167.233 10.072C166.593 10.072 166.097 9.9 165.745 9.556C165.393 9.212 165.217 8.72 165.217 8.08V4.588H164.137V3.64H165.217V2.248H166.369V3.64H168.193V4.588H166.369V8.032C166.369 8.376 166.453 8.64 166.621 8.824C166.797 9.008 167.045 9.1 167.365 9.1C167.717 9.1 168.017 9 168.265 8.8L168.625 9.628ZM170.423 8.428C170.647 8.428 170.831 8.508 170.975 8.668C171.127 8.82 171.203 9.012 171.203 9.244C171.203 9.364 171.187 9.48 171.155 9.592C171.131 9.704 171.079 9.876 170.999 10.108L170.435 11.776H169.679L170.123 9.988C169.971 9.932 169.847 9.84 169.751 9.712C169.663 9.576 169.619 9.42 169.619 9.244C169.619 9.004 169.695 8.808 169.847 8.656C169.999 8.504 170.191 8.428 170.423 8.428ZM178.848 10.072C178.2 10.072 177.62 9.932 177.108 9.652C176.604 9.372 176.208 8.988 175.92 8.5C175.632 8.004 175.488 7.444 175.488 6.82C175.488 6.196 175.632 5.64 175.92 5.152C176.208 4.656 176.604 4.272 177.108 4C177.62 3.72 178.2 3.58 178.848 3.58C179.424 3.58 179.936 3.696 180.384 3.928C180.84 4.16 181.192 4.496 181.44 4.936L180.564 5.5C180.364 5.196 180.116 4.968 179.82 4.816C179.524 4.664 179.196 4.588 178.836 4.588C178.42 4.588 178.044 4.68 177.708 4.864C177.38 5.048 177.12 5.312 176.928 5.656C176.744 5.992 176.652 6.38 176.652 6.82C176.652 7.268 176.744 7.664 176.928 8.008C177.12 8.344 177.38 8.604 177.708 8.788C178.044 8.972 178.42 9.064 178.836 9.064C179.196 9.064 179.524 8.988 179.82 8.836C180.116 8.684 180.364 8.456 180.564 8.152L181.44 8.704C181.192 9.144 180.84 9.484 180.384 9.724C179.936 9.956 179.424 10.072 178.848 10.072ZM185.562 10.072C184.93 10.072 184.362 9.932 183.858 9.652C183.354 9.372 182.958 8.988 182.67 8.5C182.39 8.004 182.25 7.444 182.25 6.82C182.25 6.196 182.39 5.64 182.67 5.152C182.958 4.656 183.354 4.272 183.858 4C184.362 3.72 184.93 3.58 185.562 3.58C186.194 3.58 186.758 3.72 187.254 4C187.758 4.272 188.15 4.656 188.43 5.152C188.718 5.64 188.862 6.196 188.862 6.82C188.862 7.444 188.718 8.004 188.43 8.5C188.15 8.988 187.758 9.372 187.254 9.652C186.758 9.932 186.194 10.072 185.562 10.072ZM185.562 9.064C185.97 9.064 186.334 8.972 186.654 8.788C186.982 8.596 187.238 8.332 187.422 7.996C187.606 7.652 187.698 7.26 187.698 6.82C187.698 6.38 187.606 5.992 187.422 5.656C187.238 5.312 186.982 5.048 186.654 4.864C186.334 4.68 185.97 4.588 185.562 4.588C185.154 4.588 184.786 4.68 184.458 4.864C184.138 5.048 183.882 5.312 183.69 5.656C183.506 5.992 183.414 6.38 183.414 6.82C183.414 7.26 183.506 7.652 183.69 7.996C183.882 8.332 184.138 8.596 184.458 8.788C184.786 8.972 185.154 9.064 185.562 9.064ZM193.851 3.58C194.659 3.58 195.299 3.816 195.771 4.288C196.251 4.752 196.491 5.436 196.491 6.34V10H195.339V6.472C195.339 5.856 195.191 5.392 194.895 5.08C194.599 4.768 194.175 4.612 193.623 4.612C192.999 4.612 192.507 4.796 192.147 5.164C191.787 5.524 191.607 6.044 191.607 6.724V10H190.455V3.64H191.559V4.6C191.791 4.272 192.103 4.02 192.495 3.844C192.895 3.668 193.347 3.58 193.851 3.58ZM200.447 10.072C199.927 10.072 199.427 10.004 198.947 9.868C198.467 9.724 198.091 9.544 197.819 9.328L198.299 8.416C198.579 8.616 198.919 8.776 199.319 8.896C199.719 9.016 200.123 9.076 200.531 9.076C201.539 9.076 202.043 8.788 202.043 8.212C202.043 8.02 201.975 7.868 201.839 7.756C201.703 7.644 201.531 7.564 201.323 7.516C201.123 7.46 200.835 7.4 200.459 7.336C199.947 7.256 199.527 7.164 199.199 7.06C198.879 6.956 198.603 6.78 198.371 6.532C198.139 6.284 198.023 5.936 198.023 5.488C198.023 4.912 198.263 4.452 198.743 4.108C199.223 3.756 199.867 3.58 200.675 3.58C201.099 3.58 201.523 3.632 201.947 3.736C202.371 3.84 202.719 3.98 202.991 4.156L202.499 5.068C201.979 4.732 201.367 4.564 200.663 4.564C200.175 4.564 199.803 4.644 199.547 4.804C199.291 4.964 199.163 5.176 199.163 5.44C199.163 5.648 199.235 5.812 199.379 5.932C199.523 6.052 199.699 6.14 199.907 6.196C200.123 6.252 200.423 6.316 200.807 6.388C201.319 6.476 201.731 6.572 202.043 6.676C202.363 6.772 202.635 6.94 202.859 7.18C203.083 7.42 203.195 7.756 203.195 8.188C203.195 8.764 202.947 9.224 202.451 9.568C201.963 9.904 201.295 10.072 200.447 10.072ZM210.383 6.856C210.383 6.944 210.375 7.06 210.359 7.204H205.199C205.271 7.764 205.515 8.216 205.931 8.56C206.355 8.896 206.879 9.064 207.503 9.064C208.263 9.064 208.875 8.808 209.339 8.296L209.975 9.04C209.687 9.376 209.327 9.632 208.895 9.808C208.471 9.984 207.995 10.072 207.467 10.072C206.795 10.072 206.199 9.936 205.679 9.664C205.159 9.384 204.755 8.996 204.467 8.5C204.187 8.004 204.047 7.444 204.047 6.82C204.047 6.204 204.183 5.648 204.455 5.152C204.735 4.656 205.115 4.272 205.595 4C206.083 3.72 206.631 3.58 207.239 3.58C207.847 3.58 208.387 3.72 208.859 4C209.339 4.272 209.711 4.656 209.975 5.152C210.247 5.648 210.383 6.216 210.383 6.856ZM207.239 4.552C206.687 4.552 206.223 4.72 205.847 5.056C205.479 5.392 205.263 5.832 205.199 6.376H209.279C209.215 5.84 208.995 5.404 208.619 5.068C208.251 4.724 207.791 4.552 207.239 4.552ZM214.755 10.072C214.107 10.072 213.527 9.932 213.015 9.652C212.511 9.372 212.115 8.988 211.827 8.5C211.539 8.004 211.395 7.444 211.395 6.82C211.395 6.196 211.539 5.64 211.827 5.152C212.115 4.656 212.511 4.272 213.015 4C213.527 3.72 214.107 3.58 214.755 3.58C215.331 3.58 215.843 3.696 216.291 3.928C216.747 4.16 217.099 4.496 217.347 4.936L216.471 5.5C216.271 5.196 216.023 4.968 215.727 4.816C215.431 4.664 215.103 4.588 214.743 4.588C214.327 4.588 213.951 4.68 213.615 4.864C213.287 5.048 213.027 5.312 212.835 5.656C212.651 5.992 212.559 6.38 212.559 6.82C212.559 7.268 212.651 7.664 212.835 8.008C213.027 8.344 213.287 8.604 213.615 8.788C213.951 8.972 214.327 9.064 214.743 9.064C215.103 9.064 215.431 8.988 215.727 8.836C216.023 8.684 216.271 8.456 216.471 8.152L217.347 8.704C217.099 9.144 216.747 9.484 216.291 9.724C215.843 9.956 215.331 10.072 214.755 10.072ZM222.496 9.628C222.328 9.772 222.12 9.884 221.872 9.964C221.624 10.036 221.368 10.072 221.104 10.072C220.464 10.072 219.968 9.9 219.616 9.556C219.264 9.212 219.088 8.72 219.088 8.08V4.588H218.008V3.64H219.088V2.248H220.24V3.64H222.064V4.588H220.24V8.032C220.24 8.376 220.324 8.64 220.492 8.824C220.668 9.008 220.916 9.1 221.236 9.1C221.588 9.1 221.888 9 222.136 8.8L222.496 9.628ZM229.426 6.856C229.426 6.944 229.418 7.06 229.402 7.204H224.242C224.314 7.764 224.558 8.216 224.974 8.56C225.398 8.896 225.922 9.064 226.546 9.064C227.306 9.064 227.918 8.808 228.382 8.296L229.018 9.04C228.73 9.376 228.37 9.632 227.938 9.808C227.514 9.984 227.038 10.072 226.51 10.072C225.838 10.072 225.242 9.936 224.722 9.664C224.202 9.384 223.798 8.996 223.51 8.5C223.23 8.004 223.09 7.444 223.09 6.82C223.09 6.204 223.226 5.648 223.498 5.152C223.778 4.656 224.158 4.272 224.638 4C225.126 3.72 225.674 3.58 226.282 3.58C226.89 3.58 227.43 3.72 227.902 4C228.382 4.272 228.754 4.656 229.018 5.152C229.29 5.648 229.426 6.216 229.426 6.856ZM226.282 4.552C225.73 4.552 225.266 4.72 224.89 5.056C224.522 5.392 224.306 5.832 224.242 6.376H228.322C228.258 5.84 228.038 5.404 227.662 5.068C227.294 4.724 226.834 4.552 226.282 4.552ZM234.602 9.628C234.434 9.772 234.226 9.884 233.978 9.964C233.73 10.036 233.474 10.072 233.21 10.072C232.57 10.072 232.074 9.9 231.722 9.556C231.37 9.212 231.194 8.72 231.194 8.08V4.588H230.114V3.64H231.194V2.248H232.346V3.64H234.17V4.588H232.346V8.032C232.346 8.376 232.43 8.64 232.598 8.824C232.774 9.008 233.022 9.1 233.342 9.1C233.694 9.1 233.994 9 234.242 8.8L234.602 9.628ZM241.922 3.64V10H240.83V9.04C240.598 9.368 240.29 9.624 239.906 9.808C239.53 9.984 239.118 10.072 238.67 10.072C237.822 10.072 237.154 9.84 236.666 9.376C236.178 8.904 235.934 8.212 235.934 7.3V3.64H237.086V7.168C237.086 7.784 237.234 8.252 237.53 8.572C237.826 8.884 238.25 9.04 238.802 9.04C239.41 9.04 239.89 8.856 240.242 8.488C240.594 8.12 240.77 7.6 240.77 6.928V3.64H241.922ZM245.219 4.708C245.419 4.34 245.715 4.06 246.107 3.868C246.499 3.676 246.975 3.58 247.535 3.58V4.696C247.471 4.688 247.383 4.684 247.271 4.684C246.647 4.684 246.155 4.872 245.795 5.248C245.443 5.616 245.267 6.144 245.267 6.832V10H244.115V3.64H245.219V4.708ZM3.408 18.58C4.288 18.58 4.96 18.796 5.424 19.228C5.896 19.66 6.132 20.304 6.132 21.16V25H5.04V24.16C4.848 24.456 4.572 24.684 4.212 24.844C3.86 24.996 3.44 25.072 2.952 25.072C2.24 25.072 1.668 24.9 1.236 24.556C0.812 24.212 0.6 23.76 0.6 23.2C0.6 22.64 0.804 22.192 1.212 21.856C1.62 21.512 2.268 21.34 3.156 21.34H4.98V21.112C4.98 20.616 4.836 20.236 4.548 19.972C4.26 19.708 3.836 19.576 3.276 19.576C2.9 19.576 2.532 19.64 2.172 19.768C1.812 19.888 1.508 20.052 1.26 20.26L0.78 19.396C1.108 19.132 1.5 18.932 1.956 18.796C2.412 18.652 2.896 18.58 3.408 18.58ZM3.144 24.184C3.584 24.184 3.964 24.088 4.284 23.896C4.604 23.696 4.836 23.416 4.98 23.056V22.168H3.204C2.228 22.168 1.74 22.496 1.74 23.152C1.74 23.472 1.864 23.724 2.112 23.908C2.36 24.092 2.704 24.184 3.144 24.184ZM14.299 16.096V25H13.195V23.992C12.939 24.344 12.615 24.612 12.223 24.796C11.831 24.98 11.399 25.072 10.927 25.072C10.311 25.072 9.75903 24.936 9.27103 24.664C8.78303 24.392 8.39903 24.012 8.11903 23.524C7.84703 23.028 7.71103 22.46 7.71103 21.82C7.71103 21.18 7.84703 20.616 8.11903 20.128C8.39903 19.64 8.78303 19.26 9.27103 18.988C9.75903 18.716 10.311 18.58 10.927 18.58C11.383 18.58 11.803 18.668 12.187 18.844C12.571 19.012 12.891 19.264 13.147 19.6V16.096H14.299ZM11.023 24.064C11.423 24.064 11.787 23.972 12.115 23.788C12.443 23.596 12.699 23.332 12.883 22.996C13.067 22.652 13.159 22.26 13.159 21.82C13.159 21.38 13.067 20.992 12.883 20.656C12.699 20.312 12.443 20.048 12.115 19.864C11.787 19.68 11.423 19.588 11.023 19.588C10.615 19.588 10.247 19.68 9.91903 19.864C9.59903 20.048 9.34303 20.312 9.15103 20.656C8.96703 20.992 8.87503 21.38 8.87503 21.82C8.87503 22.26 8.96703 22.652 9.15103 22.996C9.34303 23.332 9.59903 23.596 9.91903 23.788C10.247 23.972 10.615 24.064 11.023 24.064ZM16.4787 18.64H17.6307V25H16.4787V18.64ZM17.0547 17.416C16.8307 17.416 16.6427 17.344 16.4907 17.2C16.3467 17.056 16.2747 16.88 16.2747 16.672C16.2747 16.464 16.3467 16.288 16.4907 16.144C16.6427 15.992 16.8307 15.916 17.0547 15.916C17.2787 15.916 17.4627 15.988 17.6067 16.132C17.7587 16.268 17.8347 16.44 17.8347 16.648C17.8347 16.864 17.7587 17.048 17.6067 17.2C17.4627 17.344 17.2787 17.416 17.0547 17.416ZM23.2023 18.58C23.8183 18.58 24.3703 18.716 24.8583 18.988C25.3463 19.26 25.7263 19.64 25.9983 20.128C26.2783 20.616 26.4183 21.18 26.4183 21.82C26.4183 22.46 26.2783 23.028 25.9983 23.524C25.7263 24.012 25.3463 24.392 24.8583 24.664C24.3703 24.936 23.8183 25.072 23.2023 25.072C22.7463 25.072 22.3263 24.984 21.9423 24.808C21.5663 24.632 21.2463 24.376 20.9823 24.04V27.328H19.8303V18.64H20.9343V19.648C21.1903 19.296 21.5143 19.032 21.9063 18.856C22.2983 18.672 22.7303 18.58 23.2023 18.58ZM23.1063 24.064C23.5143 24.064 23.8783 23.972 24.1983 23.788C24.5263 23.596 24.7823 23.332 24.9663 22.996C25.1583 22.652 25.2543 22.26 25.2543 21.82C25.2543 21.38 25.1583 20.992 24.9663 20.656C24.7823 20.312 24.5263 20.048 24.1983 19.864C23.8783 19.68 23.5143 19.588 23.1063 19.588C22.7063 19.588 22.3423 19.684 22.0143 19.876C21.6943 20.06 21.4383 20.32 21.2463 20.656C21.0623 20.992 20.9703 21.38 20.9703 21.82C20.9703 22.26 21.0623 22.652 21.2463 22.996C21.4303 23.332 21.6863 23.596 22.0143 23.788C22.3423 23.972 22.7063 24.064 23.1063 24.064ZM28.01 18.64H29.162V25H28.01V18.64ZM28.586 17.416C28.362 17.416 28.174 17.344 28.022 17.2C27.878 17.056 27.806 16.88 27.806 16.672C27.806 16.464 27.878 16.288 28.022 16.144C28.174 15.992 28.362 15.916 28.586 15.916C28.81 15.916 28.994 15.988 29.138 16.132C29.29 16.268 29.366 16.44 29.366 16.648C29.366 16.864 29.29 17.048 29.138 17.2C28.994 17.344 28.81 17.416 28.586 17.416ZM33.1855 25.072C32.6655 25.072 32.1655 25.004 31.6855 24.868C31.2055 24.724 30.8295 24.544 30.5575 24.328L31.0375 23.416C31.3175 23.616 31.6575 23.776 32.0575 23.896C32.4575 24.016 32.8615 24.076 33.2695 24.076C34.2775 24.076 34.7815 23.788 34.7815 23.212C34.7815 23.02 34.7135 22.868 34.5775 22.756C34.4415 22.644 34.2695 22.564 34.0615 22.516C33.8615 22.46 33.5735 22.4 33.1975 22.336C32.6855 22.256 32.2655 22.164 31.9375 22.06C31.6175 21.956 31.3415 21.78 31.1095 21.532C30.8775 21.284 30.7615 20.936 30.7615 20.488C30.7615 19.912 31.0015 19.452 31.4815 19.108C31.9615 18.756 32.6055 18.58 33.4135 18.58C33.8375 18.58 34.2615 18.632 34.6855 18.736C35.1095 18.84 35.4575 18.98 35.7295 19.156L35.2375 20.068C34.7175 19.732 34.1055 19.564 33.4015 19.564C32.9135 19.564 32.5415 19.644 32.2855 19.804C32.0295 19.964 31.9015 20.176 31.9015 20.44C31.9015 20.648 31.9735 20.812 32.1175 20.932C32.2615 21.052 32.4375 21.14 32.6455 21.196C32.8615 21.252 33.1615 21.316 33.5455 21.388C34.0575 21.476 34.4695 21.572 34.7815 21.676C35.1015 21.772 35.3735 21.94 35.5975 22.18C35.8215 22.42 35.9335 22.756 35.9335 23.188C35.9335 23.764 35.6855 24.224 35.1895 24.568C34.7015 24.904 34.0335 25.072 33.1855 25.072ZM40.1453 25.072C39.4973 25.072 38.9173 24.932 38.4053 24.652C37.9013 24.372 37.5053 23.988 37.2173 23.5C36.9293 23.004 36.7853 22.444 36.7853 21.82C36.7853 21.196 36.9293 20.64 37.2173 20.152C37.5053 19.656 37.9013 19.272 38.4053 19C38.9173 18.72 39.4973 18.58 40.1453 18.58C40.7213 18.58 41.2333 18.696 41.6813 18.928C42.1373 19.16 42.4893 19.496 42.7373 19.936L41.8613 20.5C41.6613 20.196 41.4133 19.968 41.1173 19.816C40.8213 19.664 40.4933 19.588 40.1333 19.588C39.7173 19.588 39.3413 19.68 39.0053 19.864C38.6773 20.048 38.4173 20.312 38.2253 20.656C38.0413 20.992 37.9493 21.38 37.9493 21.82C37.9493 22.268 38.0413 22.664 38.2253 23.008C38.4173 23.344 38.6773 23.604 39.0053 23.788C39.3413 23.972 39.7173 24.064 40.1333 24.064C40.4933 24.064 40.8213 23.988 41.1173 23.836C41.4133 23.684 41.6613 23.456 41.8613 23.152L42.7373 23.704C42.4893 24.144 42.1373 24.484 41.6813 24.724C41.2333 24.956 40.7213 25.072 40.1453 25.072ZM44.2287 18.64H45.3807V25H44.2287V18.64ZM44.8047 17.416C44.5807 17.416 44.3927 17.344 44.2407 17.2C44.0967 17.056 44.0247 16.88 44.0247 16.672C44.0247 16.464 44.0967 16.288 44.2407 16.144C44.3927 15.992 44.5807 15.916 44.8047 15.916C45.0287 15.916 45.2127 15.988 45.3567 16.132C45.5087 16.268 45.5847 16.44 45.5847 16.648C45.5847 16.864 45.5087 17.048 45.3567 17.2C45.2127 17.344 45.0287 17.416 44.8047 17.416ZM50.9763 18.58C51.7843 18.58 52.4243 18.816 52.8963 19.288C53.3763 19.752 53.6163 20.436 53.6163 21.34V25H52.4643V21.472C52.4643 20.856 52.3163 20.392 52.0203 20.08C51.7243 19.768 51.3003 19.612 50.7483 19.612C50.1243 19.612 49.6323 19.796 49.2723 20.164C48.9123 20.524 48.7323 21.044 48.7323 21.724V25H47.5803V18.64H48.6843V19.6C48.9163 19.272 49.2283 19.02 49.6203 18.844C50.0203 18.668 50.4723 18.58 50.9763 18.58ZM61.8674 18.64V24.136C61.8674 25.248 61.5914 26.068 61.0394 26.596C60.4874 27.132 59.6634 27.4 58.5674 27.4C57.9674 27.4 57.3954 27.316 56.8514 27.148C56.3074 26.988 55.8674 26.756 55.5314 26.452L56.0834 25.564C56.3794 25.82 56.7434 26.02 57.1754 26.164C57.6154 26.316 58.0674 26.392 58.5314 26.392C59.2754 26.392 59.8234 26.216 60.1754 25.864C60.5354 25.512 60.7154 24.976 60.7154 24.256V23.752C60.4434 24.08 60.1074 24.328 59.7074 24.496C59.3154 24.656 58.8874 24.736 58.4234 24.736C57.8154 24.736 57.2634 24.608 56.7674 24.352C56.2794 24.088 55.8954 23.724 55.6154 23.26C55.3354 22.788 55.1954 22.252 55.1954 21.652C55.1954 21.052 55.3354 20.52 55.6154 20.056C55.8954 19.584 56.2794 19.22 56.7674 18.964C57.2634 18.708 57.8154 18.58 58.4234 18.58C58.9034 18.58 59.3474 18.668 59.7554 18.844C60.1714 19.02 60.5114 19.28 60.7754 19.624V18.64H61.8674ZM58.5554 23.728C58.9714 23.728 59.3434 23.64 59.6714 23.464C60.0074 23.288 60.2674 23.044 60.4514 22.732C60.6434 22.412 60.7394 22.052 60.7394 21.652C60.7394 21.036 60.5354 20.54 60.1274 20.164C59.7194 19.78 59.1954 19.588 58.5554 19.588C57.9074 19.588 57.3794 19.78 56.9714 20.164C56.5634 20.54 56.3594 21.036 56.3594 21.652C56.3594 22.052 56.4514 22.412 56.6354 22.732C56.8274 23.044 57.0874 23.288 57.4154 23.464C57.7514 23.64 58.1314 23.728 58.5554 23.728ZM73.0392 21.856C73.0392 21.944 73.0312 22.06 73.0152 22.204H67.8552C67.9272 22.764 68.1712 23.216 68.5872 23.56C69.0112 23.896 69.5352 24.064 70.1592 24.064C70.9192 24.064 71.5312 23.808 71.9952 23.296L72.6312 24.04C72.3432 24.376 71.9832 24.632 71.5512 24.808C71.1272 24.984 70.6512 25.072 70.1232 25.072C69.4512 25.072 68.8552 24.936 68.3352 24.664C67.8152 24.384 67.4112 23.996 67.1232 23.5C66.8432 23.004 66.7032 22.444 66.7032 21.82C66.7032 21.204 66.8392 20.648 67.1112 20.152C67.3912 19.656 67.7712 19.272 68.2512 19C68.7392 18.72 69.2872 18.58 69.8952 18.58C70.5032 18.58 71.0432 18.72 71.5152 19C71.9952 19.272 72.3672 19.656 72.6312 20.152C72.9032 20.648 73.0392 21.216 73.0392 21.856ZM69.8952 19.552C69.3432 19.552 68.8792 19.72 68.5032 20.056C68.1352 20.392 67.9192 20.832 67.8552 21.376H71.9352C71.8712 20.84 71.6512 20.404 71.2752 20.068C70.9072 19.724 70.4472 19.552 69.8952 19.552ZM74.6389 16.096H75.7909V25H74.6389V16.096ZM77.9904 18.64H79.1424V25H77.9904V18.64ZM78.5664 17.416C78.3424 17.416 78.1544 17.344 78.0024 17.2C77.8584 17.056 77.7864 16.88 77.7864 16.672C77.7864 16.464 77.8584 16.288 78.0024 16.144C78.1544 15.992 78.3424 15.916 78.5664 15.916C78.7904 15.916 78.9744 15.988 79.1184 16.132C79.2704 16.268 79.3464 16.44 79.3464 16.648C79.3464 16.864 79.2704 17.048 79.1184 17.2C78.9744 17.344 78.7904 17.416 78.5664 17.416ZM84.918 24.628C84.75 24.772 84.542 24.884 84.294 24.964C84.046 25.036 83.79 25.072 83.526 25.072C82.886 25.072 82.39 24.9 82.038 24.556C81.686 24.212 81.51 23.72 81.51 23.08V19.588H80.43V18.64H81.51V17.248H82.662V18.64H84.486V19.588H82.662V23.032C82.662 23.376 82.746 23.64 82.914 23.824C83.09 24.008 83.338 24.1 83.658 24.1C84.01 24.1 84.31 24 84.558 23.8L84.918 24.628ZM86.7039 25.072C86.4799 25.072 86.2879 24.996 86.1279 24.844C85.9679 24.684 85.8879 24.484 85.8879 24.244C85.8879 24.012 85.9679 23.82 86.1279 23.668C86.2879 23.508 86.4799 23.428 86.7039 23.428C86.9279 23.428 87.1159 23.504 87.2679 23.656C87.4199 23.808 87.4959 24.004 87.4959 24.244C87.4959 24.484 87.4159 24.684 87.2559 24.844C87.1039 24.996 86.9199 25.072 86.7039 25.072ZM92.5373 16.6H93.7373V25H92.5373V16.6ZM99.4802 18.58C100.288 18.58 100.928 18.816 101.4 19.288C101.88 19.752 102.12 20.436 102.12 21.34V25H100.968V21.472C100.968 20.856 100.82 20.392 100.524 20.08C100.228 19.768 99.8042 19.612 99.2522 19.612C98.6282 19.612 98.1362 19.796 97.7762 20.164C97.4162 20.524 97.2362 21.044 97.2362 21.724V25H96.0842V18.64H97.1882V19.6C97.4202 19.272 97.7322 19.02 98.1242 18.844C98.5242 18.668 98.9762 18.58 99.4802 18.58ZM109.791 18.58C110.671 18.58 111.343 18.796 111.807 19.228C112.279 19.66 112.515 20.304 112.515 21.16V25H111.423V24.16C111.231 24.456 110.955 24.684 110.595 24.844C110.243 24.996 109.823 25.072 109.335 25.072C108.623 25.072 108.051 24.9 107.619 24.556C107.195 24.212 106.983 23.76 106.983 23.2C106.983 22.64 107.187 22.192 107.595 21.856C108.003 21.512 108.651 21.34 109.539 21.34H111.363V21.112C111.363 20.616 111.219 20.236 110.931 19.972C110.643 19.708 110.219 19.576 109.659 19.576C109.283 19.576 108.915 19.64 108.555 19.768C108.195 19.888 107.891 20.052 107.643 20.26L107.163 19.396C107.491 19.132 107.883 18.932 108.339 18.796C108.795 18.652 109.279 18.58 109.791 18.58ZM109.527 24.184C109.967 24.184 110.347 24.088 110.667 23.896C110.987 23.696 111.219 23.416 111.363 23.056V22.168H109.587C108.611 22.168 108.123 22.496 108.123 23.152C108.123 23.472 108.247 23.724 108.495 23.908C108.743 24.092 109.087 24.184 109.527 24.184ZM120.575 18.64V25H119.483V24.04C119.251 24.368 118.943 24.624 118.559 24.808C118.183 24.984 117.771 25.072 117.323 25.072C116.475 25.072 115.807 24.84 115.319 24.376C114.831 23.904 114.587 23.212 114.587 22.3V18.64H115.739V22.168C115.739 22.784 115.887 23.252 116.183 23.572C116.479 23.884 116.903 24.04 117.455 24.04C118.063 24.04 118.543 23.856 118.895 23.488C119.247 23.12 119.423 22.6 119.423 21.928V18.64H120.575ZM128.852 18.64V24.136C128.852 25.248 128.576 26.068 128.024 26.596C127.472 27.132 126.648 27.4 125.552 27.4C124.952 27.4 124.38 27.316 123.836 27.148C123.292 26.988 122.852 26.756 122.516 26.452L123.068 25.564C123.364 25.82 123.728 26.02 124.16 26.164C124.6 26.316 125.052 26.392 125.516 26.392C126.26 26.392 126.808 26.216 127.16 25.864C127.52 25.512 127.7 24.976 127.7 24.256V23.752C127.428 24.08 127.092 24.328 126.692 24.496C126.3 24.656 125.872 24.736 125.408 24.736C124.8 24.736 124.248 24.608 123.752 24.352C123.264 24.088 122.88 23.724 122.6 23.26C122.32 22.788 122.18 22.252 122.18 21.652C122.18 21.052 122.32 20.52 122.6 20.056C122.88 19.584 123.264 19.22 123.752 18.964C124.248 18.708 124.8 18.58 125.408 18.58C125.888 18.58 126.332 18.668 126.74 18.844C127.156 19.02 127.496 19.28 127.76 19.624V18.64H128.852ZM125.54 23.728C125.956 23.728 126.328 23.64 126.656 23.464C126.992 23.288 127.252 23.044 127.436 22.732C127.628 22.412 127.724 22.052 127.724 21.652C127.724 21.036 127.52 20.54 127.112 20.164C126.704 19.78 126.18 19.588 125.54 19.588C124.892 19.588 124.364 19.78 123.956 20.164C123.548 20.54 123.344 21.036 123.344 21.652C123.344 22.052 123.436 22.412 123.62 22.732C123.812 23.044 124.072 23.288 124.4 23.464C124.736 23.64 125.116 23.728 125.54 23.728ZM136.981 18.64V25H135.889V24.04C135.657 24.368 135.349 24.624 134.965 24.808C134.589 24.984 134.177 25.072 133.729 25.072C132.881 25.072 132.213 24.84 131.725 24.376C131.237 23.904 130.993 23.212 130.993 22.3V18.64H132.145V22.168C132.145 22.784 132.293 23.252 132.589 23.572C132.885 23.884 133.309 24.04 133.861 24.04C134.469 24.04 134.949 23.856 135.301 23.488C135.653 23.12 135.829 22.6 135.829 21.928V18.64H136.981ZM144.922 21.856C144.922 21.944 144.914 22.06 144.898 22.204H139.738C139.81 22.764 140.054 23.216 140.47 23.56C140.894 23.896 141.418 24.064 142.042 24.064C142.802 24.064 143.414 23.808 143.878 23.296L144.514 24.04C144.226 24.376 143.866 24.632 143.434 24.808C143.01 24.984 142.534 25.072 142.006 25.072C141.334 25.072 140.738 24.936 140.218 24.664C139.698 24.384 139.294 23.996 139.006 23.5C138.726 23.004 138.586 22.444 138.586 21.82C138.586 21.204 138.722 20.648 138.994 20.152C139.274 19.656 139.654 19.272 140.134 19C140.622 18.72 141.17 18.58 141.778 18.58C142.386 18.58 142.926 18.72 143.398 19C143.878 19.272 144.25 19.656 144.514 20.152C144.786 20.648 144.922 21.216 144.922 21.856ZM141.778 19.552C141.226 19.552 140.762 19.72 140.386 20.056C140.018 20.392 139.802 20.832 139.738 21.376H143.818C143.754 20.84 143.534 20.404 143.158 20.068C142.79 19.724 142.33 19.552 141.778 19.552ZM153.14 18.58C153.948 18.58 154.588 18.816 155.06 19.288C155.54 19.752 155.78 20.436 155.78 21.34V25H154.628V21.472C154.628 20.856 154.48 20.392 154.184 20.08C153.888 19.768 153.464 19.612 152.912 19.612C152.288 19.612 151.796 19.796 151.436 20.164C151.076 20.524 150.896 21.044 150.896 21.724V25H149.744V18.64H150.848V19.6C151.08 19.272 151.392 19.02 151.784 18.844C152.184 18.668 152.636 18.58 153.14 18.58ZM163.84 18.64V25H162.748V24.04C162.516 24.368 162.208 24.624 161.824 24.808C161.448 24.984 161.036 25.072 160.588 25.072C159.74 25.072 159.072 24.84 158.584 24.376C158.096 23.904 157.852 23.212 157.852 22.3V18.64H159.004V22.168C159.004 22.784 159.152 23.252 159.448 23.572C159.744 23.884 160.168 24.04 160.72 24.04C161.328 24.04 161.808 23.856 162.16 23.488C162.512 23.12 162.688 22.6 162.688 21.928V18.64H163.84ZM169.429 18.58C170.237 18.58 170.877 18.816 171.349 19.288C171.829 19.752 172.069 20.436 172.069 21.34V25H170.917V21.472C170.917 20.856 170.769 20.392 170.473 20.08C170.177 19.768 169.753 19.612 169.201 19.612C168.577 19.612 168.085 19.796 167.725 20.164C167.365 20.524 167.185 21.044 167.185 21.724V25H166.033V18.64H167.137V19.6C167.369 19.272 167.681 19.02 168.073 18.844C168.473 18.668 168.925 18.58 169.429 18.58ZM177.009 25.072C176.361 25.072 175.781 24.932 175.269 24.652C174.765 24.372 174.369 23.988 174.081 23.5C173.793 23.004 173.649 22.444 173.649 21.82C173.649 21.196 173.793 20.64 174.081 20.152C174.369 19.656 174.765 19.272 175.269 19C175.781 18.72 176.361 18.58 177.009 18.58C177.585 18.58 178.097 18.696 178.545 18.928C179.001 19.16 179.353 19.496 179.601 19.936L178.725 20.5C178.525 20.196 178.277 19.968 177.981 19.816C177.685 19.664 177.357 19.588 176.997 19.588C176.581 19.588 176.205 19.68 175.869 19.864C175.541 20.048 175.281 20.312 175.089 20.656C174.905 20.992 174.813 21.38 174.813 21.82C174.813 22.268 174.905 22.664 175.089 23.008C175.281 23.344 175.541 23.604 175.869 23.788C176.205 23.972 176.581 24.064 176.997 24.064C177.357 24.064 177.685 23.988 177.981 23.836C178.277 23.684 178.525 23.456 178.725 23.152L179.601 23.704C179.353 24.144 179.001 24.484 178.545 24.724C178.097 24.956 177.585 25.072 177.009 25.072ZM189.943 18.64L187.159 25H185.983L183.199 18.64H184.399L186.583 23.74L188.815 18.64H189.943ZM196.59 21.856C196.59 21.944 196.582 22.06 196.566 22.204H191.406C191.478 22.764 191.722 23.216 192.138 23.56C192.562 23.896 193.086 24.064 193.71 24.064C194.47 24.064 195.082 23.808 195.546 23.296L196.182 24.04C195.894 24.376 195.534 24.632 195.102 24.808C194.678 24.984 194.202 25.072 193.674 25.072C193.002 25.072 192.406 24.936 191.886 24.664C191.366 24.384 190.962 23.996 190.674 23.5C190.394 23.004 190.254 22.444 190.254 21.82C190.254 21.204 190.39 20.648 190.662 20.152C190.942 19.656 191.322 19.272 191.802 19C192.29 18.72 192.838 18.58 193.446 18.58C194.054 18.58 194.594 18.72 195.066 19C195.546 19.272 195.918 19.656 196.182 20.152C196.454 20.648 196.59 21.216 196.59 21.856ZM193.446 19.552C192.894 19.552 192.43 19.72 192.054 20.056C191.686 20.392 191.47 20.832 191.406 21.376H195.486C195.422 20.84 195.202 20.404 194.826 20.068C194.458 19.724 193.998 19.552 193.446 19.552ZM198.19 16.096H199.342V25H198.19V16.096ZM205.868 19.708C206.068 19.34 206.364 19.06 206.756 18.868C207.148 18.676 207.624 18.58 208.184 18.58V19.696C208.12 19.688 208.032 19.684 207.92 19.684C207.296 19.684 206.804 19.872 206.444 20.248C206.092 20.616 205.916 21.144 205.916 21.832V25H204.764V18.64H205.868V19.708ZM213 18.58C213.808 18.58 214.448 18.816 214.92 19.288C215.4 19.752 215.64 20.436 215.64 21.34V25H214.488V21.472C214.488 20.856 214.34 20.392 214.044 20.08C213.748 19.768 213.324 19.612 212.772 19.612C212.148 19.612 211.656 19.796 211.296 20.164C210.936 20.524 210.756 21.044 210.756 21.724V25H209.604V16.096H210.756V19.54C210.996 19.236 211.308 19 211.692 18.832C212.084 18.664 212.52 18.58 213 18.58ZM220.531 25.072C219.899 25.072 219.331 24.932 218.827 24.652C218.323 24.372 217.927 23.988 217.639 23.5C217.359 23.004 217.219 22.444 217.219 21.82C217.219 21.196 217.359 20.64 217.639 20.152C217.927 19.656 218.323 19.272 218.827 19C219.331 18.72 219.899 18.58 220.531 18.58C221.163 18.58 221.727 18.72 222.223 19C222.727 19.272 223.119 19.656 223.399 20.152C223.687 20.64 223.831 21.196 223.831 21.82C223.831 22.444 223.687 23.004 223.399 23.5C223.119 23.988 222.727 24.372 222.223 24.652C221.727 24.932 221.163 25.072 220.531 25.072ZM220.531 24.064C220.939 24.064 221.303 23.972 221.623 23.788C221.951 23.596 222.207 23.332 222.391 22.996C222.575 22.652 222.667 22.26 222.667 21.82C222.667 21.38 222.575 20.992 222.391 20.656C222.207 20.312 221.951 20.048 221.623 19.864C221.303 19.68 220.939 19.588 220.531 19.588C220.123 19.588 219.755 19.68 219.427 19.864C219.107 20.048 218.851 20.312 218.659 20.656C218.475 20.992 218.383 21.38 218.383 21.82C218.383 22.26 218.475 22.652 218.659 22.996C218.851 23.332 219.107 23.596 219.427 23.788C219.755 23.972 220.123 24.064 220.531 24.064ZM228.82 18.58C229.628 18.58 230.268 18.816 230.74 19.288C231.22 19.752 231.46 20.436 231.46 21.34V25H230.308V21.472C230.308 20.856 230.16 20.392 229.864 20.08C229.568 19.768 229.144 19.612 228.592 19.612C227.968 19.612 227.476 19.796 227.116 20.164C226.756 20.524 226.576 21.044 226.576 21.724V25H225.424V18.64H226.528V19.6C226.76 19.272 227.072 19.02 227.464 18.844C227.864 18.668 228.316 18.58 228.82 18.58ZM236.399 25.072C235.751 25.072 235.171 24.932 234.659 24.652C234.155 24.372 233.759 23.988 233.471 23.5C233.183 23.004 233.039 22.444 233.039 21.82C233.039 21.196 233.183 20.64 233.471 20.152C233.759 19.656 234.155 19.272 234.659 19C235.171 18.72 235.751 18.58 236.399 18.58C236.975 18.58 237.487 18.696 237.935 18.928C238.391 19.16 238.743 19.496 238.991 19.936L238.115 20.5C237.915 20.196 237.667 19.968 237.371 19.816C237.075 19.664 236.747 19.588 236.387 19.588C235.971 19.588 235.595 19.68 235.259 19.864C234.931 20.048 234.671 20.312 234.479 20.656C234.295 20.992 234.203 21.38 234.203 21.82C234.203 22.268 234.295 22.664 234.479 23.008C234.671 23.344 234.931 23.604 235.259 23.788C235.595 23.972 235.971 24.064 236.387 24.064C236.747 24.064 237.075 23.988 237.371 23.836C237.667 23.684 237.915 23.456 238.115 23.152L238.991 23.704C238.743 24.144 238.391 24.484 237.935 24.724C237.487 24.956 236.975 25.072 236.399 25.072ZM246.411 18.64V25H245.319V24.04C245.087 24.368 244.779 24.624 244.395 24.808C244.019 24.984 243.607 25.072 243.159 25.072C242.311 25.072 241.643 24.84 241.155 24.376C240.667 23.904 240.423 23.212 240.423 22.3V18.64H241.575V22.168C241.575 22.784 241.723 23.252 242.019 23.572C242.315 23.884 242.739 24.04 243.291 24.04C243.899 24.04 244.379 23.856 244.731 23.488C245.083 23.12 245.259 22.6 245.259 21.928V18.64H246.411ZM250.428 25.072C249.908 25.072 249.408 25.004 248.928 24.868C248.448 24.724 248.072 24.544 247.8 24.328L248.28 23.416C248.56 23.616 248.9 23.776 249.3 23.896C249.7 24.016 250.104 24.076 250.512 24.076C251.52 24.076 252.024 23.788 252.024 23.212C252.024 23.02 251.956 22.868 251.82 22.756C251.684 22.644 251.512 22.564 251.304 22.516C251.104 22.46 250.816 22.4 250.44 22.336C249.928 22.256 249.508 22.164 249.18 22.06C248.86 21.956 248.584 21.78 248.352 21.532C248.12 21.284 248.004 20.936 248.004 20.488C248.004 19.912 248.244 19.452 248.724 19.108C249.204 18.756 249.848 18.58 250.656 18.58C251.08 18.58 251.504 18.632 251.928 18.736C252.352 18.84 252.7 18.98 252.972 19.156L252.48 20.068C251.96 19.732 251.348 19.564 250.644 19.564C250.156 19.564 249.784 19.644 249.528 19.804C249.272 19.964 249.144 20.176 249.144 20.44C249.144 20.648 249.216 20.812 249.36 20.932C249.504 21.052 249.68 21.14 249.888 21.196C250.104 21.252 250.404 21.316 250.788 21.388C251.3 21.476 251.712 21.572 252.024 21.676C252.344 21.772 252.616 21.94 252.84 22.18C253.064 22.42 253.176 22.756 253.176 23.188C253.176 23.764 252.928 24.224 252.432 24.568C251.944 24.904 251.276 25.072 250.428 25.072ZM254.903 23.428C255.127 23.428 255.311 23.508 255.455 23.668C255.607 23.82 255.683 24.012 255.683 24.244C255.683 24.364 255.667 24.48 255.635 24.592C255.611 24.704 255.559 24.876 255.479 25.108L254.915 26.776H254.159L254.603 24.988C254.451 24.932 254.327 24.84 254.231 24.712C254.143 24.576 254.099 24.42 254.099 24.244C254.099 24.004 254.175 23.808 254.327 23.656C254.479 23.504 254.671 23.428 254.903 23.428ZM262.381 25.072C261.861 25.072 261.361 25.004 260.881 24.868C260.401 24.724 260.025 24.544 259.753 24.328L260.233 23.416C260.513 23.616 260.853 23.776 261.253 23.896C261.653 24.016 262.057 24.076 262.465 24.076C263.473 24.076 263.977 23.788 263.977 23.212C263.977 23.02 263.909 22.868 263.773 22.756C263.637 22.644 263.465 22.564 263.257 22.516C263.057 22.46 262.769 22.4 262.393 22.336C261.881 22.256 261.461 22.164 261.133 22.06C260.813 21.956 260.537 21.78 260.305 21.532C260.073 21.284 259.957 20.936 259.957 20.488C259.957 19.912 260.197 19.452 260.677 19.108C261.157 18.756 261.801 18.58 262.609 18.58C263.033 18.58 263.457 18.632 263.881 18.736C264.305 18.84 264.653 18.98 264.925 19.156L264.433 20.068C263.913 19.732 263.301 19.564 262.597 19.564C262.109 19.564 261.737 19.644 261.481 19.804C261.225 19.964 261.097 20.176 261.097 20.44C261.097 20.648 261.169 20.812 261.313 20.932C261.457 21.052 261.633 21.14 261.841 21.196C262.057 21.252 262.357 21.316 262.741 21.388C263.253 21.476 263.665 21.572 263.977 21.676C264.297 21.772 264.569 21.94 264.793 22.18C265.017 22.42 265.129 22.756 265.129 23.188C265.129 23.764 264.881 24.224 264.385 24.568C263.897 24.904 263.229 25.072 262.381 25.072ZM272.317 21.856C272.317 21.944 272.309 22.06 272.293 22.204H267.133C267.205 22.764 267.449 23.216 267.865 23.56C268.289 23.896 268.813 24.064 269.437 24.064C270.197 24.064 270.809 23.808 271.273 23.296L271.909 24.04C271.621 24.376 271.261 24.632 270.829 24.808C270.405 24.984 269.929 25.072 269.401 25.072C268.729 25.072 268.133 24.936 267.613 24.664C267.093 24.384 266.689 23.996 266.401 23.5C266.121 23.004 265.981 22.444 265.981 21.82C265.981 21.204 266.117 20.648 266.389 20.152C266.669 19.656 267.049 19.272 267.529 19C268.017 18.72 268.565 18.58 269.173 18.58C269.781 18.58 270.321 18.72 270.793 19C271.273 19.272 271.645 19.656 271.909 20.152C272.181 20.648 272.317 21.216 272.317 21.856ZM269.173 19.552C268.621 19.552 268.157 19.72 267.781 20.056C267.413 20.392 267.197 20.832 267.133 21.376H271.213C271.149 20.84 270.929 20.404 270.553 20.068C270.185 19.724 269.725 19.552 269.173 19.552ZM279.916 16.096V25H278.812V23.992C278.556 24.344 278.232 24.612 277.84 24.796C277.448 24.98 277.016 25.072 276.544 25.072C275.928 25.072 275.376 24.936 274.888 24.664C274.4 24.392 274.016 24.012 273.736 23.524C273.464 23.028 273.328 22.46 273.328 21.82C273.328 21.18 273.464 20.616 273.736 20.128C274.016 19.64 274.4 19.26 274.888 18.988C275.376 18.716 275.928 18.58 276.544 18.58C277 18.58 277.42 18.668 277.804 18.844C278.188 19.012 278.508 19.264 278.764 19.6V16.096H279.916ZM276.64 24.064C277.04 24.064 277.404 23.972 277.732 23.788C278.06 23.596 278.316 23.332 278.5 22.996C278.684 22.652 278.776 22.26 278.776 21.82C278.776 21.38 278.684 20.992 278.5 20.656C278.316 20.312 278.06 20.048 277.732 19.864C277.404 19.68 277.04 19.588 276.64 19.588C276.232 19.588 275.864 19.68 275.536 19.864C275.216 20.048 274.96 20.312 274.768 20.656C274.584 20.992 274.492 21.38 274.492 21.82C274.492 22.26 274.584 22.652 274.768 22.996C274.96 23.332 275.216 23.596 275.536 23.788C275.864 23.972 276.232 24.064 276.64 24.064ZM282.372 25.072C282.148 25.072 281.956 24.996 281.796 24.844C281.636 24.684 281.556 24.484 281.556 24.244C281.556 24.012 281.636 23.82 281.796 23.668C281.956 23.508 282.148 23.428 282.372 23.428C282.596 23.428 282.784 23.504 282.936 23.656C283.088 23.808 283.164 24.004 283.164 24.244C283.164 24.484 283.084 24.684 282.924 24.844C282.772 24.996 282.588 25.072 282.372 25.072ZM8.484 31.6V40H7.5L2.46 33.736V40H1.26V31.6H2.244L7.284 37.864V31.6H8.484ZM16.5783 36.856C16.5783 36.944 16.5703 37.06 16.5543 37.204H11.3943C11.4663 37.764 11.7103 38.216 12.1263 38.56C12.5503 38.896 13.0743 39.064 13.6983 39.064C14.4583 39.064 15.0703 38.808 15.5343 38.296L16.1703 39.04C15.8823 39.376 15.5223 39.632 15.0903 39.808C14.6663 39.984 14.1903 40.072 13.6623 40.072C12.9903 40.072 12.3943 39.936 11.8743 39.664C11.3543 39.384 10.9503 38.996 10.6623 38.5C10.3823 38.004 10.2423 37.444 10.2423 36.82C10.2423 36.204 10.3783 35.648 10.6503 35.152C10.9303 34.656 11.3103 34.272 11.7903 34C12.2783 33.72 12.8263 33.58 13.4343 33.58C14.0423 33.58 14.5823 33.72 15.0543 34C15.5343 34.272 15.9063 34.656 16.1703 35.152C16.4423 35.648 16.5783 36.216 16.5783 36.856ZM13.4343 34.552C12.8823 34.552 12.4183 34.72 12.0423 35.056C11.6743 35.392 11.4583 35.832 11.3943 36.376H15.4743C15.4103 35.84 15.1903 35.404 14.8143 35.068C14.4463 34.724 13.9863 34.552 13.4343 34.552ZM24.1779 33.64V42.328H23.0259V39.04C22.7619 39.376 22.4379 39.632 22.0539 39.808C21.6779 39.984 21.2619 40.072 20.8059 40.072C20.1899 40.072 19.6379 39.936 19.1499 39.664C18.6619 39.392 18.2779 39.012 17.9979 38.524C17.7259 38.028 17.5899 37.46 17.5899 36.82C17.5899 36.18 17.7259 35.616 17.9979 35.128C18.2779 34.64 18.6619 34.26 19.1499 33.988C19.6379 33.716 20.1899 33.58 20.8059 33.58C21.2779 33.58 21.7099 33.672 22.1019 33.856C22.4939 34.032 22.8179 34.296 23.0739 34.648V33.64H24.1779ZM20.9019 39.064C21.3019 39.064 21.6659 38.972 21.9939 38.788C22.3219 38.596 22.5779 38.332 22.7619 37.996C22.9459 37.652 23.0379 37.26 23.0379 36.82C23.0379 36.38 22.9419 35.992 22.7499 35.656C22.5659 35.32 22.3099 35.06 21.9819 34.876C21.6619 34.684 21.3019 34.588 20.9019 34.588C20.4939 34.588 20.1259 34.68 19.7979 34.864C19.4779 35.048 19.2219 35.312 19.0299 35.656C18.8459 35.992 18.7539 36.38 18.7539 36.82C18.7539 37.26 18.8459 37.652 19.0299 37.996C19.2219 38.332 19.4779 38.596 19.7979 38.788C20.1259 38.972 20.4939 39.064 20.9019 39.064ZM32.2856 33.64V40H31.1936V39.04C30.9616 39.368 30.6536 39.624 30.2696 39.808C29.8936 39.984 29.4816 40.072 29.0336 40.072C28.1856 40.072 27.5176 39.84 27.0296 39.376C26.5416 38.904 26.2976 38.212 26.2976 37.3V33.64H27.4496V37.168C27.4496 37.784 27.5976 38.252 27.8936 38.572C28.1896 38.884 28.6136 39.04 29.1656 39.04C29.7736 39.04 30.2536 38.856 30.6056 38.488C30.9576 38.12 31.1336 37.6 31.1336 36.928V33.64H32.2856ZM40.2267 36.856C40.2267 36.944 40.2187 37.06 40.2027 37.204H35.0427C35.1147 37.764 35.3587 38.216 35.7747 38.56C36.1987 38.896 36.7227 39.064 37.3467 39.064C38.1067 39.064 38.7187 38.808 39.1827 38.296L39.8187 39.04C39.5307 39.376 39.1707 39.632 38.7387 39.808C38.3147 39.984 37.8387 40.072 37.3107 40.072C36.6387 40.072 36.0427 39.936 35.5227 39.664C35.0027 39.384 34.5987 38.996 34.3107 38.5C34.0307 38.004 33.8907 37.444 33.8907 36.82C33.8907 36.204 34.0267 35.648 34.2987 35.152C34.5787 34.656 34.9587 34.272 35.4387 34C35.9267 33.72 36.4747 33.58 37.0827 33.58C37.6907 33.58 38.2307 33.72 38.7027 34C39.1827 34.272 39.5547 34.656 39.8187 35.152C40.0907 35.648 40.2267 36.216 40.2267 36.856ZM37.0827 34.552C36.5307 34.552 36.0667 34.72 35.6907 35.056C35.3227 35.392 35.1067 35.832 35.0427 36.376H39.1227C39.0587 35.84 38.8387 35.404 38.4627 35.068C38.0947 34.724 37.6347 34.552 37.0827 34.552ZM48.445 33.58C49.253 33.58 49.893 33.816 50.365 34.288C50.845 34.752 51.085 35.436 51.085 36.34V40H49.933V36.472C49.933 35.856 49.785 35.392 49.489 35.08C49.193 34.768 48.769 34.612 48.217 34.612C47.593 34.612 47.101 34.796 46.741 35.164C46.381 35.524 46.201 36.044 46.201 36.724V40H45.049V31.096H46.201V34.54C46.441 34.236 46.753 34 47.137 33.832C47.529 33.664 47.965 33.58 48.445 33.58ZM59.0002 36.856C59.0002 36.944 58.9922 37.06 58.9762 37.204H53.8162C53.8882 37.764 54.1322 38.216 54.5482 38.56C54.9722 38.896 55.4962 39.064 56.1202 39.064C56.8802 39.064 57.4922 38.808 57.9562 38.296L58.5922 39.04C58.3042 39.376 57.9442 39.632 57.5122 39.808C57.0882 39.984 56.6122 40.072 56.0842 40.072C55.4122 40.072 54.8162 39.936 54.2962 39.664C53.7762 39.384 53.3722 38.996 53.0842 38.5C52.8042 38.004 52.6642 37.444 52.6642 36.82C52.6642 36.204 52.8002 35.648 53.0722 35.152C53.3522 34.656 53.7322 34.272 54.2122 34C54.7002 33.72 55.2482 33.58 55.8562 33.58C56.4642 33.58 57.0042 33.72 57.4762 34C57.9562 34.272 58.3282 34.656 58.5922 35.152C58.8642 35.648 59.0002 36.216 59.0002 36.856ZM55.8562 34.552C55.3042 34.552 54.8402 34.72 54.4642 35.056C54.0962 35.392 53.8802 35.832 53.8162 36.376H57.8962C57.8322 35.84 57.6122 35.404 57.2362 35.068C56.8682 34.724 56.4082 34.552 55.8562 34.552ZM63.9958 33.58C64.8038 33.58 65.4438 33.816 65.9158 34.288C66.3958 34.752 66.6358 35.436 66.6358 36.34V40H65.4838V36.472C65.4838 35.856 65.3358 35.392 65.0398 35.08C64.7438 34.768 64.3198 34.612 63.7678 34.612C63.1438 34.612 62.6518 34.796 62.2918 35.164C61.9318 35.524 61.7518 36.044 61.7518 36.724V40H60.5998V33.64H61.7038V34.6C61.9358 34.272 62.2478 34.02 62.6398 33.844C63.0398 33.668 63.4918 33.58 63.9958 33.58ZM74.8029 31.096V40H73.6989V38.992C73.4429 39.344 73.1189 39.612 72.7269 39.796C72.3349 39.98 71.9029 40.072 71.4309 40.072C70.8149 40.072 70.2629 39.936 69.7749 39.664C69.2869 39.392 68.9029 39.012 68.6229 38.524C68.3509 38.028 68.2149 37.46 68.2149 36.82C68.2149 36.18 68.3509 35.616 68.6229 35.128C68.9029 34.64 69.2869 34.26 69.7749 33.988C70.2629 33.716 70.8149 33.58 71.4309 33.58C71.8869 33.58 72.3069 33.668 72.6909 33.844C73.0749 34.012 73.3949 34.264 73.6509 34.6V31.096H74.8029ZM71.5269 39.064C71.9269 39.064 72.2909 38.972 72.6189 38.788C72.9469 38.596 73.2029 38.332 73.3869 37.996C73.5709 37.652 73.6629 37.26 73.6629 36.82C73.6629 36.38 73.5709 35.992 73.3869 35.656C73.2029 35.312 72.9469 35.048 72.6189 34.864C72.2909 34.68 71.9269 34.588 71.5269 34.588C71.1189 34.588 70.7509 34.68 70.4229 34.864C70.1029 35.048 69.8469 35.312 69.6549 35.656C69.4709 35.992 69.3789 36.38 69.3789 36.82C69.3789 37.26 69.4709 37.652 69.6549 37.996C69.8469 38.332 70.1029 38.596 70.4229 38.788C70.7509 38.972 71.1189 39.064 71.5269 39.064ZM78.0866 34.708C78.2866 34.34 78.5826 34.06 78.9746 33.868C79.3666 33.676 79.8426 33.58 80.4026 33.58V34.696C80.3386 34.688 80.2506 34.684 80.1386 34.684C79.5146 34.684 79.0226 34.872 78.6626 35.248C78.3106 35.616 78.1346 36.144 78.1346 36.832V40H76.9826V33.64H78.0866V34.708ZM87.5119 36.856C87.5119 36.944 87.5039 37.06 87.4879 37.204H82.3279C82.3999 37.764 82.6439 38.216 83.0599 38.56C83.4839 38.896 84.0079 39.064 84.6319 39.064C85.3919 39.064 86.0039 38.808 86.4679 38.296L87.1039 39.04C86.8159 39.376 86.4559 39.632 86.0239 39.808C85.5999 39.984 85.1239 40.072 84.5959 40.072C83.9239 40.072 83.3279 39.936 82.8079 39.664C82.2879 39.384 81.8839 38.996 81.5959 38.5C81.3159 38.004 81.1759 37.444 81.1759 36.82C81.1759 36.204 81.3119 35.648 81.5839 35.152C81.8639 34.656 82.2439 34.272 82.7239 34C83.2119 33.72 83.7599 33.58 84.3679 33.58C84.9759 33.58 85.5159 33.72 85.9879 34C86.4679 34.272 86.8399 34.656 87.1039 35.152C87.3759 35.648 87.5119 36.216 87.5119 36.856ZM84.3679 34.552C83.8159 34.552 83.3519 34.72 82.9759 35.056C82.6079 35.392 82.3919 35.832 82.3279 36.376H86.4079C86.3439 35.84 86.1239 35.404 85.7479 35.068C85.3799 34.724 84.9199 34.552 84.3679 34.552ZM90.2155 34.708C90.4155 34.34 90.7115 34.06 91.1035 33.868C91.4955 33.676 91.9715 33.58 92.5315 33.58V34.696C92.4675 34.688 92.3795 34.684 92.2675 34.684C91.6435 34.684 91.1515 34.872 90.7915 35.248C90.4395 35.616 90.2635 36.144 90.2635 36.832V40H89.1115V33.64H90.2155V34.708ZM93.9514 33.64H95.1034V40H93.9514V33.64ZM94.5274 32.416C94.3034 32.416 94.1154 32.344 93.9634 32.2C93.8194 32.056 93.7474 31.88 93.7474 31.672C93.7474 31.464 93.8194 31.288 93.9634 31.144C94.1154 30.992 94.3034 30.916 94.5274 30.916C94.7514 30.916 94.9354 30.988 95.0794 31.132C95.2314 31.268 95.3074 31.44 95.3074 31.648C95.3074 31.864 95.2314 32.048 95.0794 32.2C94.9354 32.344 94.7514 32.416 94.5274 32.416ZM100.879 39.628C100.711 39.772 100.503 39.884 100.255 39.964C100.007 40.036 99.7509 40.072 99.4869 40.072C98.8469 40.072 98.3509 39.9 97.9989 39.556C97.6469 39.212 97.4709 38.72 97.4709 38.08V34.588H96.3909V33.64H97.4709V32.248H98.6229V33.64H100.447V34.588H98.6229V38.032C98.6229 38.376 98.7069 38.64 98.8749 38.824C99.0509 39.008 99.2989 39.1 99.6189 39.1C99.9709 39.1 100.271 39 100.519 38.8L100.879 39.628ZM106.598 34.708C106.798 34.34 107.094 34.06 107.486 33.868C107.878 33.676 108.354 33.58 108.914 33.58V34.696C108.85 34.688 108.762 34.684 108.65 34.684C108.026 34.684 107.534 34.872 107.174 35.248C106.822 35.616 106.646 36.144 106.646 36.832V40H105.494V33.64H106.598V34.708ZM110.334 33.64H111.486V40H110.334V33.64ZM110.91 32.416C110.686 32.416 110.498 32.344 110.346 32.2C110.202 32.056 110.13 31.88 110.13 31.672C110.13 31.464 110.202 31.288 110.346 31.144C110.498 30.992 110.686 30.916 110.91 30.916C111.134 30.916 111.318 30.988 111.462 31.132C111.614 31.268 111.69 31.44 111.69 31.648C111.69 31.864 111.614 32.048 111.462 32.2C111.318 32.344 111.134 32.416 110.91 32.416ZM115.51 40.072C114.99 40.072 114.49 40.004 114.01 39.868C113.53 39.724 113.154 39.544 112.882 39.328L113.362 38.416C113.642 38.616 113.982 38.776 114.382 38.896C114.782 39.016 115.186 39.076 115.594 39.076C116.602 39.076 117.106 38.788 117.106 38.212C117.106 38.02 117.038 37.868 116.902 37.756C116.766 37.644 116.594 37.564 116.386 37.516C116.186 37.46 115.898 37.4 115.522 37.336C115.01 37.256 114.59 37.164 114.262 37.06C113.942 36.956 113.666 36.78 113.434 36.532C113.202 36.284 113.086 35.936 113.086 35.488C113.086 34.912 113.326 34.452 113.806 34.108C114.286 33.756 114.93 33.58 115.738 33.58C116.162 33.58 116.586 33.632 117.01 33.736C117.434 33.84 117.782 33.98 118.054 34.156L117.562 35.068C117.042 34.732 116.43 34.564 115.726 34.564C115.238 34.564 114.866 34.644 114.61 34.804C114.354 34.964 114.226 35.176 114.226 35.44C114.226 35.648 114.298 35.812 114.442 35.932C114.586 36.052 114.762 36.14 114.97 36.196C115.186 36.252 115.486 36.316 115.87 36.388C116.382 36.476 116.794 36.572 117.106 36.676C117.426 36.772 117.698 36.94 117.922 37.18C118.146 37.42 118.258 37.756 118.258 38.188C118.258 38.764 118.01 39.224 117.514 39.568C117.026 39.904 116.358 40.072 115.51 40.072ZM125.625 33.64V40H124.533V39.04C124.301 39.368 123.993 39.624 123.609 39.808C123.233 39.984 122.821 40.072 122.373 40.072C121.525 40.072 120.857 39.84 120.369 39.376C119.881 38.904 119.637 38.212 119.637 37.3V33.64H120.789V37.168C120.789 37.784 120.937 38.252 121.233 38.572C121.529 38.884 121.953 39.04 122.505 39.04C123.113 39.04 123.593 38.856 123.945 38.488C124.297 38.12 124.473 37.6 124.473 36.928V33.64H125.625ZM129.643 40.072C129.123 40.072 128.623 40.004 128.143 39.868C127.663 39.724 127.287 39.544 127.015 39.328L127.495 38.416C127.775 38.616 128.115 38.776 128.515 38.896C128.915 39.016 129.319 39.076 129.727 39.076C130.735 39.076 131.239 38.788 131.239 38.212C131.239 38.02 131.171 37.868 131.035 37.756C130.899 37.644 130.727 37.564 130.519 37.516C130.319 37.46 130.031 37.4 129.655 37.336C129.143 37.256 128.723 37.164 128.395 37.06C128.075 36.956 127.799 36.78 127.567 36.532C127.335 36.284 127.219 35.936 127.219 35.488C127.219 34.912 127.459 34.452 127.939 34.108C128.419 33.756 129.063 33.58 129.871 33.58C130.295 33.58 130.719 33.632 131.143 33.736C131.567 33.84 131.915 33.98 132.187 34.156L131.695 35.068C131.175 34.732 130.563 34.564 129.859 34.564C129.371 34.564 128.999 34.644 128.743 34.804C128.487 34.964 128.359 35.176 128.359 35.44C128.359 35.648 128.431 35.812 128.575 35.932C128.719 36.052 128.895 36.14 129.103 36.196C129.319 36.252 129.619 36.316 130.003 36.388C130.515 36.476 130.927 36.572 131.239 36.676C131.559 36.772 131.831 36.94 132.055 37.18C132.279 37.42 132.391 37.756 132.391 38.188C132.391 38.764 132.143 39.224 131.647 39.568C131.159 39.904 130.491 40.072 129.643 40.072ZM142.981 33.64V40H141.889V39.04C141.657 39.368 141.349 39.624 140.965 39.808C140.589 39.984 140.177 40.072 139.729 40.072C138.881 40.072 138.213 39.84 137.725 39.376C137.237 38.904 136.993 38.212 136.993 37.3V33.64H138.145V37.168C138.145 37.784 138.293 38.252 138.589 38.572C138.885 38.884 139.309 39.04 139.861 39.04C140.469 39.04 140.949 38.856 141.301 38.488C141.653 38.12 141.829 37.6 141.829 36.928V33.64H142.981ZM148.75 39.628C148.582 39.772 148.374 39.884 148.126 39.964C147.878 40.036 147.622 40.072 147.358 40.072C146.718 40.072 146.222 39.9 145.87 39.556C145.518 39.212 145.342 38.72 145.342 38.08V34.588H144.262V33.64H145.342V32.248H146.494V33.64H148.318V34.588H146.494V38.032C146.494 38.376 146.578 38.64 146.746 38.824C146.922 39.008 147.17 39.1 147.49 39.1C147.842 39.1 148.142 39 148.39 38.8L148.75 39.628ZM161.321 33.58C162.121 33.58 162.753 33.812 163.217 34.276C163.689 34.74 163.925 35.428 163.925 36.34V40H162.773V36.472C162.773 35.856 162.629 35.392 162.341 35.08C162.061 34.768 161.657 34.612 161.129 34.612C160.545 34.612 160.081 34.796 159.737 35.164C159.393 35.524 159.221 36.044 159.221 36.724V40H158.069V36.472C158.069 35.856 157.925 35.392 157.637 35.08C157.357 34.768 156.953 34.612 156.425 34.612C155.841 34.612 155.377 34.796 155.033 35.164C154.689 35.524 154.517 36.044 154.517 36.724V40H153.365V33.64H154.469V34.588C154.701 34.26 155.005 34.012 155.381 33.844C155.757 33.668 156.185 33.58 156.665 33.58C157.161 33.58 157.601 33.68 157.985 33.88C158.369 34.08 158.665 34.372 158.873 34.756C159.113 34.388 159.445 34.1 159.869 33.892C160.301 33.684 160.785 33.58 161.321 33.58ZM171.828 36.856C171.828 36.944 171.82 37.06 171.804 37.204H166.644C166.716 37.764 166.96 38.216 167.376 38.56C167.8 38.896 168.324 39.064 168.948 39.064C169.708 39.064 170.32 38.808 170.784 38.296L171.42 39.04C171.132 39.376 170.772 39.632 170.34 39.808C169.916 39.984 169.44 40.072 168.912 40.072C168.24 40.072 167.644 39.936 167.124 39.664C166.604 39.384 166.2 38.996 165.912 38.5C165.632 38.004 165.492 37.444 165.492 36.82C165.492 36.204 165.628 35.648 165.9 35.152C166.18 34.656 166.56 34.272 167.04 34C167.528 33.72 168.076 33.58 168.684 33.58C169.292 33.58 169.832 33.72 170.304 34C170.784 34.272 171.156 34.656 171.42 35.152C171.692 35.648 171.828 36.216 171.828 36.856ZM168.684 34.552C168.132 34.552 167.668 34.72 167.292 35.056C166.924 35.392 166.708 35.832 166.644 36.376H170.724C170.66 35.84 170.44 35.404 170.064 35.068C169.696 34.724 169.236 34.552 168.684 34.552ZM177.004 39.628C176.836 39.772 176.628 39.884 176.38 39.964C176.132 40.036 175.876 40.072 175.612 40.072C174.972 40.072 174.476 39.9 174.124 39.556C173.772 39.212 173.596 38.72 173.596 38.08V34.588H172.516V33.64H173.596V32.248H174.748V33.64H176.572V34.588H174.748V38.032C174.748 38.376 174.832 38.64 175 38.824C175.176 39.008 175.424 39.1 175.744 39.1C176.096 39.1 176.396 39 176.644 38.8L177.004 39.628ZM184.325 33.64V40H183.233V39.04C183.001 39.368 182.693 39.624 182.309 39.808C181.933 39.984 181.521 40.072 181.073 40.072C180.225 40.072 179.557 39.84 179.069 39.376C178.581 38.904 178.337 38.212 178.337 37.3V33.64H179.489V37.168C179.489 37.784 179.637 38.252 179.933 38.572C180.229 38.884 180.653 39.04 181.205 39.04C181.813 39.04 182.293 38.856 182.645 38.488C182.997 38.12 183.173 37.6 183.173 36.928V33.64H184.325ZM188.342 40.072C187.822 40.072 187.322 40.004 186.842 39.868C186.362 39.724 185.986 39.544 185.714 39.328L186.194 38.416C186.474 38.616 186.814 38.776 187.214 38.896C187.614 39.016 188.018 39.076 188.426 39.076C189.434 39.076 189.938 38.788 189.938 38.212C189.938 38.02 189.87 37.868 189.734 37.756C189.598 37.644 189.426 37.564 189.218 37.516C189.018 37.46 188.73 37.4 188.354 37.336C187.842 37.256 187.422 37.164 187.094 37.06C186.774 36.956 186.498 36.78 186.266 36.532C186.034 36.284 185.918 35.936 185.918 35.488C185.918 34.912 186.158 34.452 186.638 34.108C187.118 33.756 187.762 33.58 188.57 33.58C188.994 33.58 189.418 33.632 189.842 33.736C190.266 33.84 190.614 33.98 190.886 34.156L190.394 35.068C189.874 34.732 189.262 34.564 188.558 34.564C188.07 34.564 187.698 34.644 187.442 34.804C187.186 34.964 187.058 35.176 187.058 35.44C187.058 35.648 187.13 35.812 187.274 35.932C187.418 36.052 187.594 36.14 187.802 36.196C188.018 36.252 188.318 36.316 188.702 36.388C189.214 36.476 189.626 36.572 189.938 36.676C190.258 36.772 190.53 36.94 190.754 37.18C190.978 37.42 191.09 37.756 191.09 38.188C191.09 38.764 190.842 39.224 190.346 39.568C189.858 39.904 189.19 40.072 188.342 40.072ZM201.68 33.64V40H200.588V39.04C200.356 39.368 200.048 39.624 199.664 39.808C199.288 39.984 198.876 40.072 198.428 40.072C197.58 40.072 196.912 39.84 196.424 39.376C195.936 38.904 195.692 38.212 195.692 37.3V33.64H196.844V37.168C196.844 37.784 196.992 38.252 197.288 38.572C197.584 38.884 198.008 39.04 198.56 39.04C199.168 39.04 199.648 38.856 200 38.488C200.352 38.12 200.528 37.6 200.528 36.928V33.64H201.68ZM203.873 31.096H205.025V40H203.873V31.096ZM210.953 39.628C210.785 39.772 210.577 39.884 210.329 39.964C210.081 40.036 209.825 40.072 209.561 40.072C208.921 40.072 208.425 39.9 208.073 39.556C207.721 39.212 207.545 38.72 207.545 38.08V34.588H206.465V33.64H207.545V32.248H208.697V33.64H210.521V34.588H208.697V38.032C208.697 38.376 208.781 38.64 208.949 38.824C209.125 39.008 209.373 39.1 209.693 39.1C210.045 39.1 210.345 39 210.593 38.8L210.953 39.628ZM213.45 34.708C213.65 34.34 213.946 34.06 214.338 33.868C214.73 33.676 215.206 33.58 215.766 33.58V34.696C215.702 34.688 215.614 34.684 215.502 34.684C214.878 34.684 214.386 34.872 214.026 35.248C213.674 35.616 213.498 36.144 213.498 36.832V40H212.346V33.64H213.45V34.708ZM217.186 33.64H218.338V40H217.186V33.64ZM217.762 32.416C217.538 32.416 217.35 32.344 217.198 32.2C217.054 32.056 216.982 31.88 216.982 31.672C216.982 31.464 217.054 31.288 217.198 31.144C217.35 30.992 217.538 30.916 217.762 30.916C217.986 30.916 218.17 30.988 218.314 31.132C218.466 31.268 218.542 31.44 218.542 31.648C218.542 31.864 218.466 32.048 218.314 32.2C218.17 32.344 217.986 32.416 217.762 32.416ZM223.309 40.072C222.661 40.072 222.081 39.932 221.569 39.652C221.065 39.372 220.669 38.988 220.381 38.5C220.093 38.004 219.949 37.444 219.949 36.82C219.949 36.196 220.093 35.64 220.381 35.152C220.669 34.656 221.065 34.272 221.569 34C222.081 33.72 222.661 33.58 223.309 33.58C223.885 33.58 224.397 33.696 224.845 33.928C225.301 34.16 225.653 34.496 225.901 34.936L225.025 35.5C224.825 35.196 224.577 34.968 224.281 34.816C223.985 34.664 223.657 34.588 223.297 34.588C222.881 34.588 222.505 34.68 222.169 34.864C221.841 35.048 221.581 35.312 221.389 35.656C221.205 35.992 221.113 36.38 221.113 36.82C221.113 37.268 221.205 37.664 221.389 38.008C221.581 38.344 221.841 38.604 222.169 38.788C222.505 38.972 222.881 39.064 223.297 39.064C223.657 39.064 223.985 38.988 224.281 38.836C224.577 38.684 224.825 38.456 225.025 38.152L225.901 38.704C225.653 39.144 225.301 39.484 224.845 39.724C224.397 39.956 223.885 40.072 223.309 40.072ZM233.047 36.856C233.047 36.944 233.039 37.06 233.023 37.204H227.863C227.935 37.764 228.179 38.216 228.595 38.56C229.019 38.896 229.543 39.064 230.167 39.064C230.927 39.064 231.539 38.808 232.003 38.296L232.639 39.04C232.351 39.376 231.991 39.632 231.559 39.808C231.135 39.984 230.659 40.072 230.131 40.072C229.459 40.072 228.863 39.936 228.343 39.664C227.823 39.384 227.419 38.996 227.131 38.5C226.851 38.004 226.711 37.444 226.711 36.82C226.711 36.204 226.847 35.648 227.119 35.152C227.399 34.656 227.779 34.272 228.259 34C228.747 33.72 229.295 33.58 229.903 33.58C230.511 33.58 231.051 33.72 231.523 34C232.003 34.272 232.375 34.656 232.639 35.152C232.911 35.648 233.047 36.216 233.047 36.856ZM229.903 34.552C229.351 34.552 228.887 34.72 228.511 35.056C228.143 35.392 227.927 35.832 227.863 36.376H231.943C231.879 35.84 231.659 35.404 231.283 35.068C230.915 34.724 230.455 34.552 229.903 34.552ZM236.471 40.072C235.951 40.072 235.451 40.004 234.971 39.868C234.491 39.724 234.115 39.544 233.843 39.328L234.323 38.416C234.603 38.616 234.943 38.776 235.343 38.896C235.743 39.016 236.147 39.076 236.555 39.076C237.563 39.076 238.067 38.788 238.067 38.212C238.067 38.02 237.999 37.868 237.863 37.756C237.727 37.644 237.555 37.564 237.347 37.516C237.147 37.46 236.859 37.4 236.483 37.336C235.971 37.256 235.551 37.164 235.223 37.06C234.903 36.956 234.627 36.78 234.395 36.532C234.163 36.284 234.047 35.936 234.047 35.488C234.047 34.912 234.287 34.452 234.767 34.108C235.247 33.756 235.891 33.58 236.699 33.58C237.123 33.58 237.547 33.632 237.971 33.736C238.395 33.84 238.743 33.98 239.015 34.156L238.523 35.068C238.003 34.732 237.391 34.564 236.687 34.564C236.199 34.564 235.827 34.644 235.571 34.804C235.315 34.964 235.187 35.176 235.187 35.44C235.187 35.648 235.259 35.812 235.403 35.932C235.547 36.052 235.723 36.14 235.931 36.196C236.147 36.252 236.447 36.316 236.831 36.388C237.343 36.476 237.755 36.572 238.067 36.676C238.387 36.772 238.659 36.94 238.883 37.18C239.107 37.42 239.219 37.756 239.219 38.188C239.219 38.764 238.971 39.224 238.475 39.568C237.987 39.904 237.319 40.072 236.471 40.072ZM246.197 33.58C247.077 33.58 247.749 33.796 248.213 34.228C248.685 34.66 248.921 35.304 248.921 36.16V40H247.829V39.16C247.637 39.456 247.361 39.684 247.001 39.844C246.649 39.996 246.229 40.072 245.741 40.072C245.029 40.072 244.457 39.9 244.025 39.556C243.601 39.212 243.389 38.76 243.389 38.2C243.389 37.64 243.593 37.192 244.001 36.856C244.409 36.512 245.057 36.34 245.945 36.34H247.769V36.112C247.769 35.616 247.625 35.236 247.337 34.972C247.049 34.708 246.625 34.576 246.065 34.576C245.689 34.576 245.321 34.64 244.961 34.768C244.601 34.888 244.297 35.052 244.049 35.26L243.569 34.396C243.897 34.132 244.289 33.932 244.745 33.796C245.201 33.652 245.685 33.58 246.197 33.58ZM245.933 39.184C246.373 39.184 246.753 39.088 247.073 38.896C247.393 38.696 247.625 38.416 247.769 38.056V37.168H245.993C245.017 37.168 244.529 37.496 244.529 38.152C244.529 38.472 244.653 38.724 244.901 38.908C245.149 39.092 245.493 39.184 245.933 39.184ZM253.86 40.072C253.212 40.072 252.632 39.932 252.12 39.652C251.616 39.372 251.22 38.988 250.932 38.5C250.644 38.004 250.5 37.444 250.5 36.82C250.5 36.196 250.644 35.64 250.932 35.152C251.22 34.656 251.616 34.272 252.12 34C252.632 33.72 253.212 33.58 253.86 33.58C254.436 33.58 254.948 33.696 255.396 33.928C255.852 34.16 256.204 34.496 256.452 34.936L255.576 35.5C255.376 35.196 255.128 34.968 254.832 34.816C254.536 34.664 254.208 34.588 253.848 34.588C253.432 34.588 253.056 34.68 252.72 34.864C252.392 35.048 252.132 35.312 251.94 35.656C251.756 35.992 251.664 36.38 251.664 36.82C251.664 37.268 251.756 37.664 251.94 38.008C252.132 38.344 252.392 38.604 252.72 38.788C253.056 38.972 253.432 39.064 253.848 39.064C254.208 39.064 254.536 38.988 254.832 38.836C255.128 38.684 255.376 38.456 255.576 38.152L256.452 38.704C256.204 39.144 255.852 39.484 255.396 39.724C254.948 39.956 254.436 40.072 253.86 40.072ZM258.454 40.072C258.23 40.072 258.038 39.996 257.878 39.844C257.718 39.684 257.638 39.484 257.638 39.244C257.638 39.012 257.718 38.82 257.878 38.668C258.038 38.508 258.23 38.428 258.454 38.428C258.678 38.428 258.866 38.504 259.018 38.656C259.17 38.808 259.246 39.004 259.246 39.244C259.246 39.484 259.166 39.684 259.006 39.844C258.854 39.996 258.67 40.072 258.454 40.072ZM264.287 31.6H267.827C268.715 31.6 269.503 31.776 270.191 32.128C270.879 32.48 271.411 32.976 271.787 33.616C272.171 34.248 272.363 34.976 272.363 35.8C272.363 36.624 272.171 37.356 271.787 37.996C271.411 38.628 270.879 39.12 270.191 39.472C269.503 39.824 268.715 40 267.827 40H264.287V31.6ZM267.755 38.956C268.435 38.956 269.031 38.824 269.543 38.56C270.063 38.296 270.463 37.928 270.743 37.456C271.023 36.976 271.163 36.424 271.163 35.8C271.163 35.176 271.023 34.628 270.743 34.156C270.463 33.676 270.063 33.304 269.543 33.04C269.031 32.776 268.435 32.644 267.755 32.644H265.487V38.956H267.755ZM279.961 33.64V40H278.869V39.04C278.637 39.368 278.329 39.624 277.945 39.808C277.569 39.984 277.157 40.072 276.709 40.072C275.861 40.072 275.193 39.84 274.705 39.376C274.217 38.904 273.973 38.212 273.973 37.3V33.64H275.125V37.168C275.125 37.784 275.273 38.252 275.569 38.572C275.865 38.884 276.289 39.04 276.841 39.04C277.449 39.04 277.929 38.856 278.281 38.488C278.633 38.12 278.809 37.6 278.809 36.928V33.64H279.961ZM282.155 33.64H283.307V40H282.155V33.64ZM282.731 32.416C282.507 32.416 282.319 32.344 282.167 32.2C282.023 32.056 281.951 31.88 281.951 31.672C281.951 31.464 282.023 31.288 282.167 31.144C282.319 30.992 282.507 30.916 282.731 30.916C282.955 30.916 283.139 30.988 283.283 31.132C283.435 31.268 283.511 31.44 283.511 31.648C283.511 31.864 283.435 32.048 283.283 32.2C283.139 32.344 282.955 32.416 282.731 32.416ZM9.048 48.58C9.848 48.58 10.48 48.812 10.944 49.276C11.416 49.74 11.652 50.428 11.652 51.34V55H10.5V51.472C10.5 50.856 10.356 50.392 10.068 50.08C9.788 49.768 9.384 49.612 8.856 49.612C8.272 49.612 7.808 49.796 7.464 50.164C7.12 50.524 6.948 51.044 6.948 51.724V55H5.796V51.472C5.796 50.856 5.652 50.392 5.364 50.08C5.084 49.768 4.68 49.612 4.152 49.612C3.568 49.612 3.104 49.796 2.76 50.164C2.416 50.524 2.244 51.044 2.244 51.724V55H1.092V48.64H2.196V49.588C2.428 49.26 2.732 49.012 3.108 48.844C3.484 48.668 3.912 48.58 4.392 48.58C4.888 48.58 5.328 48.68 5.712 48.88C6.096 49.08 6.392 49.372 6.6 49.756C6.84 49.388 7.172 49.1 7.596 48.892C8.028 48.684 8.512 48.58 9.048 48.58ZM16.5308 55.072C15.8988 55.072 15.3308 54.932 14.8268 54.652C14.3228 54.372 13.9268 53.988 13.6388 53.5C13.3588 53.004 13.2188 52.444 13.2188 51.82C13.2188 51.196 13.3588 50.64 13.6388 50.152C13.9268 49.656 14.3228 49.272 14.8268 49C15.3308 48.72 15.8988 48.58 16.5308 48.58C17.1628 48.58 17.7268 48.72 18.2228 49C18.7268 49.272 19.1188 49.656 19.3988 50.152C19.6868 50.64 19.8308 51.196 19.8308 51.82C19.8308 52.444 19.6868 53.004 19.3988 53.5C19.1188 53.988 18.7268 54.372 18.2228 54.652C17.7268 54.932 17.1628 55.072 16.5308 55.072ZM16.5308 54.064C16.9388 54.064 17.3028 53.972 17.6228 53.788C17.9508 53.596 18.2068 53.332 18.3908 52.996C18.5748 52.652 18.6668 52.26 18.6668 51.82C18.6668 51.38 18.5748 50.992 18.3908 50.656C18.2068 50.312 17.9508 50.048 17.6228 49.864C17.3028 49.68 16.9388 49.588 16.5308 49.588C16.1228 49.588 15.7548 49.68 15.4268 49.864C15.1068 50.048 14.8508 50.312 14.6588 50.656C14.4748 50.992 14.3828 51.38 14.3828 51.82C14.3828 52.26 14.4748 52.652 14.6588 52.996C14.8508 53.332 15.1068 53.596 15.4268 53.788C15.7548 53.972 16.1228 54.064 16.5308 54.064ZM22.528 49.708C22.728 49.34 23.024 49.06 23.416 48.868C23.808 48.676 24.284 48.58 24.844 48.58V49.696C24.78 49.688 24.692 49.684 24.58 49.684C23.956 49.684 23.464 49.872 23.104 50.248C22.752 50.616 22.576 51.144 22.576 51.832V55H21.424V48.64H22.528V49.708ZM29.6359 48.58C30.2519 48.58 30.8039 48.716 31.2919 48.988C31.7799 49.26 32.1599 49.64 32.4319 50.128C32.7119 50.616 32.8519 51.18 32.8519 51.82C32.8519 52.46 32.7119 53.028 32.4319 53.524C32.1599 54.012 31.7799 54.392 31.2919 54.664C30.8039 54.936 30.2519 55.072 29.6359 55.072C29.1639 55.072 28.7319 54.98 28.3399 54.796C27.9479 54.612 27.6239 54.344 27.3679 53.992V55H26.2639V46.096H27.4159V49.6C27.6719 49.264 27.9919 49.012 28.3759 48.844C28.7599 48.668 29.1799 48.58 29.6359 48.58ZM29.5399 54.064C29.9479 54.064 30.3119 53.972 30.6319 53.788C30.9599 53.596 31.2159 53.332 31.3999 52.996C31.5919 52.652 31.6879 52.26 31.6879 51.82C31.6879 51.38 31.5919 50.992 31.3999 50.656C31.2159 50.312 30.9599 50.048 30.6319 49.864C30.3119 49.68 29.9479 49.588 29.5399 49.588C29.1399 49.588 28.7759 49.68 28.4479 49.864C28.1199 50.048 27.8639 50.312 27.6799 50.656C27.4959 50.992 27.4039 51.38 27.4039 51.82C27.4039 52.26 27.4959 52.652 27.6799 52.996C27.8639 53.332 28.1199 53.596 28.4479 53.788C28.7759 53.972 29.1399 54.064 29.5399 54.064ZM34.4436 48.64H35.5956V55H34.4436V48.64ZM35.0196 47.416C34.7956 47.416 34.6076 47.344 34.4556 47.2C34.3116 47.056 34.2396 46.88 34.2396 46.672C34.2396 46.464 34.3116 46.288 34.4556 46.144C34.6076 45.992 34.7956 45.916 35.0196 45.916C35.2436 45.916 35.4276 45.988 35.5716 46.132C35.7236 46.268 35.7996 46.44 35.7996 46.648C35.7996 46.864 35.7236 47.048 35.5716 47.2C35.4276 47.344 35.2436 47.416 35.0196 47.416ZM46.7658 51.856C46.7658 51.944 46.7578 52.06 46.7418 52.204H41.5818C41.6538 52.764 41.8978 53.216 42.3138 53.56C42.7378 53.896 43.2618 54.064 43.8858 54.064C44.6458 54.064 45.2578 53.808 45.7218 53.296L46.3578 54.04C46.0698 54.376 45.7098 54.632 45.2778 54.808C44.8538 54.984 44.3778 55.072 43.8498 55.072C43.1778 55.072 42.5818 54.936 42.0618 54.664C41.5418 54.384 41.1378 53.996 40.8498 53.5C40.5698 53.004 40.4298 52.444 40.4298 51.82C40.4298 51.204 40.5658 50.648 40.8378 50.152C41.1178 49.656 41.4978 49.272 41.9778 49C42.4658 48.72 43.0138 48.58 43.6218 48.58C44.2298 48.58 44.7698 48.72 45.2418 49C45.7218 49.272 46.0938 49.656 46.3578 50.152C46.6298 50.648 46.7658 51.216 46.7658 51.856ZM43.6218 49.552C43.0698 49.552 42.6058 49.72 42.2298 50.056C41.8618 50.392 41.6458 50.832 41.5818 51.376H45.6618C45.5978 50.84 45.3778 50.404 45.0018 50.068C44.6338 49.724 44.1738 49.552 43.6218 49.552ZM54.2934 48.64V55H53.2014V54.04C52.9694 54.368 52.6614 54.624 52.2774 54.808C51.9014 54.984 51.4894 55.072 51.0414 55.072C50.1934 55.072 49.5254 54.84 49.0374 54.376C48.5494 53.904 48.3054 53.212 48.3054 52.3V48.64H49.4574V52.168C49.4574 52.784 49.6054 53.252 49.9014 53.572C50.1974 53.884 50.6214 54.04 51.1734 54.04C51.7814 54.04 52.2614 53.856 52.6134 53.488C52.9654 53.12 53.1414 52.6 53.1414 51.928V48.64H54.2934ZM62.0252 48.58C62.9052 48.58 63.5772 48.796 64.0412 49.228C64.5132 49.66 64.7492 50.304 64.7492 51.16V55H63.6572V54.16C63.4652 54.456 63.1892 54.684 62.8292 54.844C62.4772 54.996 62.0572 55.072 61.5692 55.072C60.8572 55.072 60.2852 54.9 59.8532 54.556C59.4292 54.212 59.2172 53.76 59.2172 53.2C59.2172 52.64 59.4212 52.192 59.8292 51.856C60.2372 51.512 60.8852 51.34 61.7732 51.34H63.5972V51.112C63.5972 50.616 63.4532 50.236 63.1652 49.972C62.8772 49.708 62.4532 49.576 61.8932 49.576C61.5172 49.576 61.1492 49.64 60.7892 49.768C60.4292 49.888 60.1252 50.052 59.8772 50.26L59.3972 49.396C59.7252 49.132 60.1172 48.932 60.5732 48.796C61.0292 48.652 61.5132 48.58 62.0252 48.58ZM61.7612 54.184C62.2012 54.184 62.5812 54.088 62.9012 53.896C63.2212 53.696 63.4532 53.416 63.5972 53.056V52.168H61.8212C60.8452 52.168 60.3572 52.496 60.3572 53.152C60.3572 53.472 60.4812 53.724 60.7292 53.908C60.9772 54.092 61.3212 54.184 61.7612 54.184ZM74.8371 48.58C75.6371 48.58 76.2691 48.812 76.7331 49.276C77.2051 49.74 77.4411 50.428 77.4411 51.34V55H76.2891V51.472C76.2891 50.856 76.1451 50.392 75.8571 50.08C75.5771 49.768 75.1731 49.612 74.6451 49.612C74.0611 49.612 73.5971 49.796 73.2531 50.164C72.9091 50.524 72.7371 51.044 72.7371 51.724V55H71.5851V51.472C71.5851 50.856 71.4411 50.392 71.1531 50.08C70.8731 49.768 70.4691 49.612 69.9411 49.612C69.3571 49.612 68.8931 49.796 68.5491 50.164C68.2051 50.524 68.0331 51.044 68.0331 51.724V55H66.8811V48.64H67.9851V49.588C68.2171 49.26 68.5211 49.012 68.8971 48.844C69.2731 48.668 69.7011 48.58 70.1811 48.58C70.6771 48.58 71.1171 48.68 71.5011 48.88C71.8851 49.08 72.1811 49.372 72.3891 49.756C72.6291 49.388 72.9611 49.1 73.3851 48.892C73.8171 48.684 74.3011 48.58 74.8371 48.58ZM85.3439 51.856C85.3439 51.944 85.3359 52.06 85.3199 52.204H80.1599C80.2319 52.764 80.4759 53.216 80.8919 53.56C81.3159 53.896 81.8399 54.064 82.4639 54.064C83.2239 54.064 83.8359 53.808 84.2999 53.296L84.9359 54.04C84.6479 54.376 84.2879 54.632 83.8559 54.808C83.4319 54.984 82.9559 55.072 82.4279 55.072C81.7559 55.072 81.1599 54.936 80.6399 54.664C80.1199 54.384 79.7159 53.996 79.4279 53.5C79.1479 53.004 79.0079 52.444 79.0079 51.82C79.0079 51.204 79.1439 50.648 79.4159 50.152C79.6959 49.656 80.0759 49.272 80.5559 49C81.0439 48.72 81.5919 48.58 82.1999 48.58C82.8079 48.58 83.3479 48.72 83.8199 49C84.2999 49.272 84.6719 49.656 84.9359 50.152C85.2079 50.648 85.3439 51.216 85.3439 51.856ZM82.1999 49.552C81.6479 49.552 81.1839 49.72 80.8079 50.056C80.4399 50.392 80.2239 50.832 80.1599 51.376H84.2399C84.1759 50.84 83.9559 50.404 83.5799 50.068C83.2119 49.724 82.7519 49.552 82.1999 49.552ZM90.5196 54.628C90.3516 54.772 90.1436 54.884 89.8956 54.964C89.6476 55.036 89.3916 55.072 89.1276 55.072C88.4876 55.072 87.9916 54.9 87.6396 54.556C87.2876 54.212 87.1116 53.72 87.1116 53.08V49.588H86.0316V48.64H87.1116V47.248H88.2636V48.64H90.0876V49.588H88.2636V53.032C88.2636 53.376 88.3476 53.64 88.5156 53.824C88.6916 54.008 88.9396 54.1 89.2596 54.1C89.6116 54.1 89.9116 54 90.1596 53.8L90.5196 54.628ZM95.135 48.64H96.287V55H95.135V48.64ZM95.711 47.416C95.487 47.416 95.299 47.344 95.147 47.2C95.003 47.056 94.931 46.88 94.931 46.672C94.931 46.464 95.003 46.288 95.147 46.144C95.299 45.992 95.487 45.916 95.711 45.916C95.935 45.916 96.119 45.988 96.263 46.132C96.415 46.268 96.491 46.44 96.491 46.648C96.491 46.864 96.415 47.048 96.263 47.2C96.119 47.344 95.935 47.416 95.711 47.416ZM104.487 46.096V55H103.383V53.992C103.127 54.344 102.803 54.612 102.411 54.796C102.019 54.98 101.587 55.072 101.115 55.072C100.499 55.072 99.9465 54.936 99.4585 54.664C98.9705 54.392 98.5865 54.012 98.3065 53.524C98.0345 53.028 97.8985 52.46 97.8985 51.82C97.8985 51.18 98.0345 50.616 98.3065 50.128C98.5865 49.64 98.9705 49.26 99.4585 48.988C99.9465 48.716 100.499 48.58 101.115 48.58C101.571 48.58 101.991 48.668 102.375 48.844C102.759 49.012 103.079 49.264 103.335 49.6V46.096H104.487ZM101.211 54.064C101.611 54.064 101.975 53.972 102.303 53.788C102.631 53.596 102.887 53.332 103.071 52.996C103.255 52.652 103.347 52.26 103.347 51.82C103.347 51.38 103.255 50.992 103.071 50.656C102.887 50.312 102.631 50.048 102.303 49.864C101.975 49.68 101.611 49.588 101.211 49.588C100.803 49.588 100.435 49.68 100.107 49.864C99.7865 50.048 99.5305 50.312 99.3385 50.656C99.1545 50.992 99.0625 51.38 99.0625 51.82C99.0625 52.26 99.1545 52.652 99.3385 52.996C99.5305 53.332 99.7865 53.596 100.107 53.788C100.435 53.972 100.803 54.064 101.211 54.064ZM117.845 48.58C118.645 48.58 119.277 48.812 119.741 49.276C120.213 49.74 120.449 50.428 120.449 51.34V55H119.297V51.472C119.297 50.856 119.153 50.392 118.865 50.08C118.585 49.768 118.181 49.612 117.653 49.612C117.069 49.612 116.605 49.796 116.261 50.164C115.917 50.524 115.745 51.044 115.745 51.724V55H114.593V51.472C114.593 50.856 114.449 50.392 114.161 50.08C113.881 49.768 113.477 49.612 112.949 49.612C112.365 49.612 111.901 49.796 111.557 50.164C111.213 50.524 111.041 51.044 111.041 51.724V55H109.889V48.64H110.993V49.588C111.225 49.26 111.529 49.012 111.905 48.844C112.281 48.668 112.709 48.58 113.189 48.58C113.685 48.58 114.125 48.68 114.509 48.88C114.893 49.08 115.189 49.372 115.397 49.756C115.637 49.388 115.969 49.1 116.393 48.892C116.825 48.684 117.309 48.58 117.845 48.58ZM124.885 48.58C125.765 48.58 126.437 48.796 126.901 49.228C127.373 49.66 127.609 50.304 127.609 51.16V55H126.517V54.16C126.325 54.456 126.049 54.684 125.689 54.844C125.337 54.996 124.917 55.072 124.429 55.072C123.717 55.072 123.145 54.9 122.713 54.556C122.289 54.212 122.077 53.76 122.077 53.2C122.077 52.64 122.281 52.192 122.689 51.856C123.097 51.512 123.745 51.34 124.633 51.34H126.457V51.112C126.457 50.616 126.313 50.236 126.025 49.972C125.737 49.708 125.313 49.576 124.753 49.576C124.377 49.576 124.009 49.64 123.649 49.768C123.289 49.888 122.985 50.052 122.737 50.26L122.257 49.396C122.585 49.132 122.977 48.932 123.433 48.796C123.889 48.652 124.373 48.58 124.885 48.58ZM124.621 54.184C125.061 54.184 125.441 54.088 125.761 53.896C126.081 53.696 126.313 53.416 126.457 53.056V52.168H124.681C123.705 52.168 123.217 52.496 123.217 53.152C123.217 53.472 123.341 53.724 123.589 53.908C123.837 54.092 124.181 54.184 124.621 54.184ZM135.668 48.64V55H134.576V54.04C134.344 54.368 134.036 54.624 133.652 54.808C133.276 54.984 132.864 55.072 132.416 55.072C131.568 55.072 130.9 54.84 130.412 54.376C129.924 53.904 129.68 53.212 129.68 52.3V48.64H130.832V52.168C130.832 52.784 130.98 53.252 131.276 53.572C131.572 53.884 131.996 54.04 132.548 54.04C133.156 54.04 133.636 53.856 133.988 53.488C134.34 53.12 134.516 52.6 134.516 51.928V48.64H135.668ZM138.966 49.708C139.166 49.34 139.462 49.06 139.854 48.868C140.246 48.676 140.722 48.58 141.282 48.58V49.696C141.218 49.688 141.13 49.684 141.018 49.684C140.394 49.684 139.902 49.872 139.542 50.248C139.19 50.616 139.014 51.144 139.014 51.832V55H137.862V48.64H138.966V49.708ZM142.701 48.64H143.853V55H142.701V48.64ZM143.277 47.416C143.053 47.416 142.865 47.344 142.713 47.2C142.569 47.056 142.497 46.88 142.497 46.672C142.497 46.464 142.569 46.288 142.713 46.144C142.865 45.992 143.053 45.916 143.277 45.916C143.501 45.916 143.685 45.988 143.829 46.132C143.981 46.268 144.057 46.44 144.057 46.648C144.057 46.864 143.981 47.048 143.829 47.2C143.685 47.344 143.501 47.416 143.277 47.416ZM147.877 55.072C147.357 55.072 146.857 55.004 146.377 54.868C145.897 54.724 145.521 54.544 145.249 54.328L145.729 53.416C146.009 53.616 146.349 53.776 146.749 53.896C147.149 54.016 147.553 54.076 147.961 54.076C148.969 54.076 149.473 53.788 149.473 53.212C149.473 53.02 149.405 52.868 149.269 52.756C149.133 52.644 148.961 52.564 148.753 52.516C148.553 52.46 148.265 52.4 147.889 52.336C147.377 52.256 146.957 52.164 146.629 52.06C146.309 51.956 146.033 51.78 145.801 51.532C145.569 51.284 145.453 50.936 145.453 50.488C145.453 49.912 145.693 49.452 146.173 49.108C146.653 48.756 147.297 48.58 148.105 48.58C148.529 48.58 148.953 48.632 149.377 48.736C149.801 48.84 150.149 48.98 150.421 49.156L149.929 50.068C149.409 49.732 148.797 49.564 148.093 49.564C147.605 49.564 147.233 49.644 146.977 49.804C146.721 49.964 146.593 50.176 146.593 50.44C146.593 50.648 146.665 50.812 146.809 50.932C146.953 51.052 147.129 51.14 147.337 51.196C147.553 51.252 147.853 51.316 148.237 51.388C148.749 51.476 149.161 51.572 149.473 51.676C149.793 51.772 150.065 51.94 150.289 52.18C150.513 52.42 150.625 52.756 150.625 53.188C150.625 53.764 150.377 54.224 149.881 54.568C149.393 54.904 148.725 55.072 147.877 55.072ZM152.341 55.072C152.117 55.072 151.925 54.996 151.765 54.844C151.605 54.684 151.525 54.484 151.525 54.244C151.525 54.012 151.605 53.82 151.765 53.668C151.925 53.508 152.117 53.428 152.341 53.428C152.565 53.428 152.753 53.504 152.905 53.656C153.057 53.808 153.133 54.004 153.133 54.244C153.133 54.484 153.053 54.684 152.893 54.844C152.741 54.996 152.557 55.072 152.341 55.072ZM164.27 53.956V55H158.174V46.6H164.102V47.644H159.374V50.224H163.586V51.244H159.374V53.956H164.27ZM172.047 48.64V54.136C172.047 55.248 171.771 56.068 171.219 56.596C170.667 57.132 169.843 57.4 168.747 57.4C168.147 57.4 167.575 57.316 167.031 57.148C166.487 56.988 166.047 56.756 165.711 56.452L166.263 55.564C166.559 55.82 166.923 56.02 167.355 56.164C167.795 56.316 168.247 56.392 168.711 56.392C169.455 56.392 170.003 56.216 170.355 55.864C170.715 55.512 170.895 54.976 170.895 54.256V53.752C170.623 54.08 170.287 54.328 169.887 54.496C169.495 54.656 169.067 54.736 168.603 54.736C167.995 54.736 167.443 54.608 166.947 54.352C166.459 54.088 166.075 53.724 165.795 53.26C165.515 52.788 165.375 52.252 165.375 51.652C165.375 51.052 165.515 50.52 165.795 50.056C166.075 49.584 166.459 49.22 166.947 48.964C167.443 48.708 167.995 48.58 168.603 48.58C169.083 48.58 169.527 48.668 169.935 48.844C170.351 49.02 170.691 49.28 170.955 49.624V48.64H172.047ZM168.735 53.728C169.151 53.728 169.523 53.64 169.851 53.464C170.187 53.288 170.447 53.044 170.631 52.732C170.823 52.412 170.919 52.052 170.919 51.652C170.919 51.036 170.715 50.54 170.307 50.164C169.899 49.78 169.375 49.588 168.735 49.588C168.087 49.588 167.559 49.78 167.151 50.164C166.743 50.54 166.539 51.036 166.539 51.652C166.539 52.052 166.631 52.412 166.815 52.732C167.007 53.044 167.267 53.288 167.595 53.464C167.931 53.64 168.311 53.728 168.735 53.728ZM179.996 51.856C179.996 51.944 179.988 52.06 179.972 52.204H174.812C174.884 52.764 175.128 53.216 175.544 53.56C175.968 53.896 176.492 54.064 177.116 54.064C177.876 54.064 178.488 53.808 178.952 53.296L179.588 54.04C179.3 54.376 178.94 54.632 178.508 54.808C178.084 54.984 177.608 55.072 177.08 55.072C176.408 55.072 175.812 54.936 175.292 54.664C174.772 54.384 174.368 53.996 174.08 53.5C173.8 53.004 173.66 52.444 173.66 51.82C173.66 51.204 173.796 50.648 174.068 50.152C174.348 49.656 174.728 49.272 175.208 49C175.696 48.72 176.244 48.58 176.852 48.58C177.46 48.58 178 48.72 178.472 49C178.952 49.272 179.324 49.656 179.588 50.152C179.86 50.648 179.996 51.216 179.996 51.856ZM176.852 49.552C176.3 49.552 175.836 49.72 175.46 50.056C175.092 50.392 174.876 50.832 174.812 51.376H178.892C178.828 50.84 178.608 50.404 178.232 50.068C177.864 49.724 177.404 49.552 176.852 49.552ZM185.172 54.628C185.004 54.772 184.796 54.884 184.548 54.964C184.3 55.036 184.044 55.072 183.78 55.072C183.14 55.072 182.644 54.9 182.292 54.556C181.94 54.212 181.764 53.72 181.764 53.08V49.588H180.684V48.64H181.764V47.248H182.916V48.64H184.74V49.588H182.916V53.032C182.916 53.376 183 53.64 183.168 53.824C183.344 54.008 183.592 54.1 183.912 54.1C184.264 54.1 184.564 54 184.812 53.8L185.172 54.628ZM192.103 48.58C192.983 48.58 193.655 48.796 194.119 49.228C194.591 49.66 194.827 50.304 194.827 51.16V55H193.735V54.16C193.543 54.456 193.267 54.684 192.907 54.844C192.555 54.996 192.135 55.072 191.647 55.072C190.935 55.072 190.363 54.9 189.931 54.556C189.507 54.212 189.295 53.76 189.295 53.2C189.295 52.64 189.499 52.192 189.907 51.856C190.315 51.512 190.963 51.34 191.851 51.34H193.675V51.112C193.675 50.616 193.531 50.236 193.243 49.972C192.955 49.708 192.531 49.576 191.971 49.576C191.595 49.576 191.227 49.64 190.867 49.768C190.507 49.888 190.203 50.052 189.955 50.26L189.475 49.396C189.803 49.132 190.195 48.932 190.651 48.796C191.107 48.652 191.591 48.58 192.103 48.58ZM191.839 54.184C192.279 54.184 192.659 54.088 192.979 53.896C193.299 53.696 193.531 53.416 193.675 53.056V52.168H191.899C190.923 52.168 190.435 52.496 190.435 53.152C190.435 53.472 190.559 53.724 190.807 53.908C191.055 54.092 191.399 54.184 191.839 54.184ZM200.535 54.628C200.367 54.772 200.159 54.884 199.911 54.964C199.663 55.036 199.407 55.072 199.143 55.072C198.503 55.072 198.007 54.9 197.655 54.556C197.303 54.212 197.127 53.72 197.127 53.08V49.588H196.047V48.64H197.127V47.248H198.279V48.64H200.103V49.588H198.279V53.032C198.279 53.376 198.363 53.64 198.531 53.824C198.707 54.008 198.955 54.1 199.275 54.1C199.627 54.1 199.927 54 200.175 53.8L200.535 54.628ZM211.079 48.64V55H209.987V54.04C209.755 54.368 209.447 54.624 209.063 54.808C208.687 54.984 208.275 55.072 207.827 55.072C206.979 55.072 206.311 54.84 205.823 54.376C205.335 53.904 205.091 53.212 205.091 52.3V48.64H206.243V52.168C206.243 52.784 206.391 53.252 206.687 53.572C206.983 53.884 207.407 54.04 207.959 54.04C208.567 54.04 209.047 53.856 209.399 53.488C209.751 53.12 209.927 52.6 209.927 51.928V48.64H211.079ZM216.848 54.628C216.68 54.772 216.472 54.884 216.224 54.964C215.976 55.036 215.72 55.072 215.456 55.072C214.816 55.072 214.32 54.9 213.968 54.556C213.616 54.212 213.44 53.72 213.44 53.08V49.588H212.36V48.64H213.44V47.248H214.592V48.64H216.416V49.588H214.592V53.032C214.592 53.376 214.676 53.64 214.844 53.824C215.02 54.008 215.268 54.1 215.588 54.1C215.94 54.1 216.24 54 216.488 53.8L216.848 54.628ZM218.634 55.072C218.41 55.072 218.218 54.996 218.058 54.844C217.898 54.684 217.818 54.484 217.818 54.244C217.818 54.012 217.898 53.82 218.058 53.668C218.218 53.508 218.41 53.428 218.634 53.428C218.858 53.428 219.046 53.504 219.198 53.656C219.35 53.808 219.426 54.004 219.426 54.244C219.426 54.484 219.346 54.684 219.186 54.844C219.034 54.996 218.85 55.072 218.634 55.072Z" fill="#4F4F4F"/>
</svg>
