<svg width="24" height="24" viewBox="0 0 24 24" fill="none" xmlns="http://www.w3.org/2000/svg">
<g opacity="0.4">
<g clip-path="url(#clip0_3547_428)">
<path d="M22.5002 7.16953L20.1823 3.52734C19.9752 3.20039 19.6073 3 19.2145 3H4.7859C4.39304 3 4.02519 3.20039 3.81804 3.52734L1.50019 7.16953C0.303758 9.05039 1.36447 11.666 3.60019 11.9648C3.7609 11.9859 3.92519 11.9965 4.08947 11.9965C5.14662 11.9965 6.08233 11.5395 6.72519 10.8328C7.36804 11.5395 8.30733 11.9965 9.3609 11.9965C10.418 11.9965 11.3538 11.5395 11.9966 10.8328C12.6395 11.5395 13.5788 11.9965 14.6323 11.9965C15.6895 11.9965 16.6252 11.5395 17.268 10.8328C17.9145 11.5395 18.8502 11.9965 19.9038 11.9965C20.0716 11.9965 20.2323 11.9859 20.393 11.9648C22.6359 11.6695 23.7002 9.05391 22.5002 7.16953V7.16953ZM19.9109 13.125C19.5538 13.125 19.2002 13.0723 18.8573 12.9914V16.5H5.14304V12.9914C4.80019 13.0688 4.44662 13.125 4.08947 13.125C3.87519 13.125 3.65733 13.1109 3.44662 13.0828C3.24662 13.0547 3.05019 13.009 2.8609 12.9563V19.875C2.8609 20.4973 3.37162 21 4.00376 21H20.0038C20.6359 21 21.1466 20.4973 21.1466 19.875V12.9563C20.9538 13.0125 20.7609 13.0582 20.5609 13.0828C20.343 13.1109 20.1288 13.125 19.9109 13.125Z" fill="#4F4F4F"/>
</g>
</g>
<defs>
<clipPath id="clip0_3547_428">
<rect width="22" height="18" fill="white" transform="translate(1 3)"/>
</clipPath>
</defs>
</svg>
