<svg width="16" height="12" viewBox="0 0 16 12" fill="none" xmlns="http://www.w3.org/2000/svg">
<path d="M9.37509 10.2857H7.54176C7.4202 10.2857 7.30362 10.3309 7.21767 10.4112C7.13172 10.4916 7.08343 10.6006 7.08343 10.7143V11.5714C7.08343 11.6851 7.13172 11.7941 7.21767 11.8745C7.30362 11.9548 7.4202 12 7.54176 12H9.37509C9.49665 12 9.61323 11.9548 9.69918 11.8745C9.78513 11.7941 9.83342 11.6851 9.83342 11.5714V10.7143C9.83342 10.6006 9.78513 10.4916 9.69918 10.4112C9.61323 10.3309 9.49665 10.2857 9.37509 10.2857ZM5.70843 8.57143H4.33343V0.428571C4.33343 0.314907 4.28514 0.205898 4.19919 0.125526C4.11323 0.0451529 3.99666 0 3.8751 0H2.95843C2.83688 0 2.7203 0.0451529 2.63434 0.125526C2.54839 0.205898 2.5001 0.314907 2.5001 0.428571V8.57143H1.1251C0.718619 8.57143 0.512942 9.03321 0.801692 9.30295L3.09335 11.8744C3.1793 11.9547 3.29583 11.9998 3.41734 11.9998C3.53884 11.9998 3.65538 11.9547 3.74132 11.8744L6.03299 9.30295C6.32002 9.03375 6.11577 8.57143 5.70843 8.57143ZM13.0417 3.42857H7.54176C7.4202 3.42857 7.30362 3.47372 7.21767 3.5541C7.13172 3.63447 7.08343 3.74348 7.08343 3.85714V4.71429C7.08343 4.82795 7.13172 4.93696 7.21767 5.01733C7.30362 5.0977 7.4202 5.14286 7.54176 5.14286H13.0417C13.1633 5.14286 13.2799 5.0977 13.3658 5.01733C13.4518 4.93696 13.5001 4.82795 13.5001 4.71429V3.85714C13.5001 3.74348 13.4518 3.63447 13.3658 3.5541C13.2799 3.47372 13.1633 3.42857 13.0417 3.42857ZM11.2084 6.85714H7.54176C7.4202 6.85714 7.30362 6.9023 7.21767 6.98267C7.13172 7.06304 7.08343 7.17205 7.08343 7.28571V8.14286C7.08343 8.25652 7.13172 8.36553 7.21767 8.4459C7.30362 8.52628 7.4202 8.57143 7.54176 8.57143H11.2084C11.33 8.57143 11.4466 8.52628 11.5325 8.4459C11.6185 8.36553 11.6668 8.25652 11.6668 8.14286V7.28571C11.6668 7.17205 11.6185 7.06304 11.5325 6.98267C11.4466 6.9023 11.33 6.85714 11.2084 6.85714ZM14.8751 0H7.54176C7.4202 0 7.30362 0.0451529 7.21767 0.125526C7.13172 0.205898 7.08343 0.314907 7.08343 0.428571V1.28571C7.08343 1.39938 7.13172 1.50839 7.21767 1.58876C7.30362 1.66913 7.4202 1.71429 7.54176 1.71429H14.8751C14.9966 1.71429 15.1132 1.66913 15.1992 1.58876C15.2851 1.50839 15.3334 1.39938 15.3334 1.28571V0.428571C15.3334 0.314907 15.2851 0.205898 15.1992 0.125526C15.1132 0.0451529 14.9966 0 14.8751 0Z" fill="white"/>
</svg>
